<?xml version="1.0" encoding="UTF-8" standalone="no"?>
<!-- Created with Inkscape (http://www.inkscape.org/) -->

<svg
   xmlns:dc="http://purl.org/dc/elements/1.1/"
   xmlns:cc="http://creativecommons.org/ns#"
   xmlns:rdf="http://www.w3.org/1999/02/22-rdf-syntax-ns#"
   xmlns:svg="http://www.w3.org/2000/svg"
   xmlns="http://www.w3.org/2000/svg"
   xmlns:sodipodi="http://sodipodi.sourceforge.net/DTD/sodipodi-0.dtd"
   xmlns:inkscape="http://www.inkscape.org/namespaces/inkscape"
   width="496.69"
   height="291.44"
   id="svg3253"
   version="1.1"
   inkscape:version="0.48.2 r9819"
   sodipodi:docname="firstAnnualKansasLinuxFest_black.svg">
  <defs
     id="defs3255" />
  <sodipodi:namedview
     id="base"
     pagecolor="#000000"
     bordercolor="#666666"
     borderopacity="1.0"
     inkscape:pageopacity="0"
     inkscape:pageshadow="2"
     inkscape:zoom="2.8444963"
     inkscape:cx="248.345"
     inkscape:cy="145.72"
     inkscape:document-units="px"
     inkscape:current-layer="layer1"
     showgrid="false"
     fit-margin-top="0"
     fit-margin-left="0"
     fit-margin-right="0"
     fit-margin-bottom="0" />
  <metadata
     id="metadata3258">
    <rdf:RDF>
      <cc:Work
         rdf:about="">
        <dc:format>image/svg+xml</dc:format>
        <dc:type
           rdf:resource="http://purl.org/dc/dcmitype/StillImage" />
        <dc:title></dc:title>
      </cc:Work>
    </rdf:RDF>
  </metadata>
  <g
     inkscape:label="Layer 1"
     inkscape:groupmode="layer"
     id="layer1"
     transform="translate(707.08793,-448.46644)">
    <rect
       style="color:#000000;fill:#ffffff;fill-opacity:1;fill-rule:evenodd;stroke:none;stroke-width:1px;marker:none;visibility:visible;display:inline;overflow:visible;enable-background:accumulate"
       id="rect3336"
       width="500.88501"
       height="297.84299"
       x="-707.08545"
       y="442.06494" />
    <g
       transform="translate(-118.79086,-259.41503)"
       id="g4275">
      <path
         sodipodi:nodetypes="csccccccccccccccccccccssccccccccsscccsccccsscccccccsccscccssccccccccccccsccccsccccssccccccsssccccccccsscccsccscccccsccscsccccccccccccsccccccccscc"
         inkscape:connector-curvature="0"
         id="path2439-6-9-2"
         d="m -548.24071,734.14793 c -0.67135,7e-5 -1.33857,0.27648 -1.81328,0.75121 -0.47475,0.47472 -0.75115,1.14195 -0.7512,1.8133 l 0,115.95676 c 1.63013,-3.15333 3.36408,-6.14747 5.12899,-8.96238 l 0,-104.42989 37.23532,0 c 0.002,-0.006 0.005,-0.0111 0.007,-0.0168 0.60113,-1.68739 1.29287,-3.40035 2.11036,-5.11228 z m 50.61882,0 c -1.01159,1.65536 -1.85049,3.36713 -2.58122,5.129 l 67.54519,0 c -0.75859,-1.79401 -1.66546,-3.49188 -2.74148,-5.129 z m 70.97784,0 c 0.8024,1.65194 1.49209,3.3588 2.08367,5.129 l 275.04586,0 c 1.16831,1.2437 2.41442,2.13199 3.65977,2.97857 0.006,0.004 0.0106,0.009 0.0168,0.0132 2.15585,1.49425 3.54453,2.97289 6.55819,4.32093 0.52324,0.23365 0.98697,0.67522 1.8499,1.36574 0.86293,0.69051 2.34467,1.5861 4.15731,1.5861 1.08424,0 2.13228,-0.513 2.74146,-1.04849 0.60918,-0.53549 0.92114,-1.03542 1.15203,-1.36574 0.10712,-0.15325 0.0962,-0.13313 0.15693,-0.21036 0.4668,0.012 0.84597,0.0354 1.15871,0.0735 l 0,1.01845 c -9e-5,0.6163 0.23108,1.22994 0.63778,1.69299 0.83246,0.94691 1.74447,1.48815 2.32409,1.83655 0.20514,0.12331 0.33249,0.2063 0.47083,0.29719 l 0,2.49436 c -0.31911,-0.0823 -0.66151,-0.14358 -1.04183,-0.14358 -1.21888,0 -2.66119,0.80995 -3.25571,1.73303 -0.59453,0.9231 -0.68511,1.68004 -0.79141,2.27732 -0.19929,1.11994 -0.42891,1.59122 -0.31723,1.5227 -0.61982,0.53849 -1.57064,1.04375 -2.65797,1.91333 -1.10182,0.8812 -2.37083,2.58204 -2.37083,4.62812 l 0,1.03516 c -0.20947,0.0716 -0.42176,0.1441 -0.66784,0.27046 -0.0102,0.005 -0.0201,0.0111 -0.0301,0.0168 -1.0445,0.5546 -1.72282,1.78372 -1.87662,2.58119 -0.15384,0.79748 -0.0902,1.30024 -0.0902,1.59278 0,1.21857 0.49325,2.37485 1.02178,3.1088 0.52855,0.73396 1.0117,1.15984 1.3457,1.53603 0.002,0.002 0.004,0.004 0.007,0.007 1.07225,1.19934 1.86751,2.87791 4.16397,4.2608 0.006,0.004 0.0109,0.006 0.0168,0.0101 1.10932,0.68381 1.37291,1.46128 2.98523,3.09544 0.002,0.002 0.004,0.004 0.007,0.007 0.79981,0.81458 1.61607,1.17492 2.26729,1.39245 -0.2671,0.51057 -0.51757,1.17392 -0.51757,1.98346 0,1.33822 0.89459,2.41814 1.26557,2.77821 0.1302,0.12638 0.144,0.14691 0.17364,0.18033 0.0964,0.31047 0.16654,0.65523 0.38065,1.27222 0.25295,0.72888 0.82098,1.74818 1.72971,2.45432 0.002,0.002 0.004,0.004 0.007,0.007 0.57473,0.44311 0.97327,0.69882 1.20213,0.85484 -0.0251,0.21397 -0.0534,0.49132 -0.0534,0.98174 0,1.66934 1.15868,3.15247 2.09032,3.79664 0.93164,0.6442 1.69967,0.93139 2.15045,1.1988 2.00547,1.18693 3.38348,1.70493 5.56977,2.32074 l 0,0.003 c 0.002,0.002 0.004,-0.002 0.007,0 0.86496,0.24396 1.75746,0.088 2.13039,-0.0101 0.15095,-0.0397 0.19295,-0.049 0.22374,-0.0568 0.0763,0.004 0.13785,0.0248 0.39403,0.20371 0.12211,0.0852 0.41989,0.33483 0.59771,0.48416 l 0,159.89722 -236.2812,0 c -0.0334,1.83393 -0.33235,3.55714 -0.86484,5.12897 l 239.71055,0 c 0.67135,-7e-5 1.33856,-0.27645 1.81331,-0.7512 0.4747,-0.47471 0.75113,-1.14193 0.75118,-1.81329 l 0,-163.6805 c 0,-0.78433 -0.38245,-1.55993 -1.00512,-2.0369 -0.44993,-0.3445 -0.98252,-0.87117 -1.78643,-1.43252 -0.80394,-0.56135 -2.00979,-1.13865 -3.39932,-1.13865 -0.59242,0 -0.98471,0.10373 -1.22548,0.17362 -1.7706,-0.5037 -2.37027,-0.72966 -4.02038,-1.70632 l 0,0.003 c -0.7997,-0.4743 -1.39795,-0.75259 -1.69297,-0.92161 0.0253,-0.21494 0.0534,-0.49122 0.0534,-0.99509 0,-1.44143 -0.88964,-2.77409 -1.62286,-3.40597 -0.72966,-0.62886 -1.2929,-0.91781 -1.60281,-1.15535 -0.002,-0.002 -0.005,-0.002 -0.007,-0.003 0,-0.008 -0.004,-0.0281 -0.0234,-0.0835 -0.075,-0.21616 -0.1915,-0.81236 -0.49754,-1.62619 -0.004,-0.0111 -0.009,-0.0222 -0.0134,-0.0334 -0.19247,-0.48957 -0.43761,-0.84828 -0.66784,-1.12864 0.33285,-0.52072 0.76135,-1.36673 0.76135,-2.42426 0,-1.02827 -0.54066,-2.21562 -1.24219,-2.84832 -0.70153,-0.6327 -1.35186,-0.84722 -1.83655,-1.01512 -0.96939,-0.3358 -1.36357,-0.55107 -1.25889,-0.44411 -0.003,-0.002 -0.007,-0.004 -0.0101,-0.007 -1.08527,-1.09887 -1.80828,-2.55689 -3.987,-3.88683 -0.005,-0.003 -0.0111,-0.007 -0.0168,-0.0101 -1.12805,-0.67631 -1.41623,-1.52546 -2.98858,-3.28577 -0.003,-0.004 -0.003,-0.003 -0.007,-0.007 -0.41815,-0.47056 -0.64394,-0.70534 -0.81475,-0.90159 0.27518,-0.0648 0.59915,-0.18428 0.99172,-0.43074 0.76201,-0.47848 1.41916,-1.7373 1.41916,-2.60458 l 0,-2.79157 c 0,-0.38119 -0.0888,-0.19224 0.44747,-0.62112 0.53622,-0.42883 1.66605,-1.029 2.87171,-2.09365 1.37244,-1.2104 1.69252,-2.64039 1.83655,-3.64641 0.4617,0.19353 1.03824,0.36064 1.70632,0.36064 l 1.76309,0 c 0.5875,-0.002 1.17256,-0.21104 1.62619,-0.58433 0.85144,-0.69891 1.4492,-2.11298 1.4492,-3.11885 0,-1.42404 -0.85507,-2.38372 -1.26552,-2.79488 l 0,-3.09209 c 0,-0.61477 -0.22969,-1.22695 -0.63448,-1.68964 -0.83166,-0.94778 -1.74384,-1.49113 -2.32406,-1.83988 -0.20588,-0.12376 -0.33528,-0.20929 -0.47417,-0.30054 l 0,-0.68117 c 0,-1.02293 -0.45887,-2.1491 -1.15202,-2.845 -0.69318,-0.69596 -1.46449,-1.01052 -2.14042,-1.20212 -1.35184,-0.38317 -2.54705,-0.34061 -3.45942,-0.34061 -1.08426,0 -2.13562,0.51638 -2.7448,1.05187 -0.6092,0.53546 -0.92114,1.03541 -1.15203,1.36571 -0.0786,0.11246 -0.0583,0.0816 -0.11352,0.15361 -0.11692,-0.0608 -0.25113,-0.17279 -0.52761,-0.39403 -0.5604,-0.44842 -1.47116,-1.3739 -2.96186,-2.04025 l -0.003,0 c -2.26444,-1.0135 -3.19377,-2.10182 -5.75006,-3.8701 -0.005,-0.003 -0.0111,-0.007 -0.0168,-0.0102 -1.53018,-1.03997 -2.45835,-1.70054 -3.36925,-2.88173 -0.47699,-0.61846 -1.2492,-0.99821 -2.03022,-0.99842 z M -545.6762,859.85848 c -2.02772,4.31467 -3.79862,8.87923 -5.12899,13.6406 l 0,23.39439 c 0.92593,-1.47723 2.1247,-2.85904 3.50613,-4.1306 0.51232,-0.47155 1.05337,-0.93497 1.62286,-1.3891 z m 53.47382,103.66521 c 0.29488,1.67239 0.49719,3.38756 0.54427,5.129 l 52.85607,0 c -0.005,-0.18547 -0.007,-0.36923 -0.007,-0.55097 0,-1.5652 0.21177,-3.08976 0.58771,-4.57803 l -2.79826,0 c -5.97765,2.58233 -12.66396,3.94174 -19.97169,3.66309 -9.34431,-0.35627 -15.22587,-1.82921 -20.14534,-3.66309 z"
         style="font-size:medium;font-style:normal;font-variant:normal;font-weight:normal;font-stretch:normal;text-indent:0;text-align:start;text-decoration:none;line-height:normal;letter-spacing:normal;word-spacing:normal;text-transform:none;direction:ltr;block-progression:tb;writing-mode:lr-tb;text-anchor:start;baseline-shift:baseline;color:#000000;fill:#000000;fill-opacity:1;stroke:none;stroke-width:48;marker:none;visibility:visible;display:inline;overflow:visible;enable-background:accumulate;font-family:Sans;-inkscape-font-specification:Sans" />
      <path
         sodipodi:nodetypes="sssssssscssssssscscsssscssscsssssssscsccccccccccccccsccccccsccsccsccsccsscccsscsccccccccccccccscccscsscccsssccsscccsssccccccccccccsccccccscscccccssssscccsssssccssscsssscscccsscccssccsssssscscssccccccccccccsscssccccccccccccccccsssssssssssscccsccsssssscssc"
         inkscape:connector-curvature="0"
         id="path3790-1-7-4-7"
         d="m -468.33836,715.76446 c 12.02722,-0.0226 24.6118,3.29344 31.529,10.50965 9.45806,9.86698 11.69322,21.26404 11.50978,38.9898 -0.0534,5.16085 -0.64584,10.77585 -0.91144,17.14774 -0.42772,10.26387 1.62475,20.71993 5.03303,28.72209 1.58112,3.71229 3.8096,7.9218 6.97687,12.15506 4.20528,5.62065 7.0222,7.48402 16.48637,22.35018 2.64198,4.15002 6.54488,10.32524 9.42886,16.62348 5.4658,11.93664 11.0081,26.85905 8.62226,41.91765 5.80104,5.90823 6.34275,8.34898 8.84811,10.87262 2.44877,2.46665 6.42741,3.37222 10.30801,4.93624 5.29379,2.13355 10.32841,5.33758 10.34027,13.96176 0.008,5.98853 -1.49905,9.14865 -1.37923,14.47802 0.11017,4.90111 2.75977,7.01526 2.85526,14.55865 0.19705,15.56492 -19.92422,12.33642 -34.38426,15.67172 -11.61821,2.67985 -15.89579,9.5218 -32.99691,9.67887 -12.05659,0.11081 -17.97669,-5.7393 -20.55956,-11.70336 -5.28152,0.36555 -18.71462,-3.35531 -28.10909,-3.50859 -6.14235,-0.10023 -16.79557,2.85972 -27.65741,2.30677 -2.93558,9.93369 -10.61004,16.17191 -21.50329,16.00242 -11.01242,-0.17126 -19.96308,-6.92484 -23.8665,-10.90485 -2.28145,-2.32621 -4.87196,-6.1151 -9.29173,-9.34011 -14.03166,-10.23862 -29.23792,-11.66207 -29.40769,-22.76152 -0.0991,-6.47812 7.7658,-14.25733 8.94494,-15.76853 0.76147,-0.97589 1.99261,-4.28436 2.91977,-8.92071 0.94788,-4.73983 2.19441,-7.79485 3.07305,-9.42078 0.68809,-1.27332 1.97607,-2.94139 3.01656,-3.79894 2.0215,-1.66597 3.97497,-2.33112 4.35552,-2.74235 -0.29745,-0.4042 -3.15276,-9.40502 -3.05689,-17.08324 0.37188,-29.78273 20.97408,-54.4291 30.35135,-65.90516 15.72212,-19.24104 18.4879,-27.92268 17.5833,-47.28137 -0.24721,-5.29047 -0.13742,-10.70429 0.30652,-15.90563 0.71375,-8.36269 2.02274,-15.04676 4.16191,-21.05156 2.23183,-6.26489 5.55389,-12.48322 12.24378,-17.68817 5.89523,-4.58669 13.6819,-7.07784 24.22948,-7.09785 z m -5.46052,38.01383 c -0.11291,0 -0.22551,0.004 -0.33872,0.008 -3.54846,0.13785 -13.95006,3.87451 -13.88116,17.66398 0.0309,6.18256 2.0802,9.91103 4.28291,12.91322 0.18401,-0.0926 0.36881,-0.18496 0.55654,-0.27423 0.0293,-0.0139 0.0593,-0.0265 0.0887,-0.0403 0.21862,-0.10305 0.43858,-0.19956 0.66142,-0.29842 0.19559,-0.0868 0.39049,-0.17424 0.58879,-0.2581 0.0266,-0.0113 0.054,-0.0212 0.0806,-0.0323 0.19901,-0.0836 0.40389,-0.16899 0.60493,-0.25004 0.0269,-0.0109 0.0538,-0.0215 0.0807,-0.0323 0.43466,-0.17423 0.8667,-0.34396 1.30662,-0.50809 0.0215,-0.008 0.043,-0.0163 0.0645,-0.0243 0.44573,-0.16584 0.8937,-0.32549 1.33895,-0.48396 0.0163,-0.006 0.0321,-0.0104 0.0484,-0.0158 0.56062,-0.19931 1.10446,-0.3874 1.6535,-0.58074 -2.21881,-2.6736 -2.55699,-5.89368 -2.49233,-8.42062 0.10245,-4.00167 2.06333,-8.78532 5.79926,-8.79973 2.71869,-0.0106 6.42836,3.2843 6.38808,10.17092 -0.007,1.17376 -0.0714,1.90521 -0.16937,2.45195 0.76519,-0.41349 1.52272,-0.80816 2.29872,-1.16146 0.32954,-0.15003 0.66239,-0.2921 1.00014,-0.42747 0.0457,-0.0184 0.0913,-0.0384 0.13712,-0.0565 0.12298,-0.0483 0.24667,-0.099 0.37105,-0.14519 0.49254,-0.18365 0.99634,-0.34396 1.51635,-0.49202 0.17588,-0.0501 0.35259,-0.0996 0.53232,-0.14517 0.18025,-0.0457 0.36404,-0.088 0.54847,-0.12907 0.0671,-0.82277 0.12001,-1.80573 0.15325,-3.1537 0.23226,-9.41493 -5.90815,-17.24602 -12.88094,-17.47037 -0.11249,-0.004 -0.22584,-0.008 -0.33882,-0.008 z m 33.29537,2.6133 c -5.01257,0.005 -10.10608,6.38294 -10.30799,15.63947 -0.0219,1.0088 -0.0399,1.78223 -0.0403,2.47616 1.3701,0.33169 2.63879,0.81001 3.87963,1.47605 0.65359,0.35083 1.30175,0.75248 1.95186,1.20179 -0.0311,-0.41165 -0.0484,-0.87706 -0.0483,-1.56477 0,-5.00103 1.98791,-8.99706 4.95233,-8.99329 2.05264,0.003 4.19438,2.59129 4.04093,7.36401 -0.0879,2.73502 -0.73914,6.13785 -3.27467,8.00122 0.1088,0.10321 0.21203,0.20104 0.32262,0.30649 1.13757,0.8781 2.14092,1.62192 3.08917,2.31489 3.66781,-3.44851 4.97789,-8.34131 5.08138,-13.94567 0.12414,-6.71751 -3.17746,-14.283 -9.6466,-14.27635 z m -15.73623,19.59973 c -0.39856,0 -0.78159,0.0118 -1.15339,0.0322 -0.22216,0.012 -0.43969,0.0295 -0.65333,0.0484 -0.14358,0.0127 -0.28745,0.0248 -0.42751,0.0403 -0.0452,0.005 -0.0922,0.0109 -0.13712,0.0158 -0.12699,0.0153 -0.25477,0.0308 -0.37907,0.0484 -0.054,0.008 -0.10779,0.0158 -0.16133,0.0243 -0.33244,0.0503 -0.65233,0.11046 -0.96788,0.17744 -0.0265,0.006 -0.0543,0.0104 -0.0806,0.0158 -0.0833,0.0179 -0.16772,0.0372 -0.25005,0.0565 -0.0838,0.0196 -0.16713,0.0438 -0.25005,0.0645 -0.16507,0.0413 -0.33039,0.0833 -0.49197,0.12905 -0.1476,0.0417 -0.29049,0.0837 -0.43559,0.12904 -0.17269,0.054 -0.34634,0.11053 -0.51618,0.1694 -0.0376,0.0132 -0.0754,0.027 -0.11293,0.0403 -0.27336,0.0968 -0.54594,0.19768 -0.81463,0.30648 -0.30581,0.12395 -0.6076,0.25689 -0.91144,0.39524 -2.43249,1.10748 -4.86598,2.69931 -8.18671,4.39582 l -0.0323,0.0158 -0.0404,0.016 c -3.39653,1.41529 -7.49799,2.54356 -10.64676,4.14578 -1.57442,0.80113 -2.89476,1.70835 -3.78284,2.76658 -0.88801,1.05819 -1.38362,2.23466 -1.36312,3.79089 0.0434,3.29469 1.91692,5.99945 4.67008,8.2109 2.75318,2.21146 6.347,3.84428 9.46915,4.83137 l 0.0645,0.0243 0.0645,0.0243 c 0.5286,0.24634 1.08417,0.55651 1.66156,0.90337 0.57737,0.34689 1.17598,0.72884 1.80672,1.13728 1.2615,0.8169 2.63488,1.71959 4.13771,2.54877 2.25422,1.2438 4.75382,2.31588 7.4608,2.71815 0.2256,0.0335 0.44913,0.0648 0.67751,0.0887 0.68535,0.0717 1.38683,0.0978 2.09712,0.0726 3.56125,-0.12643 5.84268,-0.83065 8.04962,-2.16161 2.20693,-1.33093 4.35757,-3.3571 7.39626,-6.11382 l 0.0968,-0.0887 0.121,-0.0645 c 1.44077,-0.74241 2.79365,-1.57612 4.00865,-2.46812 0.60751,-0.44602 1.17827,-0.91029 1.70993,-1.37926 0.53167,-0.46895 1.02509,-0.94533 1.46798,-1.42763 1.7715,-1.92919 2.74106,-3.89967 2.75043,-5.54117 0.0106,-1.86753 -0.57709,-2.85113 -2.1778,-4.29096 -0.17952,-0.16154 -0.37562,-0.33051 -0.58072,-0.5001 -0.077,-0.0637 -0.16135,-0.12857 -0.24193,-0.19358 -0.12789,-0.10314 -0.25845,-0.20767 -0.39523,-0.31453 -0.14731,-0.11496 -0.30213,-0.23509 -0.45977,-0.35491 -0.17544,-0.13348 -0.36027,-0.27109 -0.54847,-0.41135 -0.29384,-0.21873 -0.60278,-0.44778 -0.92756,-0.68558 -0.73907,-0.5412 -1.56229,-1.1407 -2.46005,-1.80673 -0.68015,-0.50462 -1.39938,-1.04277 -2.1697,-1.63735 l -0.0484,-0.0323 -0.0403,-0.0403 c -3.06538,-2.92839 -5.34339,-4.85587 -7.5818,-6.05738 -0.92055,-0.4941 -1.84129,-0.87152 -2.82296,-1.15338 -0.13331,-0.0383 -0.26748,-0.0782 -0.40332,-0.11293 -0.0799,-0.0203 -0.16107,-0.0372 -0.24196,-0.0565 -0.14558,-0.0345 -0.28645,-0.0661 -0.43556,-0.0968 -0.008,-0.003 -0.016,-0.006 -0.0243,-0.008 -0.17581,-0.0358 -0.35908,-0.0662 -0.54037,-0.0968 -0.19132,-0.0325 -0.38256,-0.0619 -0.58074,-0.0887 -0.19819,-0.0268 -0.4072,-0.0513 -0.61298,-0.0726 -0.20581,-0.0215 -0.41494,-0.0405 -0.62917,-0.0564 -0.0635,-0.004 -0.12923,-0.012 -0.19358,-0.016 -0.0701,-0.004 -0.14674,-0.004 -0.21777,-0.008 -0.30266,-0.0172 -0.60632,-0.0326 -0.92753,-0.0403 -0.22095,-0.005 -0.44077,-0.009 -0.65333,-0.008 z m -25.68938,15.68788 c 1.20866,0.21352 2.46939,0.80189 3.84735,1.5244 2.0567,1.07845 4.371,2.54613 6.8962,4.02482 5.05051,2.95738 10.9321,5.91543 16.93,5.91217 6.20172,-0.003 10.63685,-2.75019 13.92146,-5.49275 1.64231,-1.37126 2.97737,-2.73752 4.10547,-3.76671 0.56406,-0.51458 1.0743,-0.94492 1.60505,-1.26632 0.26753,-0.16197 0.45989,-0.35194 0.87919,-0.38714 0.94377,-0.0792 1.06793,1.50396 0,2.27453 -0.28856,0.20822 -0.66524,0.51758 -1.09693,0.91142 -1.05208,0.95984 -2.43391,2.3736 -4.16999,3.82315 -3.47217,2.89915 -8.42852,5.96498 -15.24425,5.96866 -6.6671,0.004 -12.84881,-3.1907 -17.97852,-6.1945 -2.56486,-1.50186 -4.87312,-2.97019 -6.80749,-3.98447 -1.26805,-0.66486 -2.37284,-1.0844 -3.21824,-1.28244 -1.1093,-0.25987 -1.00729,-2.3012 0.3307,-2.06482 z m -6.25904,7.16238 c -0.98591,4.35172 -2.25613,9.29129 -4.92007,16.80091 -5.33645,15.04352 -10.24851,25.79963 -18.83349,42.75648 -3.38032,6.67673 -7.05141,16.32266 -8.86427,27.05251 -2.61114,0.006 -4.13332,0.37531 -5.73473,0.71781 -2.00446,-5.25705 -2.35724,-8.74799 -2.21807,-12.31634 0.3487,-8.93822 4.16502,-23.1863 15.51041,-34.09391 2.45144,-2.35684 1.4333,-3.48506 -0.97598,-1.23403 -9.01136,8.41958 -19.15187,25.8392 -18.70442,40.15125 0.1,3.19825 0.20399,6.29393 0.91145,9.31589 -10.88787,4.6374 -17.26681,10.39513 -16.94614,15.71207 0.0933,1.54646 0.15934,2.17157 0.45167,3.12952 l 2.41168,0.12904 c -0.22381,-1.12116 -0.32534,-2.03376 -0.38714,-2.80688 -0.34955,-4.37284 6.74959,-8.77775 11.86467,-11.00972 4.83803,-2.11108 8.08458,-3.02149 11.72759,-3.25856 5.29356,-0.34448 8.89879,2.45911 9.51755,9.64662 11.5441,4.30349 12.64072,16.7606 13.55853,32.52107 0.66487,11.47432 2.66409,12.95704 3.91187,19.2287 3.04636,2.0803 6.69669,4.6265 10.84841,6.45259 6.32692,2.7828 11.65768,5.12697 24.21336,5.60568 10.55108,0.40232 19.49338,-2.81552 26.92341,-8.33996 2.74658,-3.92687 5.50141,-7.82281 7.63022,-10.36446 -7.39322,-0.34228 -9.49279,-4.18477 -9.32399,-7.69473 0.31109,-6.46897 5.81843,-12.89822 11.39686,-18.07533 6.65488,-6.17602 13.16629,-9.24383 16.63155,-11.96955 6.44596,-5.07019 11.4075,-11.62387 11.59853,-23.39871 0.21529,-13.26853 -7.34487,-27.56749 -14.13923,-38.72361 -0.88999,-1.46135 -1.62338,-3.14663 -2.15353,-2.99238 -0.44996,0.13089 0.35054,2.20526 1.04044,3.58119 4.78076,9.53402 10.83163,19.24449 11.27592,33.31152 0.25125,7.95386 -2.45538,13.80249 -5.86377,18.63991 -0.25014,-14.22574 -4.02773,-25.83118 -8.47713,-35.2634 -7.73421,-16.39588 -15.7347,-34.76654 -18.3737,-46.47479 -1.06822,-4.73919 -1.45906,-8.67956 -1.62931,-11.99376 -0.18181,0.14297 -0.36904,0.28737 -0.55653,0.42749 -0.12445,0.0928 -0.25215,0.18277 -0.3791,0.27423 -0.12624,0.0913 -0.25047,0.18438 -0.37909,0.27421 -0.11114,0.0775 -0.21779,0.15753 -0.3307,0.23393 -0.021,0.0142 -0.0435,0.0262 -0.0645,0.0403 -0.10069,0.0678 -0.20446,0.13473 -0.30647,0.20165 -0.12796,0.0842 -0.25717,0.16717 -0.38716,0.25002 -0.13155,0.0836 -0.26171,0.16796 -0.39524,0.25005 -0.25049,0.15455 -0.50894,0.30255 -0.76623,0.45167 -0.20944,0.12112 -0.42369,0.23754 -0.63721,0.35491 -0.22013,0.12119 -0.43697,0.24594 -0.66137,0.36295 -2.97619,2.70201 -5.17836,4.79167 -7.63825,6.27515 -2.48459,1.4984 -5.23038,2.31668 -9.04171,2.45198 -0.81033,0.0288 -1.60601,0 -2.37937,-0.0807 -0.25779,-0.0267 -0.51274,-0.0594 -0.76626,-0.0968 -3.04261,-0.44845 -5.77579,-1.63962 -8.15448,-2.95205 -3.1575,-1.74217 -5.76165,-3.71034 -7.46077,-4.50875 -3.28398,-1.04757 -7.02449,-2.73035 -10.04183,-5.15401 -0.1904,-0.1529 -0.3802,-0.30835 -0.56465,-0.46782 -0.0217,-0.0186 -0.0429,-0.0377 -0.0645,-0.0564 -0.16241,-0.14167 -0.31876,-0.28879 -0.47586,-0.43556 -0.1223,-0.11411 -0.2441,-0.22961 -0.36297,-0.34683 -0.0539,-0.0532 -0.10815,-0.10741 -0.16133,-0.16131 -0.10061,-0.10181 -0.20059,-0.20243 -0.2984,-0.30651 -0.0678,-0.0722 -0.1353,-0.1445 -0.20165,-0.21774 -0.0792,-0.0873 -0.15682,-0.17735 -0.2339,-0.26619 -0.0189,-0.0217 -0.0378,-0.0428 -0.0564,-0.0645 -0.12211,-0.14223 -0.23848,-0.2894 -0.3549,-0.43555 -0.0922,-0.11586 -0.1858,-0.22851 -0.27426,-0.34679 -0.0407,-0.0543 -0.0812,-0.10652 -0.12098,-0.16133 -0.0999,-0.13766 -0.19575,-0.27853 -0.29037,-0.41942 -0.0248,-0.037 -0.0481,-0.0757 -0.0726,-0.11291 z m -25.06022,104.66906 c -0.74688,7.5305 -4.52987,16.0557 -12.7116,15.96212 -7.31818,-0.0837 -14.19291,-4.95757 -17.9866,-8.99332 -13.1516,-1.31508 -15.16507,5.38638 -16.67996,11.83246 -0.83716,3.56231 -1.58152,7.98815 -3.33112,11.11457 -1.47989,2.64453 -8.89969,8.96161 -8.9288,15.18777 -0.0322,6.89254 11.61573,9.49291 23.46326,16.55091 2.655,1.58169 6.88917,4.82958 8.99327,7.23496 5.14205,5.87834 13.68529,15.24567 26.79439,15.51847 10.64909,0.22163 17.67318,-8.04186 18.11565,-17.34131 0.32348,-6.7987 -2.62076,-14.13375 -4.29903,-20.07563 -1.63393,-5.7849 -3.10655,-11.9082 -3.38761,-17.79303 -0.60932,-12.75759 -1.77319,-25.80906 -10.04185,-29.19797 z m 125.00279,0.4517 c -0.12504,-0.004 -0.25168,-0.003 -0.37907,0 -4.50505,0.0608 -8.9885,2.35736 -13.29237,8.34803 -7.61293,10.59676 -8.51906,15.8415 -12.12279,21.83394 -6.45834,10.73938 -20.92096,23.28382 -20.92251,33.95677 0,6.76057 3.86134,16.84803 19.16419,16.62347 14.40478,-0.21138 20.04882,-6.45467 30.30295,-9.25948 16.52169,-4.51909 33.35179,-0.62942 33.247,-12.31637 -0.0614,-6.8519 -2.83544,-9.39348 -2.93594,-14.40539 -0.12388,-6.1815 1.59913,-9.93565 1.50021,-14.86516 -0.23067,-11.502 -11.41127,-10.2167 -17.59939,-14.66351 -5.8534,-4.20625 -9.08423,-15.02047 -16.96228,-15.2523 z"
         style="font-size:medium;font-style:normal;font-variant:normal;font-weight:normal;font-stretch:normal;text-indent:0;text-align:start;text-decoration:none;line-height:normal;letter-spacing:normal;word-spacing:normal;text-transform:none;direction:ltr;block-progression:tb;writing-mode:lr-tb;text-anchor:start;baseline-shift:baseline;color:#000000;fill:#000000;fill-opacity:1;stroke:none;stroke-width:8;marker:none;visibility:visible;display:inline;overflow:visible;enable-background:accumulate;font-family:Sans;-inkscape-font-specification:Sans" />
      <text
         sodipodi:linespacing="125%"
         id="text4063-3-7-8-7"
         y="989.01343"
         x="-292.66788"
         style="font-size:18.81341362px;font-style:normal;font-variant:normal;font-weight:600;font-stretch:normal;text-align:start;line-height:125%;letter-spacing:0px;word-spacing:0px;writing-mode:lr-tb;text-anchor:start;fill:#000000;fill-opacity:1;stroke:none;font-family:Open Sans Semibold;-inkscape-font-specification:'Open Sans Semibold, Semi-Bold'"
         xml:space="preserve"><tspan
           y="989.01343"
           x="-292.66788"
           id="tspan4065-8-3-9-9"
           sodipodi:role="line">LAWRENCE, KS</tspan></text>
      <text
         sodipodi:linespacing="125%"
         id="text4051-8-4-0-7-7-9"
         y="826.24445"
         x="-293.43945"
         style="font-size:55.96230316px;font-style:normal;font-variant:normal;font-weight:bold;font-stretch:normal;text-align:start;line-height:125%;letter-spacing:0px;word-spacing:0px;writing-mode:lr-tb;text-anchor:start;fill:#000000;fill-opacity:1;stroke:none;font-family:Open Sans Condensed;-inkscape-font-specification:'Open Sans Condensed, Bold'"
         xml:space="preserve"><tspan
           y="826.24445"
           x="-293.43945"
           id="tspan4053-4-2-1-5-8-8"
           sodipodi:role="line">LINUX</tspan></text>
      <text
         sodipodi:linespacing="125%"
         id="text4051-8-4-0-4-3-6"
         y="893.22864"
         x="-294.9682"
         style="font-size:80.2427063px;font-style:normal;font-variant:normal;font-weight:bold;font-stretch:normal;text-align:start;line-height:125%;letter-spacing:0px;word-spacing:0px;writing-mode:lr-tb;text-anchor:start;fill:#000000;fill-opacity:1;stroke:none;font-family:Open Sans Condensed;-inkscape-font-specification:'Open Sans Condensed, Bold'"
         xml:space="preserve"><tspan
           y="893.22864"
           x="-294.9682"
           id="tspan4053-4-2-1-1-5-5"
           sodipodi:role="line">FEST</tspan></text>
      <text
         sodipodi:linespacing="125%"
         id="text4047-6-1-2-2-1-0"
         y="777.5351"
         x="-292.67072"
         style="font-size:43.76752853px;font-style:normal;font-variant:normal;font-weight:bold;font-stretch:normal;text-align:start;line-height:125%;letter-spacing:0px;word-spacing:0px;writing-mode:lr-tb;text-anchor:start;fill:#000000;fill-opacity:1;stroke:none;font-family:Open Sans Condensed;-inkscape-font-specification:'Open Sans Condensed, Bold'"
         xml:space="preserve"><tspan
           y="777.5351"
           x="-292.67072"
           id="tspan4049-1-5-6-0-2-2"
           sodipodi:role="line">KANSAS</tspan></text>
      <text
         sodipodi:linespacing="125%"
         id="text4071-7-4-8"
         y="956.25055"
         x="-293.0527"
         style="font-size:72.44563293px;font-style:normal;font-variant:normal;font-weight:bold;font-stretch:normal;text-align:start;line-height:125%;letter-spacing:0px;word-spacing:0px;writing-mode:lr-tb;text-anchor:start;fill:#000000;fill-opacity:1;stroke:none;font-family:Open Sans;-inkscape-font-specification:Open Sans Bold"
         xml:space="preserve"><tspan
           style="font-size:72.44563293px;font-style:normal;font-variant:normal;font-weight:bold;font-stretch:normal;text-align:start;line-height:125%;writing-mode:lr-tb;text-anchor:start;font-family:Open Sans Condensed;-inkscape-font-specification:'Open Sans Condensed, Bold'"
           y="956.25055"
           x="-293.0527"
           id="tspan4073-7-3-6"
           sodipodi:role="line">2015</tspan></text>
    </g>
  </g>
</svg>
