<?xml version="1.0" encoding="UTF-8" standalone="no"?>
<!-- Created with Inkscape (http://www.inkscape.org/) -->

<svg
   xmlns:dc="http://purl.org/dc/elements/1.1/"
   xmlns:cc="http://creativecommons.org/ns#"
   xmlns:rdf="http://www.w3.org/1999/02/22-rdf-syntax-ns#"
   xmlns:svg="http://www.w3.org/2000/svg"
   xmlns="http://www.w3.org/2000/svg"
   xmlns:sodipodi="http://sodipodi.sourceforge.net/DTD/sodipodi-0.dtd"
   xmlns:inkscape="http://www.inkscape.org/namespaces/inkscape"
   width="496.69"
   height="291.44"
   id="svg3253"
   version="1.1"
   inkscape:version="0.48.2 r9819"
   sodipodi:docname="kansasLinuxFest_black.svg">
  <defs
     id="defs3255" />
  <sodipodi:namedview
     id="base"
     pagecolor="#000000"
     bordercolor="#666666"
     borderopacity="1.0"
     inkscape:pageopacity="0"
     inkscape:pageshadow="2"
     inkscape:zoom="2.8444963"
     inkscape:cx="248.345"
     inkscape:cy="145.72"
     inkscape:document-units="px"
     inkscape:current-layer="layer1"
     showgrid="false"
     fit-margin-top="0"
     fit-margin-left="0"
     fit-margin-right="0"
     fit-margin-bottom="0" />
  <metadata
     id="metadata3258">
    <rdf:RDF>
      <cc:Work
         rdf:about="">
        <dc:format>image/svg+xml</dc:format>
        <dc:type
           rdf:resource="http://purl.org/dc/dcmitype/StillImage" />
        <dc:title></dc:title>
      </cc:Work>
    </rdf:RDF>
  </metadata>
  <g
     inkscape:label="Layer 1"
     inkscape:groupmode="layer"
     id="layer1"
     transform="translate(707.08793,-448.46644)">
    <rect
       style="color:#000000;fill:#ffffff;fill-opacity:1;fill-rule:evenodd;stroke:none;stroke-width:1px;marker:none;visibility:visible;display:inline;overflow:visible;enable-background:accumulate"
       id="rect3336"
       width="500.88501"
       height="297.84299"
       x="-707.08545"
       y="442.06494" />
    <g
       transform="translate(-118.79019,53.246289)"
       id="g4258">
      <path
         sodipodi:nodetypes="csccccccccccccccccccccssccccccccsscccsccccsscccccccsccscccssccccccccccccsccccsccccssccccccsssccccccccsscccsccscccccsccscsccccccccccccsccccccccscc"
         inkscape:connector-curvature="0"
         id="path2439-6-8-26-7"
         d="m -548.24801,421.4866 c -0.67135,7e-5 -1.33857,0.27648 -1.81328,0.75121 -0.47475,0.47472 -0.75115,1.14195 -0.7512,1.8133 l 0,115.95676 c 1.63013,-3.15333 3.36408,-6.14747 5.12899,-8.96238 l 0,-104.42989 37.23532,0 c 0.002,-0.006 0.005,-0.0111 0.007,-0.0168 0.60113,-1.6874 1.29287,-3.40036 2.11036,-5.11229 z m 50.61882,0 c -1.01159,1.65536 -1.85049,3.36713 -2.58122,5.129 l 67.54519,0 c -0.75859,-1.79401 -1.66546,-3.49188 -2.74148,-5.129 z m 70.97784,0 c 0.8024,1.65194 1.49209,3.3588 2.08367,5.129 l 275.04588,0 c 1.1683,1.2437 2.4144,2.13199 3.6598,2.97857 0.01,0.004 0.011,0.009 0.017,0.0132 2.1559,1.49425 3.5445,2.97289 6.5582,4.32093 0.5232,0.23365 0.987,0.67522 1.8499,1.36574 0.8629,0.69051 2.3447,1.5861 4.1573,1.5861 1.0842,0 2.1323,-0.513 2.7415,-1.04849 0.6091,-0.53549 0.9211,-1.03542 1.152,-1.36574 0.1071,-0.15325 0.096,-0.13313 0.1569,-0.21036 0.4668,0.012 0.846,0.0354 1.1587,0.0735 l 0,1.01845 c -1e-4,0.6163 0.2311,1.22994 0.6378,1.69299 0.8325,0.94691 1.7445,1.48815 2.3241,1.83655 0.2051,0.12331 0.3325,0.2063 0.4708,0.29719 l 0,2.49436 c -0.3191,-0.0823 -0.6615,-0.14358 -1.0418,-0.14358 -1.2189,0 -2.6612,0.80996 -3.2557,1.73303 -0.5945,0.9231 -0.6851,1.68004 -0.7914,2.27732 -0.1993,1.11994 -0.4289,1.59123 -0.3172,1.5227 -0.6199,0.53849 -1.5707,1.04375 -2.658,1.91333 -1.1018,0.8812 -2.3709,2.58204 -2.3709,4.62813 l 0,1.03515 c -0.2094,0.0716 -0.4217,0.1441 -0.6678,0.27046 -0.01,0.005 -0.02,0.0111 -0.03,0.0168 -1.0445,0.5546 -1.7228,1.78372 -1.8766,2.5812 -0.1538,0.79747 -0.09,1.30023 -0.09,1.59277 0,1.21857 0.4932,2.37485 1.0217,3.1088 0.5286,0.73396 1.0118,1.15984 1.3458,1.53603 0,0.002 0,0.004 0.01,0.007 1.0722,1.19934 1.8675,2.87791 4.1639,4.2608 0.01,0.004 0.011,0.006 0.017,0.0101 1.1093,0.68381 1.3729,1.46128 2.9852,3.09544 0,0.002 0,0.004 0.01,0.007 0.7999,0.81458 1.6161,1.17492 2.2673,1.39245 -0.2671,0.51057 -0.5175,1.17392 -0.5175,1.98346 0,1.33822 0.8946,2.41814 1.2655,2.77821 0.1302,0.12639 0.144,0.14691 0.1737,0.18033 0.096,0.31047 0.1665,0.65523 0.3806,1.27222 0.253,0.72888 0.821,1.74818 1.7297,2.45432 0,0.002 0,0.004 0.01,0.007 0.5748,0.4431 0.9733,0.69881 1.2022,0.85483 -0.025,0.21397 -0.053,0.49132 -0.053,0.98174 0,1.66935 1.1587,3.15247 2.0904,3.79664 0.9316,0.6442 1.6996,0.93139 2.1504,1.1988 2.0055,1.18693 3.3835,1.70493 5.5698,2.32074 l 0,0.003 c 0,0.002 0,-0.002 0.01,0 0.865,0.24396 1.7574,0.088 2.1304,-0.0101 0.1509,-0.0397 0.1929,-0.049 0.2237,-0.0568 0.076,0.004 0.1379,0.0248 0.3941,0.20371 0.1221,0.0853 0.4198,0.33483 0.5977,0.48417 l 0,159.89722 -236.2812,0 c -0.033,1.83393 -0.3324,3.55715 -0.8649,5.12897 l 239.7106,0 c 0.6713,-7e-5 1.3385,-0.27645 1.8133,-0.7512 0.4747,-0.4747 0.7511,-1.14193 0.7512,-1.81328 l 0,-163.68052 c 0,-0.78433 -0.3825,-1.55993 -1.0052,-2.0369 -0.4499,-0.3445 -0.9825,-0.87117 -1.7864,-1.43252 -0.8039,-0.56135 -2.0098,-1.13865 -3.3993,-1.13865 -0.5924,0 -0.9847,0.10373 -1.2255,0.17362 -1.7706,-0.5037 -2.3703,-0.72966 -4.0204,-1.70632 l 0,0.003 c -0.7997,-0.4743 -1.3979,-0.75259 -1.6929,-0.92161 0.025,-0.21493 0.053,-0.49122 0.053,-0.99509 0,-1.44143 -0.8897,-2.77409 -1.6229,-3.40597 -0.7296,-0.62885 -1.2929,-0.91781 -1.6028,-1.15535 0,-0.002 -0.01,-0.002 -0.01,-0.003 0,-0.008 0,-0.0281 -0.023,-0.0835 -0.075,-0.21616 -0.1915,-0.81236 -0.4975,-1.62619 0,-0.0111 -0.01,-0.0222 -0.014,-0.0334 -0.1924,-0.48957 -0.4376,-0.84827 -0.6678,-1.12864 0.3329,-0.52072 0.7614,-1.36673 0.7614,-2.42426 0,-1.02826 -0.5407,-2.21562 -1.2422,-2.84832 -0.7016,-0.6327 -1.3519,-0.84721 -1.8366,-1.01512 -0.9694,-0.3358 -1.3635,-0.55107 -1.2589,-0.4441 0,-0.002 -0.01,-0.004 -0.01,-0.007 -1.0853,-1.09887 -1.8083,-2.55689 -3.987,-3.88683 -0.01,-0.003 -0.011,-0.007 -0.017,-0.0102 -1.128,-0.67631 -1.4162,-1.52546 -2.9885,-3.28577 0,-0.004 0,-0.003 -0.01,-0.007 -0.4181,-0.47056 -0.6439,-0.70534 -0.8147,-0.90158 0.2752,-0.0648 0.5992,-0.18429 0.9917,-0.43075 0.762,-0.47848 1.4192,-1.7373 1.4192,-2.60458 l 0,-2.79157 c 0,-0.38119 -0.089,-0.19224 0.4475,-0.62112 0.5362,-0.42883 1.666,-1.029 2.8717,-2.09365 1.3724,-1.2104 1.6925,-2.64039 1.8365,-3.64641 0.4617,0.19354 1.0383,0.36064 1.7063,0.36064 l 1.7631,0 c 0.5875,-0.002 1.1726,-0.21104 1.6262,-0.58433 0.8515,-0.69891 1.4492,-2.11298 1.4492,-3.11885 0,-1.42404 -0.8551,-2.38372 -1.2655,-2.79488 l 0,-3.09209 c 0,-0.61477 -0.2297,-1.22695 -0.6345,-1.68964 -0.8317,-0.94778 -1.7438,-1.49113 -2.3241,-1.83988 -0.2058,-0.12376 -0.3352,-0.20929 -0.4741,-0.30054 l 0,-0.68117 c 0,-1.02293 -0.4589,-2.1491 -1.152,-2.84499 -0.6932,-0.69597 -1.4645,-1.01053 -2.1405,-1.20213 -1.3518,-0.38317 -2.547,-0.34061 -3.4594,-0.34061 -1.0842,0 -2.1356,0.51638 -2.7448,1.05187 -0.6092,0.53546 -0.9211,1.03541 -1.152,1.36571 -0.079,0.11246 -0.058,0.0816 -0.1135,0.15361 -0.1169,-0.0608 -0.2512,-0.17279 -0.5276,-0.39403 -0.5604,-0.44842 -1.4712,-1.3739 -2.9619,-2.04025 l 0,0 c -2.2644,-1.0135 -3.1938,-2.10182 -5.7501,-3.8701 -0.01,-0.003 -0.011,-0.007 -0.017,-0.0102 -1.5302,-1.03997 -2.4584,-1.70054 -3.3693,-2.88173 -0.477,-0.61845 -1.2492,-0.99821 -2.0302,-0.99842 z M -545.6835,547.19715 c -2.02772,4.31467 -3.79862,8.87923 -5.12899,13.6406 l 0,23.39439 c 0.92593,-1.47723 2.1247,-2.85904 3.50613,-4.1306 0.51232,-0.47155 1.05337,-0.93497 1.62286,-1.3891 z m 53.47382,103.66523 c 0.29488,1.67239 0.49719,3.38756 0.54427,5.12899 l 52.85607,0 c -0.005,-0.18546 -0.007,-0.36923 -0.007,-0.55097 0,-1.56519 0.21177,-3.08975 0.58771,-4.57802 l -2.79826,0 c -5.97765,2.58232 -12.66396,3.94173 -19.97169,3.66309 -9.34431,-0.35628 -15.22587,-1.82921 -20.14534,-3.66309 z"
         style="font-size:medium;font-style:normal;font-variant:normal;font-weight:normal;font-stretch:normal;text-indent:0;text-align:start;text-decoration:none;line-height:normal;letter-spacing:normal;word-spacing:normal;text-transform:none;direction:ltr;block-progression:tb;writing-mode:lr-tb;text-anchor:start;baseline-shift:baseline;color:#000000;fill:#000000;fill-opacity:1;stroke:none;stroke-width:48;marker:none;visibility:visible;display:inline;overflow:visible;enable-background:accumulate;font-family:Sans;-inkscape-font-specification:Sans" />
      <path
         sodipodi:nodetypes="sssssssscssssssscscsssscssscsssssssscsccccccccccccccsccccccsccsccsscsccsscccsscsscccccccccccccscccscsscccsssccsscccsssccccccccccccsccccccscscccccssssscccsssssccsssssssscscccsscccssccsssssscscssccccccccccccsscssccccccccccccccccssscscsssssscccscccssssscsscsc"
         inkscape:connector-curvature="0"
         id="path3790-1-7-8-0-2"
         d="m -468.34566,403.10313 c 12.02722,-0.0226 24.6118,3.29344 31.529,10.50965 9.45806,9.86698 11.69322,21.26404 11.50978,38.9898 -0.0534,5.16085 -0.64584,10.77585 -0.91144,17.14774 -0.42772,10.26387 1.62475,20.71993 5.03303,28.72209 1.58112,3.71229 3.8096,7.9218 6.97689,12.15506 4.2053,5.62065 7.0222,7.48402 16.4864,22.35018 2.6419,4.15002 6.5448,10.32524 9.4288,16.62349 5.4658,11.93663 11.0081,26.85904 8.6223,41.91764 5.801,5.90823 6.3427,8.34898 8.8481,10.87262 2.4488,2.46665 6.4274,3.37222 10.308,4.93624 5.2938,2.13355 10.3284,5.33758 10.3403,13.96176 0.01,5.98853 -1.4991,9.14865 -1.3793,14.47802 0.1102,4.90112 2.7598,7.01528 2.8553,14.55866 0.197,15.56493 -19.9242,12.33643 -34.3843,15.67173 -11.6182,2.67984 -15.8958,9.52179 -32.99688,9.67887 -12.05659,0.11081 -17.97669,-5.73931 -20.55956,-11.70337 -5.28152,0.36555 -18.71462,-3.3553 -28.10909,-3.50858 -6.14235,-0.10024 -16.79557,2.85972 -27.65741,2.30677 -2.93558,9.93369 -10.61004,16.17191 -21.50329,16.00242 -11.01242,-0.17126 -19.96308,-6.92485 -23.8665,-10.90486 -2.28145,-2.32621 -4.87196,-6.11509 -9.29173,-9.3401 -14.03166,-10.23862 -29.23792,-11.66207 -29.40769,-22.76154 -0.0991,-6.47812 7.7658,-14.25733 8.94494,-15.76853 0.76147,-0.97589 1.99261,-4.28436 2.91977,-8.92071 0.94788,-4.73983 2.19441,-7.79485 3.07305,-9.42078 0.68809,-1.27332 1.97607,-2.94139 3.01656,-3.79894 2.0215,-1.66597 3.97497,-2.33112 4.35552,-2.74235 -0.29745,-0.4042 -3.15276,-9.40502 -3.05689,-17.08324 0.37188,-29.78272 20.97408,-54.4291 30.35135,-65.90516 15.72212,-19.24104 18.4879,-27.92268 17.5833,-47.28137 -0.24721,-5.29046 -0.13742,-10.70429 0.30652,-15.90563 0.71375,-8.36269 2.02274,-15.04675 4.16191,-21.05156 2.23183,-6.26489 5.55389,-12.48322 12.24378,-17.68817 5.89523,-4.58669 13.6819,-7.07784 24.22948,-7.09785 z m -5.46052,38.01383 c -0.11291,0 -0.22551,0.004 -0.33872,0.008 -3.54846,0.13785 -13.95006,3.87451 -13.88116,17.66398 0.0309,6.18256 2.0802,9.91103 4.28291,12.91323 0.18401,-0.0926 0.36881,-0.18497 0.55654,-0.27424 0.0293,-0.0139 0.0593,-0.0264 0.0887,-0.0403 0.21862,-0.10305 0.43858,-0.19955 0.66142,-0.29842 0.19559,-0.0868 0.39049,-0.17424 0.58879,-0.2581 0.0266,-0.0113 0.054,-0.0212 0.0806,-0.0323 0.19901,-0.0837 0.40389,-0.169 0.60493,-0.25005 0.0269,-0.0109 0.0538,-0.0215 0.0807,-0.0323 0.43466,-0.17423 0.8667,-0.34396 1.30662,-0.50809 0.0215,-0.008 0.043,-0.0163 0.0645,-0.0243 0.44573,-0.16584 0.8937,-0.32549 1.33895,-0.48396 0.0163,-0.006 0.0321,-0.0104 0.0484,-0.0158 0.56062,-0.19931 1.10446,-0.3874 1.6535,-0.58074 -2.21881,-2.6736 -2.55699,-5.89368 -2.49233,-8.42062 0.10245,-4.00167 2.06333,-8.78532 5.79926,-8.79973 2.71869,-0.0106 6.42836,3.2843 6.38808,10.17092 -0.007,1.17376 -0.0714,1.90521 -0.16937,2.45196 0.76519,-0.4135 1.52272,-0.80817 2.29872,-1.16147 0.32954,-0.15003 0.66239,-0.2921 1.00014,-0.42747 0.0457,-0.0184 0.0912,-0.0384 0.13712,-0.0565 0.12298,-0.0483 0.24667,-0.099 0.37105,-0.14519 0.49254,-0.18365 0.99634,-0.34396 1.51635,-0.49202 0.17588,-0.0501 0.35259,-0.0996 0.53232,-0.14517 0.18025,-0.0457 0.36404,-0.088 0.54847,-0.12907 0.0671,-0.82277 0.12001,-1.80573 0.15325,-3.1537 0.23226,-9.41493 -5.90815,-17.24602 -12.88094,-17.47037 -0.11249,-0.004 -0.22584,-0.008 -0.33882,-0.008 z m 33.29537,2.6133 c -5.01257,0.005 -10.10608,6.38294 -10.30799,15.63947 -0.0219,1.0088 -0.0399,1.78223 -0.0403,2.47616 1.3701,0.33169 2.63879,0.81001 3.87963,1.47605 0.65359,0.35083 1.30175,0.75248 1.95186,1.20179 -0.0311,-0.41165 -0.0484,-0.87706 -0.0483,-1.56477 0,-5.00103 1.98791,-8.99706 4.95233,-8.99329 2.05264,0.003 4.19438,2.59129 4.04093,7.36401 -0.0879,2.73502 -0.73914,6.13785 -3.27467,8.00122 0.1088,0.10321 0.21203,0.20104 0.32262,0.30649 1.13757,0.8781 2.14092,1.62192 3.08917,2.31489 3.66781,-3.44851 4.97789,-8.34131 5.08138,-13.94567 0.12414,-6.71751 -3.17746,-14.283 -9.6466,-14.27635 z m -15.73623,19.59973 c -0.39856,0 -0.78159,0.0118 -1.15339,0.0323 -0.22216,0.012 -0.43969,0.0295 -0.65333,0.0484 -0.14358,0.0127 -0.28745,0.0248 -0.42751,0.0403 -0.0452,0.005 -0.0922,0.0109 -0.13712,0.0158 -0.12699,0.0153 -0.25477,0.0308 -0.37907,0.0484 -0.054,0.008 -0.10779,0.0158 -0.16133,0.0243 -0.33244,0.0503 -0.65233,0.11046 -0.96788,0.17745 -0.0265,0.006 -0.0543,0.0104 -0.0806,0.0158 -0.0833,0.0179 -0.16772,0.0372 -0.25005,0.0564 -0.0838,0.0196 -0.16713,0.0438 -0.25005,0.0645 -0.16507,0.0413 -0.33039,0.0833 -0.49197,0.12905 -0.1476,0.0417 -0.29049,0.0837 -0.43559,0.12904 -0.17269,0.054 -0.34634,0.11053 -0.51618,0.1694 -0.0376,0.0132 -0.0754,0.027 -0.11293,0.0403 -0.27336,0.0968 -0.54594,0.19768 -0.81463,0.30648 -0.30581,0.12395 -0.6076,0.25689 -0.91144,0.39524 -2.43249,1.10748 -4.86598,2.69931 -8.18671,4.39582 l -0.0323,0.0158 -0.0403,0.016 c -3.39653,1.41529 -7.49799,2.54356 -10.64676,4.14578 -1.57442,0.80113 -2.89476,1.70835 -3.78284,2.76658 -0.88801,1.05819 -1.38362,2.23466 -1.36312,3.79089 0.0434,3.29469 1.91692,5.99945 4.67008,8.2109 2.75318,2.21146 6.347,3.84428 9.46915,4.83138 l 0.0645,0.0242 0.0645,0.0243 c 0.5286,0.24634 1.08417,0.55651 1.66156,0.90337 0.57737,0.34689 1.17598,0.72884 1.80672,1.13728 1.2615,0.8169 2.63488,1.71959 4.13771,2.54877 2.25422,1.2438 4.75382,2.31588 7.4608,2.71815 0.2256,0.0335 0.44913,0.0648 0.67751,0.0887 0.68535,0.0717 1.38683,0.0978 2.09712,0.0726 3.56125,-0.12643 5.84268,-0.83065 8.04962,-2.16161 2.20693,-1.33093 4.35757,-3.3571 7.39626,-6.11382 l 0.0968,-0.0887 0.121,-0.0645 c 1.44077,-0.7424 2.79365,-1.57612 4.00865,-2.46812 0.60751,-0.44601 1.17827,-0.91029 1.70993,-1.37926 0.53167,-0.46895 1.02509,-0.94533 1.46798,-1.42763 1.7715,-1.92919 2.74106,-3.89967 2.75043,-5.54117 0.0106,-1.86753 -0.57709,-2.85113 -2.1778,-4.29096 -0.17952,-0.16154 -0.37562,-0.33051 -0.58072,-0.5001 -0.077,-0.0637 -0.16135,-0.12857 -0.24193,-0.19358 -0.12789,-0.10314 -0.25845,-0.20767 -0.39523,-0.31453 -0.14731,-0.11496 -0.30213,-0.23509 -0.45977,-0.35491 -0.17544,-0.13348 -0.36027,-0.27109 -0.54847,-0.41135 -0.29384,-0.21873 -0.60278,-0.44778 -0.92756,-0.68558 -0.73907,-0.5412 -1.56229,-1.1407 -2.46005,-1.80672 -0.68015,-0.50463 -1.39938,-1.04278 -2.1697,-1.63736 l -0.0484,-0.0323 -0.0403,-0.0403 c -3.06538,-2.92838 -5.34339,-4.85587 -7.5818,-6.05738 -0.92055,-0.4941 -1.84129,-0.87152 -2.82296,-1.15338 -0.13331,-0.0383 -0.26748,-0.0782 -0.40332,-0.11293 -0.0799,-0.0203 -0.16107,-0.0372 -0.24196,-0.0565 -0.14558,-0.0345 -0.28645,-0.0661 -0.43556,-0.0968 -0.008,-0.003 -0.016,-0.006 -0.0243,-0.008 -0.17581,-0.0358 -0.35908,-0.0662 -0.54037,-0.0968 -0.19132,-0.0325 -0.38256,-0.0619 -0.58074,-0.0887 -0.19819,-0.0268 -0.4072,-0.0513 -0.61298,-0.0726 -0.20581,-0.0215 -0.41494,-0.0405 -0.62917,-0.0564 -0.0635,-0.004 -0.12923,-0.012 -0.19358,-0.016 -0.0701,-0.004 -0.14674,-0.004 -0.21777,-0.008 -0.30266,-0.0172 -0.60632,-0.0326 -0.92753,-0.0403 -0.22095,-0.005 -0.44077,-0.009 -0.65333,-0.008 z m -25.68938,15.68788 c 1.20866,0.21352 2.46939,0.80189 3.84735,1.5244 2.0567,1.07845 4.371,2.54613 6.8962,4.02482 5.05051,2.95738 10.9321,5.91543 16.93,5.91217 6.20172,-0.003 10.63685,-2.75019 13.92146,-5.49275 1.64231,-1.37126 2.97737,-2.73752 4.10547,-3.76671 0.56406,-0.51458 1.0743,-0.94492 1.60505,-1.26632 0.26753,-0.16197 0.45989,-0.35194 0.87919,-0.38714 0.94377,-0.0792 1.06793,1.50396 0,2.27454 -0.28856,0.20821 -0.66524,0.51757 -1.09693,0.91141 -1.05208,0.95984 -2.43391,2.3736 -4.16999,3.82315 -3.47217,2.89915 -8.42852,5.96498 -15.24425,5.96866 -6.6671,0.004 -12.84881,-3.1907 -17.97852,-6.1945 -2.56486,-1.50186 -4.87312,-2.97019 -6.80749,-3.98447 -1.26805,-0.66486 -2.37284,-1.0844 -3.21824,-1.28244 -1.1093,-0.25987 -1.00729,-2.3012 0.3307,-2.06482 z m -6.25904,7.16238 c -0.98591,4.35172 -2.25613,9.29129 -4.92007,16.80091 -5.33645,15.04352 -10.24851,25.79963 -18.83349,42.75648 -3.38032,6.67673 -7.05141,16.32266 -8.86427,27.05251 -2.61114,0.006 -4.13332,0.37531 -5.73473,0.71781 -2.00446,-5.25705 -2.35724,-8.74799 -2.21807,-12.31634 0.3487,-8.93822 4.16502,-23.1863 15.51041,-34.09391 2.45144,-2.35684 1.4333,-3.48506 -0.97598,-1.23403 -9.01136,8.41958 -19.15187,25.8392 -18.70442,40.15125 0.1,3.19825 0.20399,6.29393 0.91145,9.31589 -10.88787,4.6374 -17.26681,10.39513 -16.94614,15.71207 0.0933,1.54646 0.15934,2.17157 0.45167,3.12952 l 2.41168,0.12905 c -0.22381,-1.12117 -0.32534,-2.03377 -0.38714,-2.80689 -0.34955,-4.37284 6.74959,-8.77774 11.86467,-11.00972 4.83803,-2.11108 8.08458,-3.02149 11.72759,-3.25856 5.29356,-0.34448 8.89879,2.45911 9.51755,9.64662 11.5441,4.30349 12.64072,16.76061 13.55853,32.52107 0.66487,11.47432 2.66409,12.95705 3.91187,19.22869 3.04636,2.08032 6.69669,4.62652 10.84841,6.45262 6.32692,2.78279 11.65768,5.12696 24.21336,5.60568 10.55108,0.40231 19.49338,-2.81552 26.92341,-8.33997 2.74658,-3.92689 5.50141,-7.82282 7.63022,-10.36447 -7.39322,-0.34228 -9.49279,-4.18477 -9.32399,-7.69473 0.31109,-6.46897 5.81843,-12.89822 11.39686,-18.07533 6.65488,-6.17602 13.16628,-9.24383 16.63158,-11.96955 6.4459,-5.07019 11.4075,-11.62387 11.5985,-23.39871 0.2153,-13.26853 -7.3449,-27.56749 -14.1392,-38.72361 -0.89,-1.46135 -1.6234,-3.14663 -2.1536,-2.99238 -0.4499,0.13089 0.3506,2.20526 1.0405,3.58119 4.7807,9.53402 10.8316,19.24449 11.2759,33.31152 0.2513,7.95386 -2.4554,13.80249 -5.8638,18.63991 -0.2501,-14.22574 -4.0277,-25.83118 -8.4771,-35.2634 -7.73421,-16.39588 -15.7347,-34.76654 -18.3737,-46.47479 -1.06822,-4.73919 -1.45906,-8.67956 -1.62931,-11.99376 -0.18181,0.14297 -0.36904,0.28737 -0.55653,0.42749 -0.12445,0.0928 -0.25215,0.18277 -0.3791,0.27423 -0.12624,0.0913 -0.25047,0.18438 -0.37909,0.27421 -0.11114,0.0775 -0.21779,0.15753 -0.3307,0.23393 -0.021,0.0142 -0.0435,0.0262 -0.0645,0.0403 -0.10069,0.0678 -0.20446,0.13473 -0.30647,0.20165 -0.12796,0.0842 -0.25717,0.16718 -0.38716,0.25002 -0.13155,0.0836 -0.26171,0.16796 -0.39524,0.25005 -0.25049,0.15455 -0.50894,0.30255 -0.76623,0.45167 -0.20944,0.12112 -0.42369,0.23754 -0.63721,0.35491 -0.22013,0.12119 -0.43697,0.24594 -0.66137,0.36295 -2.97619,2.70201 -5.17836,4.79167 -7.63825,6.27515 -2.48459,1.4984 -5.23038,2.31668 -9.04171,2.45198 -0.81033,0.0288 -1.60601,0 -2.37937,-0.0807 -0.25779,-0.0267 -0.51274,-0.0594 -0.76626,-0.0968 -3.04261,-0.44844 -5.77579,-1.63962 -8.15448,-2.95205 -3.1575,-1.74217 -5.76165,-3.71034 -7.46077,-4.50875 -3.28398,-1.04757 -7.02449,-2.73035 -10.04183,-5.15401 -0.1904,-0.1529 -0.3802,-0.30835 -0.56465,-0.46782 -0.0217,-0.0186 -0.043,-0.0377 -0.0645,-0.0564 -0.16241,-0.14167 -0.31876,-0.28879 -0.47586,-0.43556 -0.1223,-0.11411 -0.2441,-0.22961 -0.36297,-0.34683 -0.054,-0.0532 -0.10815,-0.10741 -0.16133,-0.16131 -0.10061,-0.10181 -0.20059,-0.20243 -0.2984,-0.30651 -0.0678,-0.0722 -0.1353,-0.1445 -0.20165,-0.21774 -0.0792,-0.0873 -0.15682,-0.17735 -0.2339,-0.26619 -0.0189,-0.0217 -0.0378,-0.0428 -0.0564,-0.0645 -0.12211,-0.14224 -0.23848,-0.28941 -0.3549,-0.43556 -0.0922,-0.11586 -0.1858,-0.22851 -0.27426,-0.34679 -0.0407,-0.0543 -0.0812,-0.10652 -0.12098,-0.16133 -0.0999,-0.13766 -0.19575,-0.27853 -0.29037,-0.41942 -0.0248,-0.0371 -0.0481,-0.0757 -0.0726,-0.11291 z m -25.06022,104.66906 c -0.74688,7.5305 -4.52987,16.0557 -12.7116,15.96212 -7.31818,-0.0837 -14.19291,-4.95757 -17.9866,-8.99332 -13.1516,-1.31508 -15.16507,5.38638 -16.67996,11.83246 -0.83716,3.56232 -1.58152,7.98815 -3.33112,11.11457 -1.47989,2.64453 -8.89969,8.96161 -8.9288,15.18777 -0.0322,6.89255 11.61573,9.49293 23.46326,16.55092 2.655,1.58169 6.88917,4.82959 8.99327,7.23497 5.14205,5.87833 13.68529,15.24567 26.79439,15.51846 10.64909,0.22164 17.67318,-8.04185 18.11565,-17.3413 0.32348,-6.7987 -2.62076,-14.13376 -4.29903,-20.07566 -1.63393,-5.78489 -3.10655,-11.90819 -3.38761,-17.79302 -0.60932,-12.75759 -1.77319,-25.80906 -10.04185,-29.19797 z m 125.00278,0.4517 c -0.125,-0.004 -0.2517,-0.003 -0.3791,0 -4.505,0.0608 -8.9885,2.35736 -13.2923,8.34803 -7.613,10.59676 -8.5191,15.8415 -12.1228,21.83394 -6.45836,10.73938 -20.92098,23.28384 -20.92253,33.95679 0,6.76056 3.86134,16.84803 19.16423,16.62346 14.4047,-0.21137 20.0488,-6.45466 30.3029,-9.25948 16.5217,-4.51908 33.3518,-0.62942 33.247,-12.31636 -0.061,-6.85191 -2.8354,-9.39348 -2.9359,-14.40541 -0.1239,-6.1815 1.5991,-9.93565 1.5002,-14.86516 -0.2307,-11.502 -11.4113,-10.2167 -17.5994,-14.66351 -5.8534,-4.20625 -9.0842,-15.02047 -16.9623,-15.2523 z"
         style="font-size:medium;font-style:normal;font-variant:normal;font-weight:normal;font-stretch:normal;text-indent:0;text-align:start;text-decoration:none;line-height:normal;letter-spacing:normal;word-spacing:normal;text-transform:none;direction:ltr;block-progression:tb;writing-mode:lr-tb;text-anchor:start;baseline-shift:baseline;color:#000000;fill:#000000;fill-opacity:1;stroke:none;stroke-width:8;marker:none;visibility:visible;display:inline;overflow:visible;enable-background:accumulate;font-family:Sans;-inkscape-font-specification:Sans" />
      <text
         sodipodi:linespacing="125%"
         id="text4051-8-4-0-7-0-1-9"
         y="564.05682"
         x="-312.58664"
         style="font-size:66.60490417px;font-style:normal;font-variant:normal;font-weight:bold;font-stretch:normal;text-align:start;line-height:125%;letter-spacing:0px;word-spacing:0px;writing-mode:lr-tb;text-anchor:start;fill:#000000;fill-opacity:1;stroke:none;font-family:Open Sans Condensed;-inkscape-font-specification:'Open Sans Condensed, Bold'"
         xml:space="preserve"><tspan
           y="564.05682"
           x="-312.58664"
           id="tspan4053-4-2-1-5-87-6-7"
           sodipodi:role="line">LINUX</tspan></text>
      <text
         sodipodi:linespacing="125%"
         id="text4051-8-4-0-4-7-5-5"
         y="643.77966"
         x="-314.4061"
         style="font-size:95.50281525px;font-style:normal;font-variant:normal;font-weight:bold;font-stretch:normal;text-align:start;line-height:125%;letter-spacing:0px;word-spacing:0px;writing-mode:lr-tb;text-anchor:start;fill:#000000;fill-opacity:1;stroke:none;font-family:Open Sans Condensed;-inkscape-font-specification:'Open Sans Condensed, Bold'"
         xml:space="preserve"><tspan
           y="643.77966"
           x="-314.4061"
           id="tspan4053-4-2-1-1-8-7-3"
           sodipodi:role="line">FEST</tspan></text>
      <text
         sodipodi:linespacing="125%"
         id="text4047-6-1-2-2-3-5-4"
         y="506.08426"
         x="-311.67136"
         style="font-size:52.09099197px;font-style:normal;font-variant:normal;font-weight:bold;font-stretch:normal;text-align:start;line-height:125%;letter-spacing:0px;word-spacing:0px;writing-mode:lr-tb;text-anchor:start;fill:#000000;fill-opacity:1;stroke:none;font-family:Open Sans Condensed;-inkscape-font-specification:'Open Sans Condensed, Bold'"
         xml:space="preserve"><tspan
           y="506.08426"
           x="-311.67136"
           id="tspan4049-1-5-6-0-8-4-3"
           sodipodi:role="line">KANSAS</tspan></text>
      <path
         inkscape:connector-curvature="0"
         id="text4043-46-3-3-0-4-7-2-1"
         d="m -288.8125,432.9375 c -1.19304,2e-5 -2.20487,0.38507 -2.9375,1.15625 -0.73363,0.77225 -1.09375,1.8324 -1.09375,3.09375 0,0.65527 0.0961,1.23289 0.28125,1.75 0.18146,0.50674 0.44741,0.96545 0.78125,1.375 0.33919,0.41613 0.8213,0.82391 1.4375,1.25 0.67024,0.45925 1.14434,0.88161 1.40625,1.21875 0.25734,0.33126 0.375,0.67293 0.375,1.0625 0,0.40878 -0.0975,0.67492 -0.28125,0.875 -0.17384,0.18924 -0.44282,0.3125 -0.875,0.3125 -0.78093,0 -1.68101,-0.31207 -2.6875,-0.96875 l -0.53125,-0.34375 0,0.625 0,2.5625 0,0.21875 0.15625,0.0937 c 0.91466,0.51194 2.01982,0.78125 3.28125,0.78125 1.30627,0 2.39074,-0.38298 3.125,-1.15625 0.73412,-0.77313 1.06249,-1.88638 1.0625,-3.25 -10e-6,-0.86613 -0.17147,-1.65164 -0.5625,-2.34375 -0.39819,-0.70474 -1.09215,-1.36954 -2.03125,-2 -0.65745,-0.43416 -1.11537,-0.79819 -1.34375,-1.09375 -0.2241,-0.29001 -0.3125,-0.6272 -0.3125,-1.03125 0,-0.42217 0.0863,-0.70564 0.25,-0.90625 0.15882,-0.19461 0.34424,-0.28124 0.6875,-0.28125 0.33914,10e-6 0.64713,0.0658 0.9375,0.1875 0.32041,0.13428 0.64548,0.26717 0.9375,0.4375 l 0.34375,0.21875 0.15625,-0.375 0.84375,-2.09375 0.125,-0.28125 -0.25,-0.15625 c -1.03443,-0.62731 -2.14677,-0.93748 -3.28125,-0.9375 z m 4.21875,0.1875 0,0.375 0,2.28125 0,0.34375 0.375,0 2.3125,0 0,11.3125 0,0.34375 0.34375,0 2.59375,0 0.34375,0 0,-0.34375 0,-11.3125 2.3125,0 0.375,0 0,-0.34375 0,-2.28125 0,-0.375 -0.375,0 -7.90625,0 -0.375,0 z"
         style="font-size:19.55241776px;font-style:normal;font-variant:normal;font-weight:bold;font-stretch:normal;text-align:start;line-height:125%;letter-spacing:0px;word-spacing:0px;writing-mode:lr-tb;text-anchor:start;fill:#000000;fill-opacity:1;stroke:none;font-family:Open Sans Condensed;-inkscape-font-specification:'Open Sans Condensed, Bold'" />
      <text
         sodipodi:linespacing="125%"
         id="text4043-46-3-3-0-0-0-0-3"
         y="458.103"
         x="-310.07739"
         style="font-size:35.25404739px;font-style:normal;font-variant:normal;font-weight:bold;font-stretch:normal;text-align:start;line-height:125%;letter-spacing:0px;word-spacing:0px;writing-mode:lr-tb;text-anchor:start;fill:#000000;fill-opacity:1;stroke:none;font-family:Open Sans Condensed;-inkscape-font-specification:'Open Sans Condensed, Bold'"
         xml:space="preserve"><tspan
           y="458.103"
           x="-310.07739"
           id="tspan4045-06-6-7-1-7-7-1-2"
           sodipodi:role="line">1</tspan></text>
      <text
         sodipodi:linespacing="125%"
         id="text4043-46-3-3-0-1-3-4-5"
         y="458.103"
         x="-270.1781"
         style="font-size:35.25404739px;font-style:normal;font-variant:normal;font-weight:bold;font-stretch:normal;text-align:start;line-height:125%;letter-spacing:0px;word-spacing:0px;writing-mode:lr-tb;text-anchor:start;fill:#000000;fill-opacity:1;stroke:none;font-family:Open Sans Condensed;-inkscape-font-specification:'Open Sans Condensed, Bold'"
         xml:space="preserve"><tspan
           y="458.103"
           x="-270.1781"
           id="tspan4045-06-6-7-1-77-4-6-3"
           sodipodi:role="line">ANNUAL</tspan></text>
      <text
         sodipodi:linespacing="125%"
         id="text4063-3-7-9-0-5"
         y="675.91272"
         x="-310.48447"
         style="font-size:22.2219944px;font-style:normal;font-variant:normal;font-weight:600;font-stretch:normal;text-align:start;line-height:125%;letter-spacing:0px;word-spacing:0px;writing-mode:lr-tb;text-anchor:start;fill:#000000;fill-opacity:1;stroke:none;font-family:Open Sans Semibold;-inkscape-font-specification:'Open Sans Semibold, Semi-Bold'"
         xml:space="preserve"><tspan
           y="675.91272"
           x="-310.48447"
           id="tspan4065-8-3-65-7-1"
           sodipodi:role="line">LAWRENCE, KS</tspan></text>
    </g>
  </g>
</svg>
