<?xml version="1.0" encoding="UTF-8" standalone="no"?>
<!-- Created with Inkscape (http://www.inkscape.org/) -->

<svg
   xmlns:dc="http://purl.org/dc/elements/1.1/"
   xmlns:cc="http://creativecommons.org/ns#"
   xmlns:rdf="http://www.w3.org/1999/02/22-rdf-syntax-ns#"
   xmlns:svg="http://www.w3.org/2000/svg"
   xmlns="http://www.w3.org/2000/svg"
   xmlns:sodipodi="http://sodipodi.sourceforge.net/DTD/sodipodi-0.dtd"
   xmlns:inkscape="http://www.inkscape.org/namespaces/inkscape"
   width="406.09"
   height="592.23999"
   id="svg3446"
   version="1.1"
   inkscape:version="0.48.2 r9819"
   sodipodi:docname="kansasLinuxFest_Alt_02_gold_black.svg">
  <defs
     id="defs3448" />
  <sodipodi:namedview
     id="base"
     pagecolor="#ffffff"
     bordercolor="#666666"
     borderopacity="1.0"
     inkscape:pageopacity="0.0"
     inkscape:pageshadow="2"
     inkscape:zoom="1.3052141"
     inkscape:cx="203.045"
     inkscape:cy="296.12"
     inkscape:document-units="px"
     inkscape:current-layer="layer1"
     showgrid="false" />
  <metadata
     id="metadata3451">
    <rdf:RDF>
      <cc:Work
         rdf:about="">
        <dc:format>image/svg+xml</dc:format>
        <dc:type
           rdf:resource="http://purl.org/dc/dcmitype/StillImage" />
        <dc:title></dc:title>
      </cc:Work>
    </rdf:RDF>
  </metadata>
  <g
     inkscape:label="Layer 1"
     inkscape:groupmode="layer"
     id="layer1"
     transform="translate(0,-460.12218)">
    <rect
       style="color:#000000;fill:#000000;fill-opacity:1;fill-rule:evenodd;stroke:none;stroke-width:1px;marker:none;visibility:visible;display:inline;overflow:visible;enable-background:accumulate"
       id="rect3511"
       width="406.09"
       height="592.23999"
       x="0"
       y="460.12219"
       inkscape:export-filename="C:\Users\cgw01249\Google Drive\Design\kslinux2015\web\kansasLinuxFest_Alt_02_gold_black.png"
       inkscape:export-xdpi="90"
       inkscape:export-ydpi="90" />
    <g
       id="g3045"
       inkscape:export-filename="C:\Users\cgw01249\Google Drive\Design\kslinux2015\web\kansasLinuxFest_Alt_02_gold_black.png"
       inkscape:export-xdpi="90"
       inkscape:export-ydpi="90">
      <path
         id="path2439-6-8-9-8-7-1-0-5-1"
         d="m 11.8887,811.49606 c -0.5804,0 -1.1521,0.2145 -1.5624,0.625 -0.4104,0.4103 -0.6563,0.9821 -0.6563,1.5625 l 0,77.3438 0,10.9687 0,107.81254 0,2.2188 c 0,0.5802 0.2458,1.1521 0.6563,1.5624 0.4103,0.4104 0.982,0.6563 1.5624,0.6563 l 9.6876,0 171.7812,0 7.9688,0 192.875,0 c 0.5804,0 1.1521,-0.2457 1.5624,-0.6563 0.4104,-0.4103 0.6562,-0.9824 0.6563,-1.5624 l 0,-141.53134 c 0,-0.6779 -0.3367,-1.3376 -0.875,-1.75 -0.389,-0.2979 -0.8362,-0.7334 -1.5313,-1.2187 -0.6949,-0.4854 -1.7675,-1 -2.9687,-1 -0.5122,0 -0.8231,0.096 -1.0313,0.1562 -1.5307,-0.4355 -2.0734,-0.6557 -3.5,-1.5 -0.6912,-0.41 -1.2137,-0.6354 -1.4687,-0.7812 0.022,-0.1859 0.062,-0.4396 0.062,-0.875 0,-1.2463 -0.7723,-2.3914 -1.4062,-2.9376 -0.6308,-0.5435 -1.1071,-0.7943 -1.375,-1 l -0.031,0 c 0,-0.01 0.017,-0.015 0,-0.062 -0.065,-0.1869 -0.1729,-0.7028 -0.4375,-1.4063 l 0,-0.031 c -0.1664,-0.423 -0.3948,-0.7262 -0.5938,-0.9687 0.2878,-0.4502 0.6563,-1.2111 0.6563,-2.125 0,-0.8892 -0.456,-1.8904 -1.0625,-2.4375 -0.6065,-0.547 -1.1748,-0.7298 -1.5938,-0.875 -0.6286,-0.2176 -0.9655,-0.3791 -1.0624,-0.4062 0,0 -0.03,0.01 -0.031,0 -0.9383,-0.9499 -1.554,-2.1939 -3.4375,-3.3438 l -0.031,0 c -0.9753,-0.5845 -1.2345,-1.3535 -2.5938,-2.875 -0.3615,-0.407 -0.5398,-0.6117 -0.6875,-0.7812 0.2379,-0.056 0.5356,-0.1303 0.875,-0.3438 0.6588,-0.4133 1.1875,-1.5315 1.1875,-2.2812 l 0,-2.4063 c 0,-0.3297 -0.057,-0.1606 0.4062,-0.5313 0.4636,-0.3707 1.4577,-0.8919 2.5,-1.8124 1.1865,-1.0462 1.4379,-2.2866 1.5626,-3.1563 0.3991,0.1673 0.9223,0.3125 1.5,0.3125 l 1.5,0 c 0.5078,0 1.014,-0.1771 1.4062,-0.5 0.7361,-0.6041 1.2812,-1.8491 1.2812,-2.7188 0,-1.2309 -0.7701,-2.0508 -1.125,-2.4062 l 0,-2.6562 c 0,-0.5315 -0.1813,-1.0688 -0.5312,-1.4688 -0.719,-0.8193 -1.4984,-1.2924 -2,-1.5938 -0.178,-0.107 -0.3174,-0.1711 -0.4375,-0.25 l 0,-0.5937 c 0,-0.8841 -0.3696,-1.8359 -0.9687,-2.4375 -0.5994,-0.6016 -1.2908,-0.8972 -1.875,-1.0625 -1.1687,-0.3314 -2.2113,-0.3125 -3,-0.3125 -0.9375,0 -1.8172,0.4746 -2.3438,0.9375 -0.5267,0.4629 -0.8004,0.9021 -1,1.1875 -0.068,0.097 -0.046,0.032 -0.094,0.094 -0.1011,-0.053 -0.2297,-0.1214 -0.4687,-0.3126 -0.4845,-0.3876 -1.2738,-1.1737 -2.5625,-1.75 -1.9576,-0.876 -2.7588,-1.8148 -4.9688,-3.3437 l 0,-0.031 c -1.3227,-0.8991 -2.15,-1.4789 -2.9374,-2.5 -0.4123,-0.5345 -1.0749,-0.8437 -1.75,-0.8437 l -27.1876,0 c -3.9332,2.4472 -9.3074,3.6127 -15.1874,4.4063 l 41.375,0 c 1.0099,1.0751 2.0796,1.8618 3.1562,2.5937 1.8637,1.2918 3.0822,2.5845 5.6875,3.75 0.4523,0.2019 0.879,0.5906 1.625,1.1875 0.746,0.597 2.0267,1.375 3.5937,1.375 0.9374,0 1.8171,-0.4748 2.3438,-0.9375 0.5266,-0.463 0.8004,-0.8708 1,-1.1563 0.093,-0.1325 0.072,-0.1205 0.125,-0.1874 0.4035,0.01 0.7296,2e-4 1,0.031 l 0,0.875 c -10e-5,0.5328 0.2109,1.0685 0.5625,1.4688 0.7196,0.8187 1.4989,1.2926 2,1.5937 0.1773,0.1066 0.2867,0.1715 0.4063,0.25 l 0,2.1563 c -0.276,-0.071 -0.5462,-0.125 -0.875,-0.125 -1.0537,0 -2.2986,0.702 -2.8126,1.5 -0.5139,0.798 -0.6268,1.4523 -0.7187,1.9687 -0.1723,0.9682 -0.3466,1.3717 -0.25,1.3125 -0.5359,0.4655 -1.3726,0.9044 -2.3125,1.6562 -0.9526,0.7618 -2.0312,2.2312 -2.0312,4 l 0,0.9063 c -0.1812,0.062 -0.3811,0.1407 -0.5938,0.25 -0.903,0.4794 -1.4921,1.5296 -1.625,2.2187 -0.133,0.6895 -0.094,1.1222 -0.094,1.375 0,1.0535 0.4494,2.0529 0.9063,2.6876 0.4569,0.6342 0.8674,0.9872 1.1563,1.3124 l 0,0.031 c 0.9268,1.0367 1.6084,2.492 3.5937,3.6875 l 0.031,0 c 0.959,0.5912 1.1686,1.2434 2.5624,2.6562 l 0,0.031 c 0.6914,0.7044 1.4058,0.9997 1.9688,1.1875 -0.2309,0.4417 -0.4688,1.0503 -0.4688,1.75 0,1.157 0.8044,2.095 1.125,2.4062 0.1126,0.1094 0.099,0.096 0.125,0.125 0.083,0.2682 0.1587,0.5604 0.3438,1.0938 0.2186,0.63 0.7144,1.5456 1.5,2.1562 0.4968,0.383 0.8646,0.5839 1.0625,0.7188 -0.022,0.185 -0.062,0.4511 -0.062,0.875 0,1.4432 1.0071,2.6929 1.8125,3.25 0.8054,0.5568 1.4541,0.8313 1.8437,1.0625 1.7337,1.0261 2.9225,1.4677 4.8126,2 0.7478,0.211 1.5213,0.085 1.8437,0 0.1305,-0.034 0.1608,-0.055 0.1875,-0.062 0.066,0 0.1223,0 0.3438,0.1562 0.1056,0.074 0.3774,0.3086 0.5312,0.4376 l 0,138.21874 -198.625,0 c -57.2045,0.054 -114.5291,0.031 -171.7812,0.031 l -7.4688,0 0,-6.4688 0,-101.31254 0,-11 0,-75.0937 20.4375,0 52.4063,0 c -1.2895,-1.4362 -2.7282,-2.934 -4.4063,-4.4063 l -48,0 -22.6563,0 z m 174.625,0.2813 c -7.9612,-0.1303 -21.7649,3.7164 -35.8437,3 -0.1128,0.3816 -0.2515,0.7518 -0.375,1.125 l 66.0313,0 c -8.3648,-1.1484 -20.5847,-3.9747 -29.8126,-4.125 z m 176.6876,56.5937 -3.3438,9.6875 -10.2188,0.2188 8.1563,6.1874 -2.9375,9.7813 8.4062,-5.8437 8.4063,5.8124 -3,-9.7812 8.1563,-6.2188 -10.25,-0.1874 -3.375,-9.6563 z"
         style="font-size:medium;font-style:normal;font-variant:normal;font-weight:normal;font-stretch:normal;text-indent:0;text-align:start;text-decoration:none;line-height:normal;letter-spacing:normal;word-spacing:normal;text-transform:none;direction:ltr;block-progression:tb;writing-mode:lr-tb;text-anchor:start;baseline-shift:baseline;color:#000000;fill:#ffcc00;fill-opacity:1;stroke:none;stroke-width:48;marker:none;visibility:visible;display:inline;overflow:visible;enable-background:accumulate;font-family:Sans;-inkscape-font-specification:Sans"
         inkscape:connector-curvature="0" />
      <text
         sodipodi:linespacing="125%"
         id="text4063-3-7-9-7-9-45-7-1-2-9"
         y="1035.5404"
         x="235.43636"
         style="font-size:21.10131645px;font-style:normal;font-variant:normal;font-weight:600;font-stretch:normal;text-align:start;line-height:125%;letter-spacing:0px;word-spacing:0px;writing-mode:lr-tb;text-anchor:start;fill:#ffcc00;fill-opacity:1;stroke:none;font-family:Open Sans Semibold;-inkscape-font-specification:'Open Sans Semibold, Semi-Bold'"
         xml:space="preserve"><tspan
           y="1035.5404"
           x="235.43636"
           id="tspan4065-8-3-65-4-1-5-6-0-1-3"
           sodipodi:role="line">LAWRENCE, KS</tspan></text>
      <text
         sodipodi:linespacing="125%"
         id="text4063-3-7-9-7-9-45-1-1-7-6-1"
         y="1035.5229"
         x="21.041826"
         style="font-size:21.07718658px;font-style:normal;font-variant:normal;font-weight:600;font-stretch:normal;text-align:start;line-height:125%;letter-spacing:0px;word-spacing:0px;writing-mode:lr-tb;text-anchor:start;fill:#ffcc00;fill-opacity:1;stroke:none;font-family:Open Sans Semibold;-inkscape-font-specification:'Open Sans Semibold, Semi-Bold'"
         xml:space="preserve"><tspan
           y="1035.5229"
           x="21.041826"
           id="tspan4065-8-3-65-4-1-5-4-4-3-8-9"
           sodipodi:role="line">MARCH 21-22, 2015</tspan></text>
      <path
         transform="matrix(1.4285714,0,0,1.4285714,384.7032,-1825.1094)"
         d="m -108.55272,1997.1729 a 2.1648691,2.1648691 0 1 1 -4.32974,0 2.1648691,2.1648691 0 1 1 4.32974,0 z"
         sodipodi:ry="2.1648691"
         sodipodi:rx="2.1648691"
         sodipodi:cy="1997.1729"
         sodipodi:cx="-110.71759"
         id="path3579-2-4-5-8"
         style="color:#000000;fill:#ffcc00;fill-opacity:1;stroke:none;stroke-width:2;marker:none;visibility:visible;display:inline;overflow:visible;enable-background:accumulate"
         sodipodi:type="arc" />
      <path
         id="path2439-6-8-9-8-7-1-0-5-8"
         d="m 11.8887,811.49608 c -0.5804,0 -1.1521,0.2145 -1.5624,0.625 -0.4104,0.4103 -0.6563,0.9821 -0.6563,1.5625 l 0,77.3438 0,10.9687 0,107.81252 0,2.2188 c 0,0.5802 0.2458,1.1521 0.6563,1.5624 0.4103,0.4104 0.982,0.6563 1.5624,0.6563 l 9.6876,0 171.7812,0 7.9688,0 192.875,0 c 0.5804,0 1.1521,-0.2458 1.5624,-0.6563 0.4104,-0.4103 0.6562,-0.9824 0.6563,-1.5624 l 0,-141.53132 c 0,-0.6779 -0.3367,-1.3376 -0.875,-1.75 -0.389,-0.2979 -0.8362,-0.7335 -1.5313,-1.2187 -0.6949,-0.4854 -1.7675,-1 -2.9687,-1 -0.5122,0 -0.8231,0.096 -1.0313,0.1562 -1.5307,-0.4355 -2.0734,-0.6557 -3.5,-1.5 -0.6912,-0.41 -1.2137,-0.6354 -1.4687,-0.7812 0.022,-0.1859 0.062,-0.4396 0.062,-0.875 0,-1.2463 -0.7723,-2.3914 -1.4062,-2.9376 -0.6308,-0.5435 -1.1071,-0.7943 -1.375,-1 l -0.031,0 c 0,-0.01 0.017,-0.015 0,-0.062 -0.065,-0.1869 -0.1729,-0.7028 -0.4375,-1.4063 l 0,-0.031 c -0.1664,-0.423 -0.3948,-0.7262 -0.5938,-0.9687 0.2878,-0.4502 0.6563,-1.2111 0.6563,-2.125 0,-0.8892 -0.456,-1.8904 -1.0625,-2.4375 -0.6065,-0.547 -1.1748,-0.7298 -1.5938,-0.875 -0.6286,-0.2176 -0.9655,-0.3791 -1.0624,-0.4062 0,0 -0.03,0.01 -0.031,0 -0.9383,-0.9499 -1.554,-2.1939 -3.4375,-3.3438 l -0.031,0 c -0.9753,-0.5845 -1.2345,-1.3535 -2.5938,-2.875 -0.3615,-0.407 -0.5398,-0.6117 -0.6875,-0.7812 0.2379,-0.056 0.5356,-0.1303 0.875,-0.3438 0.6588,-0.4133 1.1875,-1.5315 1.1875,-2.2812 l 0,-2.4063 c 0,-0.3297 -0.057,-0.1606 0.4062,-0.5313 0.4636,-0.3708 1.4577,-0.8918 2.5,-1.8124 1.1865,-1.0462 1.4379,-2.2866 1.5626,-3.1563 0.3991,0.1673 0.9223,0.3125 1.5,0.3125 l 1.5,0 c 0.5078,0 1.014,-0.1771 1.4062,-0.5 0.7361,-0.6041 1.2812,-1.8491 1.2812,-2.7188 0,-1.2309 -0.7701,-2.0508 -1.125,-2.4062 l 0,-2.6562 c 0,-0.5314 -0.1813,-1.0688 -0.5312,-1.4688 -0.719,-0.8193 -1.4984,-1.2923 -2,-1.5937 -0.178,-0.1071 -0.3174,-0.1712 -0.4375,-0.25 l 0,-0.5938 c 0,-0.8841 -0.3696,-1.8359 -0.9687,-2.4375 -0.5994,-0.6016 -1.2908,-0.8972 -1.875,-1.0625 -1.1687,-0.3314 -2.2113,-0.3125 -3,-0.3125 -0.9375,0 -1.8172,0.4746 -2.3438,0.9375 -0.5267,0.4629 -0.8004,0.9021 -1,1.1875 -0.068,0.097 -0.046,0.032 -0.094,0.094 -0.1011,-0.053 -0.2297,-0.1213 -0.4687,-0.3125 -0.4845,-0.3877 -1.2738,-1.1737 -2.5625,-1.75 -1.9576,-0.8761 -2.7588,-1.8148 -4.9688,-3.3437 l 0,-0.031 c -1.3227,-0.8991 -2.15,-1.4789 -2.9374,-2.5 -0.4123,-0.5346 -1.0749,-0.8438 -1.75,-0.8438 l -27.1876,0 c -3.9332,2.4472 -9.3074,3.6126 -15.1874,4.4063 l 41.375,0 c 1.0099,1.0752 2.0796,1.8618 3.1562,2.5937 1.8637,1.2918 3.0822,2.5845 5.6875,3.75 0.4523,0.2019 0.879,0.5906 1.625,1.1875 0.746,0.597 2.0267,1.375 3.5937,1.375 0.9374,0 1.8171,-0.4748 2.3438,-0.9375 0.5266,-0.463 0.8004,-0.8707 1,-1.1562 0.093,-0.1326 0.072,-0.1206 0.125,-0.1875 0.4035,0.01 0.7296,0 1,0.031 l 0,0.875 c -10e-5,0.5328 0.2109,1.0684 0.5625,1.4688 0.7196,0.8187 1.4989,1.2926 2,1.5937 0.1773,0.1066 0.2867,0.1715 0.4063,0.25 l 0,2.1563 c -0.276,-0.071 -0.5462,-0.125 -0.875,-0.125 -1.0537,0 -2.2986,0.702 -2.8126,1.5 -0.5139,0.798 -0.6268,1.4523 -0.7187,1.9687 -0.1723,0.9682 -0.3466,1.3717 -0.25,1.3125 -0.5359,0.4655 -1.3726,0.9044 -2.3125,1.6562 -0.9526,0.7618 -2.0312,2.2312 -2.0312,4 l 0,0.9063 c -0.1812,0.062 -0.3811,0.1407 -0.5938,0.25 -0.903,0.4794 -1.4921,1.5295 -1.625,2.2187 -0.133,0.6895 -0.094,1.1222 -0.094,1.375 0,1.0535 0.4494,2.053 0.9063,2.6876 0.4569,0.6343 0.8674,0.9872 1.1563,1.3124 l 0,0.031 c 0.9268,1.0367 1.6084,2.492 3.5937,3.6875 l 0.031,0 c 0.959,0.5912 1.1686,1.2435 2.5624,2.6562 l 0,0.031 c 0.6914,0.7044 1.4058,0.9997 1.9688,1.1875 -0.2309,0.4417 -0.4688,1.0503 -0.4688,1.75 0,1.157 0.8044,2.0949 1.125,2.4062 0.1126,0.1094 0.099,0.096 0.125,0.125 0.083,0.2682 0.1587,0.5604 0.3438,1.0938 0.2186,0.63 0.7144,1.5455 1.5,2.1562 0.4968,0.383 0.8646,0.5839 1.0625,0.7188 -0.022,0.185 -0.062,0.4511 -0.062,0.875 0,1.4432 1.0071,2.6929 1.8125,3.25 0.8054,0.5568 1.4541,0.8313 1.8437,1.0625 1.7337,1.0261 2.9225,1.4677 4.8126,2 0.7478,0.211 1.5213,0.085 1.8437,0 0.1305,-0.034 0.1608,-0.055 0.1875,-0.062 0.066,0 0.1223,-10e-5 0.3438,0.1562 0.1056,0.074 0.3774,0.3086 0.5312,0.4376 l 0,138.21872 -198.625,0 c -57.2045,0.054 -114.5291,0.031 -171.7812,0.031 l -7.4688,0 0,-6.4688 0,-101.31252 0,-11 0,-75.0938 20.4375,0 52.4063,0 c -1.2895,-1.4362 -2.7282,-2.934 -4.4063,-4.4063 l -48,0 -22.6563,0 z m 174.625,0.2812 c -7.9612,-0.1298 -21.7649,3.7166 -35.8437,3 -0.1128,0.3817 -0.2515,0.7519 -0.375,1.125 l 66.0313,0 c -8.3648,-1.1482 -20.5847,-3.9744 -29.8126,-4.125 z m 176.6876,56.5938 -3.3438,9.6875 -10.2188,0.2188 8.1563,6.1874 -2.9375,9.7813 8.4062,-5.8437 8.4063,5.8124 -3,-9.7812 8.1563,-6.2188 -10.25,-0.1874 -3.375,-9.6563 z"
         style="font-size:medium;font-style:normal;font-variant:normal;font-weight:normal;font-stretch:normal;text-indent:0;text-align:start;text-decoration:none;line-height:normal;letter-spacing:normal;word-spacing:normal;text-transform:none;direction:ltr;block-progression:tb;writing-mode:lr-tb;text-anchor:start;baseline-shift:baseline;color:#000000;fill:#ffcc00;fill-opacity:1;stroke:none;stroke-width:48;marker:none;visibility:visible;display:inline;overflow:visible;enable-background:accumulate;font-family:Sans;-inkscape-font-specification:Sans"
         inkscape:connector-curvature="0" />
      <text
         sodipodi:linespacing="125%"
         id="text4051-8-4-0-7-0-8-6-0-7-6-6-9"
         y="977.28815"
         x="17.465254"
         style="font-size:88.30614470999999800px;font-style:normal;font-variant:normal;font-weight:bold;font-stretch:normal;text-align:start;line-height:125%;letter-spacing:0px;word-spacing:0px;writing-mode:lr-tb;text-anchor:start;fill:#ffcc00;fill-opacity:1;stroke:none;font-family:Open Sans Condensed;-inkscape-font-specification:'Open Sans Condensed, Bold'"
         xml:space="preserve"><tspan
           y="977.28815"
           x="17.465254"
           id="tspan4053-4-2-1-5-87-3-3-9-4-1-8-2"
           sodipodi:role="line">LINUX</tspan></text>
      <text
         sodipodi:linespacing="125%"
         id="text4051-8-4-0-4-7-4-7-4-0-4-5-7"
         y="977.30011"
         x="237.74409"
         style="font-size:87.07202148000000400px;font-style:normal;font-variant:normal;font-weight:bold;font-stretch:normal;text-align:start;line-height:125%;letter-spacing:0px;word-spacing:0px;writing-mode:lr-tb;text-anchor:start;fill:#ffcc00;fill-opacity:1;stroke:none;font-family:Open Sans Condensed;-inkscape-font-specification:'Open Sans Condensed, Bold'"
         xml:space="preserve"><tspan
           y="977.30011"
           x="237.74409"
           id="tspan4053-4-2-1-1-8-8-8-8-9-2-7-9"
           sodipodi:role="line">FEST</tspan></text>
      <text
         sodipodi:linespacing="125%"
         id="text4047-6-1-2-2-3-4-8-8-48-3-6-5"
         y="898.9527"
         x="16.863783"
         style="font-size:65.40518951000000000px;font-style:normal;font-variant:normal;font-weight:600;font-stretch:normal;text-align:start;line-height:125%;letter-spacing:0px;word-spacing:0px;writing-mode:lr-tb;text-anchor:start;fill:#ffcc00;fill-opacity:1;stroke:none;font-family:Open Sans Semibold;-inkscape-font-specification:'Open Sans Semibold, Semi-Bold'"
         xml:space="preserve"><tspan
           y="898.9527"
           x="16.863783"
           id="tspan4049-1-5-6-0-8-9-2-2-8-2-1-4"
           sodipodi:role="line">KANSAS</tspan></text>
      <path
         id="path3488-40-4-1-2-2"
         d="m 181.8177,474.22406 c -14.2953,0.027 -25.407,3.4672 -33.8438,10.0313 -9.3843,7.3013 -14.1542,16.2355 -17.1875,24.75 -2.9131,8.1774 -4.6798,17.2056 -5.625,28.2813 -0.5914,6.9293 -0.7036,14.125 -0.375,21.1562 1.152,24.6545 -1.7541,33.9 -21.9063,58.5625 -12.1145,14.826 -39.714,47.4879 -40.2187,87.9063 -0.069,5.488 0.8799,11.1091 1.875,15.5312 0.4388,1.9501 0.889,3.5253 1.2813,4.875 -1.0176,0.5842 -2.1311,1.2305 -3.4063,2.2812 -2.0497,1.6895 -3.6817,3.8542 -4.875,6.0626 -1.3771,2.548 -3.109,6.8566 -4.4063,13.3437 -0.5701,2.851 -1.2395,5.2804 -1.8437,7.0625 -0.5287,1.5593 -1.1756,2.7781 -1.1875,2.875 -0.102,0.1259 -1.1136,1.2381 -2.3125,2.625 -1.214,1.4044 -2.7206,3.2267 -4.1875,5.2812 -2.9337,4.1097 -5.9956,9.1593 -5.9063,15 0.069,4.509 1.8203,8.461 4.5,11.4376 2.6798,2.9764 6.1211,5.1366 9.9063,7.1874 7.5703,4.1023 16.7349,7.7807 25.3438,14.0626 5.1181,3.7346 8.1039,8.193 11.5312,11.6874 5.6181,5.7283 17.8767,15.0656 33.75,15.3126 14.5936,0.2267 25.796,-8.1317 30.6875,-20.7813 13.8364,0.1637 26.8782,-3.0694 33.0313,-2.9687 5.5898,0.091 12.8744,1.2958 19.5937,2.4687 5.5102,0.9618 10.2432,1.7853 14.375,1.9375 4.4274,8.0778 13.7226,15.4549 29.2187,15.3125 11.6126,-0.1067 19.3199,-2.5818 25.625,-5.375 6.3055,-2.7932 11.0601,-5.6565 17.9688,-7.25 8.6995,-2.0066 19.8944,-2.0421 29.4375,-4.2187 4.7715,-1.0887 9.2817,-2.7181 12.7813,-5.9688 3.4991,-3.2507 5.5745,-8.1581 5.5,-14.0625 -0.068,-5.3547 -1.1257,-9.1132 -2.0626,-11.9375 -0.9365,-2.8243 -1.6008,-4.5348 -1.6562,-7 -0.1376,-6.1214 1.7927,-10.2237 1.7812,-18.6562 -0.01,-6.3676 -2.028,-11.375 -5.1562,-14.875 -3.1282,-3.5003 -7.079,-5.4579 -10.75,-6.9376 -5.4194,-2.1839 -10.0091,-3.4944 -12,-5.5 -2.3694,-2.3866 -3.7151,-5.7764 -10.1875,-12.6562 2.5319,-20.1462 -4.7348,-39.4412 -11.6875,-54.625 -3.8954,-8.507 -9.0385,-16.6121 -12.4688,-22 -12.3792,-19.4451 -16.3719,-22.2809 -21.5624,-29.2188 -3.8768,-5.181 -6.6125,-10.3906 -8.5626,-14.9687 -4.1531,-9.7515 -6.715,-22.8116 -6.1874,-35.4687 0.3377,-8.1077 1.1155,-15.3759 1.1874,-22.3438 0.2417,-23.328 -2.9246,-39.6703 -16.0312,-53.3438 -10.2199,-10.6613 -27.451,-14.9063 -43.7812,-14.875 z m 0.031,4 c 15.5893,-0.03 31.9091,4.2718 40.875,13.625 12.2592,12.7893 15.1442,27.5558 14.9062,50.5313 -0.069,6.6894 -0.8432,13.9598 -1.1874,22.2187 -0.5545,13.3037 2.1135,26.8466 6.5312,37.2188 2.0494,4.8118 4.9261,10.2943 9.0312,15.7812 5.451,7.2855 9.1078,9.6998 21.375,28.9688 3.4247,5.3791 8.4806,13.3676 12.2188,21.5312 7.0846,15.4719 14.2799,34.8253 11.1875,54.3438 7.5191,7.6582 8.2216,10.8225 11.4687,14.0938 3.1742,3.197 8.3139,4.3478 13.3438,6.375 6.8616,2.7653 13.3913,6.9464 13.4062,18.125 0.011,7.7618 -1.9365,11.8421 -1.7812,18.75 0.1428,6.3523 3.5949,9.0974 3.7188,18.875 0.2554,20.1748 -25.8511,15.9893 -44.5938,20.3124 -15.0592,3.4736 -20.5841,12.3277 -42.75,12.5313 -15.6274,0.1436 -23.3084,-7.4258 -26.6562,-15.1563 -6.8459,0.4739 -24.2606,-4.364 -36.4376,-4.5624 -7.9613,-0.1302 -21.7649,3.7164 -35.8437,3 -3.805,12.8756 -13.7555,20.9694 -27.875,20.75 -14.274,-0.2221 -25.878,-8.9665 -30.9375,-14.125 -2.9572,-3.0154 -6.3025,-7.9449 -12.0312,-12.125 -18.1875,-13.271 -37.905,-15.1134 -38.1251,-29.5 -0.1284,-8.3969 10.0654,-18.4786 11.5938,-20.4376 0.987,-1.2647 2.5795,-5.5529 3.7812,-11.5624 1.2287,-6.1439 2.8612,-10.1114 4,-12.2188 0.8919,-1.6504 2.5576,-3.7948 3.9063,-4.9062 2.6202,-2.1595 5.1317,-3.0297 5.625,-3.5626 -0.3856,-0.524 -4.0618,-12.2038 -3.9375,-22.1562 0.482,-38.6034 27.1579,-70.5315 39.3125,-85.4062 20.3785,-24.94 23.985,-36.1891 22.8125,-61.2813 -0.3205,-6.8574 -0.2004,-13.8833 0.375,-20.625 0.9251,-10.8395 2.6335,-19.4978 5.4063,-27.2813 2.8928,-8.1203 7.2038,-16.1911 15.875,-22.9374 7.6411,-5.9452 17.7347,-9.1614 31.4062,-9.1876 z m -7.0938,49.25 c -0.1463,0 -0.2907,0.018 -0.4374,0.031 -4.5994,0.1788 -18.0578,5.0328 -17.9688,22.9063 0.04,8.0136 2.6762,12.8274 5.5312,16.7187 0.2386,-0.1205 0.4754,-0.2279 0.7188,-0.3437 0.038,-0.018 0.087,-0.045 0.125,-0.063 0.2833,-0.1334 0.5549,-0.247 0.8438,-0.375 0.2535,-0.1128 0.5241,-0.235 0.7812,-0.3437 0.035,-0.014 0.06,-0.017 0.094,-0.031 0.2578,-0.1089 0.5207,-0.2386 0.7812,-0.3437 0.035,-0.014 0.09,-0.018 0.125,-0.031 0.5634,-0.2258 1.1173,-0.4432 1.6875,-0.6562 0.028,-0.013 0.066,-0.021 0.094,-0.031 0.5779,-0.2149 1.1416,-0.4196 1.7188,-0.625 0.021,-0.013 0.042,-0.021 0.062,-0.031 0.7266,-0.2584 1.4446,-0.4993 2.1563,-0.75 -2.876,-3.4653 -3.3341,-7.6309 -3.25,-10.9063 0.1328,-5.1867 2.6888,-11.3872 7.5312,-11.4062 3.5239,-0.014 8.3332,4.2613 8.2812,13.1875 -0.01,1.5215 -0.092,2.4476 -0.2187,3.1563 0.9918,-0.5361 1.963,-1.042 2.9687,-1.5 0.4273,-0.1946 0.8748,-0.3558 1.3126,-0.5313 0.059,-0.023 0.096,-0.069 0.1562,-0.094 0.1594,-0.062 0.3388,-0.1276 0.5,-0.1876 0.6384,-0.2381 1.2948,-0.4329 1.9688,-0.625 0.228,-0.065 0.4546,-0.1295 0.6874,-0.1874 0.2337,-0.06 0.4485,-0.1345 0.6876,-0.1876 0.087,-1.0664 0.1757,-2.3152 0.2187,-4.0624 0.301,-12.2034 -7.6808,-22.3655 -16.7187,-22.6563 -0.1459,0 -0.291,-0.031 -0.4376,-0.031 z m 43.1563,3.4063 c -6.4972,0.013 -13.082,8.2831 -13.3437,20.2813 -0.028,1.3076 -0.062,2.288 -0.063,3.1874 1.776,0.4298 3.4229,1.043 5.0313,1.9063 0.8471,0.4547 1.6887,0.9801 2.5313,1.5625 -0.04,-0.5336 -0.063,-1.1399 -0.063,-2.0312 0,-6.4822 2.5952,-11.6563 6.4376,-11.6563 2.6606,0 5.4176,3.3763 5.2187,9.5625 -0.114,3.5452 -0.9635,7.9598 -4.25,10.375 0.141,0.1338 0.2941,0.2383 0.4375,0.375 1.4744,1.1382 2.7709,2.1019 4,3 4.7541,-4.4699 6.4597,-10.7984 6.5938,-18.0625 0.1609,-8.707 -4.1462,-18.51 -12.5313,-18.5 z m -20.375,25.375 0,0.031 c -0.5166,0 -1.0181,0.01 -1.5,0.031 -0.2879,0.015 -0.5669,0.039 -0.8437,0.062 -0.1862,0.016 -0.381,0.043 -0.5626,0.062 -0.058,0 -0.1296,-0.01 -0.1874,0 -0.1648,0.018 -0.3076,0.041 -0.4688,0.062 -0.07,0.013 -0.1497,0.021 -0.2188,0.031 -0.4308,0.065 -0.8408,0.163 -1.25,0.25 -0.034,0.013 -0.091,0.021 -0.125,0.031 -0.1078,0.023 -0.2058,0.037 -0.3124,0.062 -0.1087,0.025 -0.205,0.036 -0.3126,0.062 -0.2139,0.053 -0.4467,0.1275 -0.6562,0.1875 -0.1913,0.054 -0.3744,0.098 -0.5625,0.1563 -0.2238,0.07 -0.436,0.1427 -0.6563,0.2187 -0.049,0.016 -0.1072,0.045 -0.1562,0.062 -0.3543,0.1257 -0.7142,0.2653 -1.0625,0.4062 -0.3963,0.1607 -0.7623,0.3207 -1.1563,0.5 -3.1528,1.4357 -6.3206,3.4884 -10.625,5.6876 l -0.031,0.031 -0.062,0.031 c -4.4025,1.8346 -9.7312,3.2984 -13.8125,5.375 -2.0408,1.0385 -3.7239,2.1908 -4.875,3.5626 -1.151,1.3714 -1.8084,2.9202 -1.7812,4.9374 0.056,4.2707 2.494,7.7586 6.0624,10.625 3.5688,2.8665 8.2033,5.0018 12.25,6.2813 l 0.094,0.031 0.094,0.031 c 0.6851,0.3194 1.4078,0.7069 2.1562,1.1562 0.7483,0.4498 1.5261,0.9394 2.3438,1.4688 1.635,1.0588 3.3958,2.2379 5.3437,3.3125 2.9218,1.6122 6.1788,3.0096 9.6875,3.5313 0.2924,0.044 0.5789,0.063 0.875,0.094 0.8883,0.093 1.7981,0.1258 2.7188,0.094 4.6159,-0.1636 7.5769,-1.0561 10.4374,-2.7812 2.8607,-1.725 5.6239,-4.3644 9.5626,-7.9375 l 0.125,-0.125 0.1562,-0.062 c 1.8675,-0.9623 3.6438,-2.0625 5.2188,-3.2188 0.7874,-0.5781 1.5295,-1.1732 2.2187,-1.7812 0.6891,-0.6078 1.332,-1.2186 1.9063,-1.8438 2.296,-2.5005 3.5506,-5.0599 3.5624,-7.1874 0.014,-2.4207 -0.7689,-3.696 -2.8437,-5.5626 -0.2327,-0.2092 -0.4842,-0.4363 -0.75,-0.6562 -0.1,-0.083 -0.2081,-0.166 -0.3125,-0.25 -0.1658,-0.1337 -0.3227,-0.2678 -0.5,-0.4062 -0.191,-0.149 -0.3892,-0.2822 -0.5938,-0.4376 -0.2272,-0.173 -0.4748,-0.3494 -0.7187,-0.5312 -0.3809,-0.2836 -0.7666,-0.5982 -1.1875,-0.9062 -0.958,-0.7017 -2.0549,-1.4804 -3.2188,-2.3438 -0.8814,-0.6542 -1.8141,-1.3543 -2.8124,-2.125 l -0.063,-0.031 -0.031,-0.063 c -3.9732,-3.7958 -6.9425,-6.2863 -9.8438,-7.8437 -1.1931,-0.6404 -2.3838,-1.1348 -3.6562,-1.5 -0.1728,-0.049 -0.3239,-0.08 -0.5,-0.125 -0.1035,-0.026 -0.2388,-0.068 -0.3438,-0.094 -0.1885,-0.044 -0.3694,-0.084 -0.5624,-0.125 l -0.031,0 c -0.2279,-0.047 -0.4525,-0.085 -0.6875,-0.125 -0.248,-0.043 -0.4931,-0.09 -0.75,-0.125 -0.2569,-0.035 -0.5458,-0.065 -0.8125,-0.094 -0.2668,-0.028 -0.5348,-0.043 -0.8125,-0.062 -0.082,0 -0.167,-0.021 -0.25,-0.031 -0.091,0 -0.1893,0.013 -0.2812,0 -0.3924,-0.021 -0.771,-0.053 -1.1876,-0.062 -0.2862,0 -0.5682,-0.031 -0.8437,-0.031 z m -33.625,20.3437 c 0.096,0 0.2041,0.012 0.3125,0.031 1.5667,0.2769 3.2139,1.0323 5,1.9687 2.6658,1.398 5.6644,3.3023 8.9375,5.2188 6.5464,3.8333 14.1632,7.6607 21.9375,7.6562 8.0385,0 13.7739,-3.5701 18.0312,-7.125 2.1288,-1.7773 3.8501,-3.5408 5.3126,-4.875 0.7309,-0.6668 1.4057,-1.2083 2.0937,-1.625 0.3467,-0.2097 0.6128,-0.4543 1.1563,-0.5 1.2232,-0.1022 1.3841,1.9387 0,2.9376 -0.3741,0.2699 -0.8778,0.677 -1.4376,1.1874 -1.3634,1.2441 -3.1559,3.0585 -5.4062,4.9376 -4.5005,3.7577 -10.9157,7.7451 -19.75,7.75 -8.6417,0 -16.6636,-4.1379 -23.3125,-8.0313 -3.3245,-1.9467 -6.3052,-3.8414 -8.8125,-5.1563 -1.6436,-0.8616 -3.0917,-1.4308 -4.1875,-1.6874 -1.3479,-0.3158 -1.3132,-2.648 0.125,-2.6876 z m -7.7813,9.3126 c -1.2779,5.6404 -2.9221,12.0163 -6.375,21.75 -6.9169,19.499 -13.3098,33.4584 -24.4374,55.4374 -4.3816,8.6542 -9.119,21.1549 -11.4688,35.0626 -3.3844,0.013 -5.3618,0.4935 -7.4375,0.9374 -2.5981,-6.8141 -3.0554,-11.3435 -2.875,-15.9687 0.452,-11.5854 5.3881,-30.0494 20.0937,-44.1875 3.1775,-3.0549 1.8729,-4.5115 -1.25,-1.5938 -11.6802,10.9131 -24.8299,33.4803 -24.25,52.0313 0.1296,4.1454 0.2706,8.1455 1.1876,12.0625 -14.1125,6.0109 -22.3844,13.4833 -21.9688,20.375 0.121,2.0044 0.2148,2.8207 0.5938,4.0625 l 3.125,0.1563 c -0.2902,-1.4532 -0.42,-2.6231 -0.5,-3.625 -0.4531,-5.668 8.745,-11.3882 15.375,-14.2813 6.2708,-2.7363 10.4655,-3.9116 15.1874,-4.2187 6.8613,-0.4466 11.5418,3.1837 12.3438,12.5 14.9631,5.5779 16.3729,21.7281 17.5625,42.1562 0.8618,14.8728 3.4452,16.8084 5.0625,24.9375 3.9486,2.6965 8.6812,5.9768 14.0625,8.3437 8.2008,3.607 15.1319,6.6608 31.4063,7.2813 13.6759,0.5216 25.2444,-3.652 34.875,-10.8125 3.5599,-5.09 7.1469,-10.1431 9.9062,-13.4375 -9.5829,-0.4437 -12.3126,-5.4195 -12.0938,-9.9687 0.4032,-8.385 7.5507,-16.7272 14.7813,-23.4376 8.6259,-8.0052 17.0709,-11.9672 21.5625,-15.5 8.3551,-6.5719 14.7837,-15.0816 15.0312,-30.3437 0.279,-17.1984 -9.537,-35.7273 -18.3437,-50.1875 -1.1536,-1.8942 -2.0941,-4.075 -2.7813,-3.875 -0.5832,0.1697 0.4496,2.8416 1.3438,4.625 6.1967,12.3577 14.0492,24.9542 14.625,43.1875 0.3257,10.3096 -3.176,17.8862 -7.5938,24.1563 -0.3242,-18.4391 -5.2327,-33.4931 -11,-45.7188 -10.0248,-21.2519 -20.3919,-45.0429 -23.8124,-60.2188 -1.3847,-6.1429 -1.9044,-11.2665 -2.125,-15.5624 -0.2358,0.1854 -0.4758,0.3807 -0.7188,0.5624 -0.1613,0.1206 -0.3042,0.2252 -0.4688,0.3438 -0.1637,0.1179 -0.3333,0.2586 -0.5,0.375 -0.144,0.1011 -0.2911,0.1823 -0.4374,0.2812 -0.027,0.018 -0.067,0.045 -0.094,0.063 -0.1305,0.088 -0.2428,0.1942 -0.375,0.2812 -0.1659,0.1089 -0.3315,0.205 -0.5,0.3125 -0.1705,0.1089 -0.3582,0.2061 -0.5312,0.3125 -0.3247,0.2004 -0.6353,0.4005 -0.9688,0.5938 -0.2715,0.1568 -0.5669,0.3167 -0.8438,0.4687 -0.2853,0.1571 -0.5529,0.3171 -0.8437,0.4687 -3.8577,3.5022 -6.7178,6.2022 -9.9063,8.125 -3.2203,1.9422 -6.7786,3.0121 -11.7187,3.1876 -1.0504,0.038 -2.0913,-0.02 -3.0937,-0.125 -0.3342,-0.035 -0.6714,-0.075 -1,-0.125 -3.9438,-0.5814 -7.4793,-2.1115 -10.5626,-3.8126 -4.0925,-2.2581 -7.4539,-4.8088 -9.6562,-5.8437 -4.2566,-1.3578 -9.1202,-3.546 -13.0312,-6.6875 -0.2468,-0.1982 -0.4798,-0.3872 -0.7188,-0.5938 -0.028,-0.025 -0.066,-0.071 -0.094,-0.094 -0.2104,-0.1836 -0.4213,-0.3722 -0.625,-0.5625 -0.1585,-0.1478 -0.3146,-0.2855 -0.4687,-0.4375 -0.07,-0.069 -0.1185,-0.1488 -0.1875,-0.2187 -0.1304,-0.1321 -0.2795,-0.2401 -0.4062,-0.375 -0.088,-0.093 -0.164,-0.1863 -0.25,-0.2813 -0.1027,-0.1127 -0.2126,-0.2285 -0.3126,-0.3437 -0.024,-0.029 -0.038,-0.066 -0.062,-0.094 -0.1584,-0.1843 -0.3179,-0.3731 -0.4688,-0.5625 -0.1195,-0.1502 -0.2291,-0.3156 -0.3438,-0.4687 -0.053,-0.07 -0.1042,-0.1166 -0.1562,-0.1876 -0.1295,-0.1784 -0.2523,-0.38 -0.375,-0.5624 -0.032,-0.048 -0.062,-0.078 -0.094,-0.125 z m -32.5,135.6562 c -0.968,9.7608 -5.8638,20.8088 -16.4687,20.6875 -9.4856,-0.1089 -18.3952,-6.4253 -23.3125,-11.6563 -17.0467,-1.7046 -19.6615,6.9887 -21.625,15.3438 -1.0851,4.6175 -2.0447,10.3538 -4.3125,14.4062 -1.9182,3.4277 -11.5248,11.6174 -11.5625,19.6876 -0.042,8.9338 15.0498,12.289 30.4062,21.4374 3.4414,2.05 8.929,6.2573 11.6563,9.375 6.6649,7.6194 17.7271,19.7715 34.7187,20.125 13.8032,0.2872 22.9266,-10.415 23.5,-22.4687 0.4194,-8.8123 -3.4184,-18.3295 -5.5937,-26.0313 -2.1179,-7.4981 -4.0107,-15.4347 -4.375,-23.0624 -0.7898,-16.5362 -2.3137,-33.4512 -13.0313,-37.8438 z m 161.5313,0.5938 c -5.8393,0.079 -11.6401,3.0473 -17.2187,10.8124 -9.8676,13.7353 -11.0478,20.5453 -15.7188,28.3126 -8.3711,13.92 -27.125,30.166 -27.125,44 0,8.7627 5.0086,21.8534 24.8438,21.5624 18.6711,-0.2741 25.9901,-8.3957 39.2812,-12.0312 21.4149,-5.8575 43.2296,-0.7893 43.0938,-15.9375 -0.08,-8.8812 -3.6822,-12.1911 -3.8126,-18.6875 -0.1604,-8.0121 2.097,-12.8605 1.9688,-19.25 -0.299,-14.9085 -14.7917,-13.2676 -22.8125,-19.0312 -7.587,-5.4521 -11.7887,-19.4495 -22,-19.75 l -0.5,0 z"
         style="font-size:medium;font-style:normal;font-variant:normal;font-weight:normal;font-stretch:normal;text-indent:0;text-align:start;text-decoration:none;line-height:normal;letter-spacing:normal;word-spacing:normal;text-transform:none;direction:ltr;block-progression:tb;writing-mode:lr-tb;text-anchor:start;baseline-shift:baseline;color:#000000;fill:#ffcc00;fill-opacity:1;fill-rule:nonzero;stroke:none;stroke-width:8;marker:none;visibility:visible;display:inline;overflow:visible;enable-background:accumulate;font-family:Sans;-inkscape-font-specification:Sans"
         inkscape:connector-curvature="0" />
    </g>
  </g>
</svg>
