<?xml version="1.0" encoding="UTF-8" standalone="no"?>
<!-- Created with Inkscape (http://www.inkscape.org/) -->

<svg
   xmlns:dc="http://purl.org/dc/elements/1.1/"
   xmlns:cc="http://creativecommons.org/ns#"
   xmlns:rdf="http://www.w3.org/1999/02/22-rdf-syntax-ns#"
   xmlns:svg="http://www.w3.org/2000/svg"
   xmlns="http://www.w3.org/2000/svg"
   xmlns:sodipodi="http://sodipodi.sourceforge.net/DTD/sodipodi-0.dtd"
   xmlns:inkscape="http://www.inkscape.org/namespaces/inkscape"
   width="406.09"
   height="592.23999"
   id="svg3446"
   version="1.1"
   inkscape:version="0.48.2 r9819"
   sodipodi:docname="kansasLinuxFest_Alt_02_white.svg">
  <defs
     id="defs3448" />
  <sodipodi:namedview
     id="base"
     pagecolor="#ffffff"
     bordercolor="#666666"
     borderopacity="1.0"
     inkscape:pageopacity="0.0"
     inkscape:pageshadow="2"
     inkscape:zoom="1.3052141"
     inkscape:cx="111.48914"
     inkscape:cy="296.12"
     inkscape:document-units="px"
     inkscape:current-layer="layer1"
     showgrid="false" />
  <metadata
     id="metadata3451">
    <rdf:RDF>
      <cc:Work
         rdf:about="">
        <dc:format>image/svg+xml</dc:format>
        <dc:type
           rdf:resource="http://purl.org/dc/dcmitype/StillImage" />
        <dc:title></dc:title>
      </cc:Work>
    </rdf:RDF>
  </metadata>
  <g
     inkscape:label="Layer 1"
     inkscape:groupmode="layer"
     id="layer1"
     transform="translate(0,-460.12218)">
    <rect
       style="color:#000000;fill:#000000;fill-opacity:1;fill-rule:evenodd;stroke:none;stroke-width:1px;marker:none;visibility:visible;display:inline;overflow:visible;enable-background:accumulate"
       id="rect3511"
       width="406.09"
       height="592.23999"
       x="0"
       y="460.12219"
       inkscape:export-filename="C:\Users\cgw01249\Google Drive\Design\kslinux2015\web\kansasLinuxFest_Alt_02_white.png"
       inkscape:export-xdpi="90"
       inkscape:export-ydpi="90" />
    <g
       id="g3045"
       inkscape:export-filename="C:\Users\cgw01249\Google Drive\Design\kslinux2015\web\kansasLinuxFest_Alt_02_white.png"
       inkscape:export-xdpi="90"
       inkscape:export-ydpi="90">
      <path
         id="path2439-6-8-9-8-7-1-0-5"
         d="m 11.8887,811.49606 c -0.5804,0 -1.1521,0.2145 -1.5624,0.625 -0.4104,0.4103 -0.6563,0.9821 -0.6563,1.5625 l 0,77.3438 0,10.9687 0,107.81254 0,2.2188 c 0,0.5802 0.2458,1.1521 0.6563,1.5624 0.4103,0.4104 0.982,0.6563 1.5624,0.6563 l 9.6876,0 171.7812,0 7.9688,0 192.875,0 c 0.5804,0 1.1521,-0.2458 1.5624,-0.6563 0.4104,-0.4103 0.6562,-0.9824 0.6563,-1.5624 l 0,-141.53134 c 0,-0.6779 -0.3367,-1.3376 -0.875,-1.75 -0.389,-0.2979 -0.8362,-0.7335 -1.5313,-1.2187 -0.6949,-0.4854 -1.7675,-1 -2.9687,-1 -0.5122,0 -0.8231,0.096 -1.0313,0.1562 -1.5307,-0.4355 -2.0734,-0.6557 -3.5,-1.5 -0.6912,-0.41 -1.2137,-0.6354 -1.4687,-0.7812 0.022,-0.1859 0.062,-0.4396 0.062,-0.875 0,-1.2463 -0.7723,-2.3914 -1.4062,-2.9376 -0.6308,-0.5435 -1.1071,-0.7943 -1.375,-1 l -0.031,0 c 0,-0.01 0.017,-0.015 0,-0.062 -0.065,-0.1869 -0.1729,-0.7028 -0.4375,-1.4063 l 0,-0.031 c -0.1664,-0.423 -0.3948,-0.7262 -0.5938,-0.9687 0.2878,-0.4502 0.6563,-1.2111 0.6563,-2.125 0,-0.8892 -0.456,-1.8904 -1.0625,-2.4375 -0.6065,-0.547 -1.1748,-0.7298 -1.5938,-0.875 -0.6286,-0.2176 -0.9655,-0.3791 -1.0624,-0.4062 0,0 -0.03,0.01 -0.031,0 -0.9383,-0.9499 -1.554,-2.1939 -3.4375,-3.3438 l -0.031,0 c -0.9753,-0.5845 -1.2345,-1.3535 -2.5938,-2.875 -0.3615,-0.407 -0.5398,-0.6117 -0.6875,-0.7812 0.2379,-0.056 0.5356,-0.1303 0.875,-0.3438 0.6588,-0.4133 1.1875,-1.5315 1.1875,-2.2812 l 0,-2.4063 c 0,-0.3297 -0.057,-0.1606 0.4062,-0.5313 0.4636,-0.3708 1.4577,-0.8918 2.5,-1.8124 1.1865,-1.0462 1.4379,-2.2866 1.5626,-3.1563 0.3991,0.1673 0.9223,0.3125 1.5,0.3125 l 1.5,0 c 0.5078,0 1.014,-0.1771 1.4062,-0.5 0.7361,-0.6041 1.2812,-1.8491 1.2812,-2.7188 0,-1.2309 -0.7701,-2.0508 -1.125,-2.4062 l 0,-2.6562 c 0,-0.5314 -0.1813,-1.0688 -0.5312,-1.4688 -0.719,-0.8193 -1.4984,-1.29235 -2,-1.59375 -0.178,-0.1071 -0.3174,-0.1711 -0.4375,-0.25 l 0,-0.59375 c 0,-0.8841 -0.3696,-1.8359 -0.9687,-2.4375 -0.5994,-0.6016 -1.2908,-0.8972 -1.875,-1.0625 -1.1687,-0.3314 -2.2113,-0.3125 -3,-0.3125 -0.9375,0 -1.8172,0.4746 -2.3438,0.9375 -0.5267,0.4629 -0.8004,0.9021 -1,1.1875 -0.068,0.097 -0.046,0.0317 -0.094,0.0937 -0.1011,-0.053 -0.2297,-0.1213 -0.4687,-0.3125 -0.4845,-0.3877 -1.2738,-1.1737 -2.5625,-1.75 -1.9576,-0.8761 -2.7588,-1.81485 -4.9688,-3.34375 l 0,-0.0312 c -1.3227,-0.8991 -2.15,-1.4789 -2.9374,-2.5 -0.4123,-0.5346 -1.0749,-0.84375 -1.75,-0.84375 l -27.1876,0 c -3.9332,2.44722 -9.3074,3.61264 -15.1874,4.40625 l 41.375,0 c 1.0099,1.0752 2.0796,1.86185 3.1562,2.59375 1.8637,1.2918 3.0822,2.5845 5.6875,3.75 0.4523,0.2019 0.879,0.59057 1.625,1.1875 0.746,0.597 2.0267,1.375 3.5937,1.375 0.9374,0 1.8171,-0.4748 2.3438,-0.9375 0.5266,-0.463 0.8004,-0.87075 1,-1.15625 0.093,-0.1326 0.072,-0.1206 0.125,-0.1875 0.4035,0.01 0.7296,-0.003 1,0.0312 l 0,0.87505 c -10e-5,0.5328 0.2109,1.0684 0.5625,1.4688 0.7196,0.8187 1.4989,1.2926 2,1.5937 0.1773,0.1066 0.2867,0.1715 0.4063,0.25 l 0,2.1563 c -0.276,-0.071 -0.5462,-0.125 -0.875,-0.125 -1.0537,0 -2.2986,0.702 -2.8126,1.5 -0.5139,0.798 -0.6268,1.4523 -0.7187,1.9687 -0.1723,0.9682 -0.3466,1.3717 -0.25,1.3125 -0.5359,0.4655 -1.3726,0.9044 -2.3125,1.6562 -0.9526,0.7618 -2.0312,2.2312 -2.0312,4 l 0,0.9063 c -0.1812,0.062 -0.3811,0.1407 -0.5938,0.25 -0.903,0.4794 -1.4921,1.5295 -1.625,2.2187 -0.133,0.6895 -0.094,1.1222 -0.094,1.375 0,1.0535 0.4494,2.053 0.9063,2.6876 0.4569,0.6343 0.8674,0.9872 1.1563,1.3124 l 0,0.031 c 0.9268,1.0367 1.6084,2.492 3.5937,3.6875 l 0.031,0 c 0.959,0.5912 1.1686,1.2435 2.5624,2.6562 l 0,0.031 c 0.6914,0.7044 1.4058,0.9997 1.9688,1.1875 -0.2309,0.4417 -0.4688,1.0503 -0.4688,1.75 0,1.157 0.8044,2.0949 1.125,2.4062 0.1126,0.1094 0.099,0.096 0.125,0.125 0.083,0.2682 0.1587,0.5604 0.3438,1.0938 0.2186,0.63 0.7144,1.5455 1.5,2.1562 0.4968,0.383 0.8646,0.5839 1.0625,0.7188 -0.022,0.185 -0.062,0.4511 -0.062,0.875 0,1.4432 1.0071,2.6929 1.8125,3.25 0.8054,0.5568 1.4541,0.8313 1.8437,1.0625 1.7337,1.0261 2.9225,1.4677 4.8126,2 0.7478,0.211 1.5213,0.085 1.8437,0 0.1305,-0.034 0.1608,-0.055 0.1875,-0.062 0.066,0 0.1223,-10e-5 0.3438,0.1562 0.1056,0.074 0.3774,0.3086 0.5312,0.4376 l 0,138.21874 -198.625,0 c -57.2045,0.054 -114.5291,0.031 -171.7812,0.031 l -7.4688,0 0,-6.4688 0,-101.31254 0,-11 0,-75.0938 20.4375,0 52.4063,0 c -1.2895,-1.43619 -2.7282,-2.93396 -4.4063,-4.40625 l -48,0 -22.6563,0 z m 174.625,0.28125 c -7.9612,-0.1299 -21.7649,3.7166 -35.8437,3 -0.1128,0.38169 -0.2515,0.75181 -0.375,1.125 l 66.0313,0 c -8.3648,-1.1483 -20.5847,-3.97442 -29.8126,-4.125 z m 176.6876,56.59375 -3.3438,9.6875 -10.2188,0.2188 8.1563,6.1874 -2.9375,9.7813 8.4062,-5.8437 8.4063,5.8124 -3,-9.7812 8.1563,-6.2188 -10.25,-0.1874 -3.375,-9.6563 z"
         style="font-size:medium;font-style:normal;font-variant:normal;font-weight:normal;font-stretch:normal;text-indent:0;text-align:start;text-decoration:none;line-height:normal;letter-spacing:normal;word-spacing:normal;text-transform:none;direction:ltr;block-progression:tb;writing-mode:lr-tb;text-anchor:start;baseline-shift:baseline;color:#000000;fill:#ffffff;fill-opacity:1;stroke:none;stroke-width:48;marker:none;visibility:visible;display:inline;overflow:visible;enable-background:accumulate;font-family:Sans;-inkscape-font-specification:Sans"
         inkscape:connector-curvature="0" />
      <text
         sodipodi:linespacing="125%"
         id="text4063-3-7-9-7-9-45-7-1-2"
         y="1035.5404"
         x="235.43636"
         style="font-size:21.10131645px;font-style:normal;font-variant:normal;font-weight:600;font-stretch:normal;text-align:start;line-height:125%;letter-spacing:0px;word-spacing:0px;writing-mode:lr-tb;text-anchor:start;fill:#ffffff;fill-opacity:1;stroke:none;font-family:Open Sans Semibold;-inkscape-font-specification:'Open Sans Semibold, Semi-Bold'"
         xml:space="preserve"><tspan
           y="1035.5404"
           x="235.43636"
           id="tspan4065-8-3-65-4-1-5-6-0-1"
           sodipodi:role="line">LAWRENCE, KS</tspan></text>
      <text
         sodipodi:linespacing="125%"
         id="text4063-3-7-9-7-9-45-1-1-7-6"
         y="1035.5229"
         x="21.041826"
         style="font-size:21.07718658px;font-style:normal;font-variant:normal;font-weight:600;font-stretch:normal;text-align:start;line-height:125%;letter-spacing:0px;word-spacing:0px;writing-mode:lr-tb;text-anchor:start;fill:#ffffff;fill-opacity:1;stroke:none;font-family:Open Sans Semibold;-inkscape-font-specification:'Open Sans Semibold, Semi-Bold'"
         xml:space="preserve"><tspan
           y="1035.5229"
           x="21.041826"
           id="tspan4065-8-3-65-4-1-5-4-4-3-8"
           sodipodi:role="line">MARCH 21-22, 2015</tspan></text>
      <path
         transform="matrix(1.4285714,0,0,1.4285714,384.7032,-1825.1094)"
         d="m -108.55272,1997.1729 a 2.1648691,2.1648691 0 1 1 -4.32974,0 2.1648691,2.1648691 0 1 1 4.32974,0 z"
         sodipodi:ry="2.1648691"
         sodipodi:rx="2.1648691"
         sodipodi:cy="1997.1729"
         sodipodi:cx="-110.71759"
         id="path3579-2-4-5"
         style="color:#000000;fill:#ffffff;fill-opacity:1;stroke:none;stroke-width:2;marker:none;visibility:visible;display:inline;overflow:visible;enable-background:accumulate"
         sodipodi:type="arc" />
      <path
         id="path2439-6-8-9-8-7-1-0-5-1"
         d="m 11.8887,811.49608 c -0.5804,0 -1.1521,0.2145 -1.5624,0.625 -0.4104,0.4103 -0.6563,0.9821 -0.6563,1.5625 l 0,77.3438 0,10.9687 0,107.81252 0,2.2188 c 0,0.5802 0.2458,1.1521 0.6563,1.5624 0.4103,0.4104 0.982,0.6563 1.5624,0.6563 l 9.6876,0 171.7812,0 7.9688,0 192.875,0 c 0.5804,0 1.1521,-0.2458 1.5624,-0.6563 0.4104,-0.4103 0.6562,-0.9824 0.6563,-1.5624 l 0,-141.53132 c 0,-0.6779 -0.3367,-1.3376 -0.875,-1.75 -0.389,-0.2979 -0.8362,-0.7335 -1.5313,-1.2187 -0.6949,-0.4854 -1.7675,-1 -2.9687,-1 -0.5122,0 -0.8231,0.096 -1.0313,0.1562 -1.5307,-0.4355 -2.0734,-0.6557 -3.5,-1.5 -0.6912,-0.41 -1.2137,-0.6354 -1.4687,-0.7812 0.022,-0.1859 0.062,-0.4396 0.062,-0.875 0,-1.2463 -0.7723,-2.3914 -1.4062,-2.9376 -0.6308,-0.5435 -1.1071,-0.7943 -1.375,-1 l -0.031,0 c 0,-0.01 0.017,-0.015 0,-0.062 -0.065,-0.1869 -0.1729,-0.7028 -0.4375,-1.4063 l 0,-0.031 c -0.1664,-0.423 -0.3948,-0.7262 -0.5938,-0.9687 0.2878,-0.4502 0.6563,-1.2111 0.6563,-2.125 0,-0.8892 -0.456,-1.8904 -1.0625,-2.4375 -0.6065,-0.547 -1.1748,-0.7298 -1.5938,-0.875 -0.6286,-0.2176 -0.9655,-0.3791 -1.0624,-0.4062 0,0 -0.03,0.01 -0.031,0 -0.9383,-0.9499 -1.554,-2.1939 -3.4375,-3.3438 l -0.031,0 c -0.9753,-0.5845 -1.2345,-1.3535 -2.5938,-2.875 -0.3615,-0.407 -0.5398,-0.6117 -0.6875,-0.7812 0.2379,-0.056 0.5356,-0.1303 0.875,-0.3438 0.6588,-0.4133 1.1875,-1.5315 1.1875,-2.2812 l 0,-2.4063 c 0,-0.3297 -0.057,-0.1606 0.4062,-0.5313 0.4636,-0.3708 1.4577,-0.8918 2.5,-1.8124 1.1865,-1.0462 1.4379,-2.2866 1.5626,-3.1563 0.3991,0.1673 0.9223,0.3125 1.5,0.3125 l 1.5,0 c 0.5078,0 1.014,-0.1771 1.4062,-0.5 0.7361,-0.6041 1.2812,-1.8491 1.2812,-2.7188 0,-1.2309 -0.7701,-2.0508 -1.125,-2.4062 l 0,-2.6562 c 0,-0.5314 -0.1813,-1.0688 -0.5312,-1.4688 -0.719,-0.8193 -1.4984,-1.2923 -2,-1.5937 -0.178,-0.1071 -0.3174,-0.1712 -0.4375,-0.25 l 0,-0.5938 c 0,-0.8841 -0.3696,-1.8359 -0.9687,-2.4375 -0.5994,-0.6016 -1.2908,-0.8972 -1.875,-1.0625 -1.1687,-0.3314 -2.2113,-0.3125 -3,-0.3125 -0.9375,0 -1.8172,0.4746 -2.3438,0.9375 -0.5267,0.4629 -0.8004,0.9021 -1,1.1875 -0.068,0.097 -0.046,0.032 -0.094,0.094 -0.1011,-0.053 -0.2297,-0.1213 -0.4687,-0.3125 -0.4845,-0.3877 -1.2738,-1.1737 -2.5625,-1.75 -1.9576,-0.8761 -2.7588,-1.8148 -4.9688,-3.3437 l 0,-0.031 c -1.3227,-0.8991 -2.15,-1.4789 -2.9374,-2.5 -0.4123,-0.5346 -1.0749,-0.8438 -1.75,-0.8438 l -27.1876,0 c -3.9332,2.4472 -9.3074,3.6126 -15.1874,4.4063 l 41.375,0 c 1.0099,1.0752 2.0796,1.8618 3.1562,2.5937 1.8637,1.2918 3.0822,2.5845 5.6875,3.75 0.4523,0.2019 0.879,0.5906 1.625,1.1875 0.746,0.597 2.0267,1.375 3.5937,1.375 0.9374,0 1.8171,-0.4748 2.3438,-0.9375 0.5266,-0.463 0.8004,-0.8707 1,-1.1562 0.093,-0.1326 0.072,-0.1206 0.125,-0.1875 0.4035,0.01 0.7296,0 1,0.031 l 0,0.875 c -10e-5,0.5328 0.2109,1.0684 0.5625,1.4688 0.7196,0.8187 1.4989,1.2926 2,1.5937 0.1773,0.1066 0.2867,0.1715 0.4063,0.25 l 0,2.1563 c -0.276,-0.071 -0.5462,-0.125 -0.875,-0.125 -1.0537,0 -2.2986,0.702 -2.8126,1.5 -0.5139,0.798 -0.6268,1.4523 -0.7187,1.9687 -0.1723,0.9682 -0.3466,1.3717 -0.25,1.3125 -0.5359,0.4655 -1.3726,0.9044 -2.3125,1.6562 -0.9526,0.7618 -2.0312,2.2312 -2.0312,4 l 0,0.9063 c -0.1812,0.062 -0.3811,0.1407 -0.5938,0.25 -0.903,0.4794 -1.4921,1.5295 -1.625,2.2187 -0.133,0.6895 -0.094,1.1222 -0.094,1.375 0,1.0535 0.4494,2.053 0.9063,2.6876 0.4569,0.6343 0.8674,0.9872 1.1563,1.3124 l 0,0.031 c 0.9268,1.0367 1.6084,2.492 3.5937,3.6875 l 0.031,0 c 0.959,0.5912 1.1686,1.2435 2.5624,2.6562 l 0,0.031 c 0.6914,0.7044 1.4058,0.9997 1.9688,1.1875 -0.2309,0.4417 -0.4688,1.0503 -0.4688,1.75 0,1.157 0.8044,2.0949 1.125,2.4062 0.1126,0.1094 0.099,0.096 0.125,0.125 0.083,0.2682 0.1587,0.5604 0.3438,1.0938 0.2186,0.63 0.7144,1.5455 1.5,2.1562 0.4968,0.383 0.8646,0.5839 1.0625,0.7188 -0.022,0.185 -0.062,0.4511 -0.062,0.875 0,1.4432 1.0071,2.6929 1.8125,3.25 0.8054,0.5568 1.4541,0.8313 1.8437,1.0625 1.7337,1.0261 2.9225,1.4677 4.8126,2 0.7478,0.211 1.5213,0.085 1.8437,0 0.1305,-0.034 0.1608,-0.055 0.1875,-0.062 0.066,0 0.1223,-10e-5 0.3438,0.1562 0.1056,0.074 0.3774,0.3086 0.5312,0.4376 l 0,138.21872 -198.625,0 c -57.2045,0.054 -114.5291,0.031 -171.7812,0.031 l -7.4688,0 0,-6.4688 0,-101.31252 0,-11 0,-75.0938 20.4375,0 52.4063,0 c -1.2895,-1.4362 -2.7282,-2.934 -4.4063,-4.4063 l -48,0 -22.6563,0 z m 174.625,0.2812 c -7.9612,-0.1298 -21.7649,3.7166 -35.8437,3 -0.1128,0.3817 -0.2515,0.7519 -0.375,1.125 l 66.0313,0 c -8.3648,-1.1482 -20.5847,-3.9744 -29.8126,-4.125 z m 176.6876,56.5938 -3.3438,9.6875 -10.2188,0.2188 8.1563,6.1874 -2.9375,9.7813 8.4062,-5.8437 8.4063,5.8124 -3,-9.7812 8.1563,-6.2188 -10.25,-0.1874 -3.375,-9.6563 z"
         style="font-size:medium;font-style:normal;font-variant:normal;font-weight:normal;font-stretch:normal;text-indent:0;text-align:start;text-decoration:none;line-height:normal;letter-spacing:normal;word-spacing:normal;text-transform:none;direction:ltr;block-progression:tb;writing-mode:lr-tb;text-anchor:start;baseline-shift:baseline;color:#000000;fill:#ffffff;fill-opacity:1;stroke:none;stroke-width:48;marker:none;visibility:visible;display:inline;overflow:visible;enable-background:accumulate;font-family:Sans;-inkscape-font-specification:Sans"
         inkscape:connector-curvature="0" />
      <text
         sodipodi:linespacing="125%"
         id="text4051-8-4-0-7-0-8-6-0-7-6-6"
         y="977.28815"
         x="17.465237"
         style="font-size:88.30614470999999800px;font-style:normal;font-variant:normal;font-weight:bold;font-stretch:normal;text-align:start;line-height:125%;letter-spacing:0px;word-spacing:0px;writing-mode:lr-tb;text-anchor:start;fill:#ffffff;fill-opacity:1;stroke:none;font-family:Open Sans Condensed;-inkscape-font-specification:'Open Sans Condensed, Bold'"
         xml:space="preserve"><tspan
           y="977.28815"
           x="17.465237"
           id="tspan4053-4-2-1-5-87-3-3-9-4-1-8"
           sodipodi:role="line">LINUX</tspan></text>
      <text
         sodipodi:linespacing="125%"
         id="text4051-8-4-0-4-7-4-7-4-0-4-5"
         y="977.30011"
         x="237.74411"
         style="font-size:87.07202148000000400px;font-style:normal;font-variant:normal;font-weight:bold;font-stretch:normal;text-align:start;line-height:125%;letter-spacing:0px;word-spacing:0px;writing-mode:lr-tb;text-anchor:start;fill:#ffffff;fill-opacity:1;stroke:none;font-family:Open Sans Condensed;-inkscape-font-specification:'Open Sans Condensed, Bold'"
         xml:space="preserve"><tspan
           y="977.30011"
           x="237.74411"
           id="tspan4053-4-2-1-1-8-8-8-8-9-2-7"
           sodipodi:role="line">FEST</tspan></text>
      <text
         sodipodi:linespacing="125%"
         id="text4047-6-1-2-2-3-4-8-8-48-3-6"
         y="898.9527"
         x="16.863796"
         style="font-size:65.40518951000000000px;font-style:normal;font-variant:normal;font-weight:600;font-stretch:normal;text-align:start;line-height:125%;letter-spacing:0px;word-spacing:0px;writing-mode:lr-tb;text-anchor:start;fill:#ffffff;fill-opacity:1;stroke:none;font-family:Open Sans Semibold;-inkscape-font-specification:'Open Sans Semibold, Semi-Bold'"
         xml:space="preserve"><tspan
           y="898.9527"
           x="16.863796"
           id="tspan4049-1-5-6-0-8-9-2-2-8-2-1"
           sodipodi:role="line">KANSAS</tspan></text>
      <path
         id="path3488-40-4-6-6"
         d="m 181.8177,474.22406 c -14.2953,0.0272 -25.407,3.46718 -33.8438,10.03125 -9.3843,7.30142 -14.1542,16.23547 -17.1875,24.75 -2.9131,8.1774 -4.6798,17.20584 -5.625,28.28125 -0.5914,6.92933 -0.7036,14.12502 -0.375,21.15625 1.152,24.65449 -1.7541,33.90001 -21.9063,58.5625 -12.1145,14.82597 -39.7141,47.48808 -40.2187,87.90625 -0.069,5.48813 0.8799,11.10916 1.875,15.53125 0.4388,1.95011 0.889,3.52533 1.2813,4.875 -1.0176,0.58419 -2.1312,1.23045 -3.4063,2.28125 -2.0495,1.6892 -3.6817,3.85431 -4.875,6.0625 -1.3772,2.54831 -3.109,6.85677 -4.4063,13.34375 -0.5701,2.85104 -1.2396,5.28037 -1.8437,7.0625 -0.5287,1.55936 -1.1756,2.77819 -1.1875,2.875 -0.102,0.12594 -1.1137,1.23814 -2.3125,2.625 -1.214,1.40435 -2.7207,3.22651 -4.1875,5.28125 -2.9338,4.10948 -5.9956,9.159 -5.9063,15 0.069,4.50876 1.8202,8.461 4.5,11.4375 2.6798,2.9765 6.1211,5.13648 9.9063,7.1875 7.5703,4.10203 16.7349,7.78081 25.3438,14.0625 5.1181,3.73463 8.1039,8.19303 11.5312,11.6875 5.6181,5.7284 17.8767,15.0657 33.75,15.3126 14.5936,0.2269 25.796,-8.1317 30.6875,-20.78135 13.8364,0.16368 26.8782,-3.06914 33.0313,-2.96875 5.5898,0.0912 12.8744,1.29587 19.5937,2.46875 5.5102,0.96182 10.2432,1.78536 14.375,1.9375 4.4274,8.07785 13.7226,15.45495 29.2187,15.31255 11.6126,-0.1067 19.3199,-2.5818 25.625,-5.375 6.3055,-2.7932 11.0601,-5.6565 17.9688,-7.25005 8.6996,-2.0066 19.8944,-2.04192 29.4375,-4.21875 4.7715,-1.08842 9.2817,-2.71803 12.7813,-5.96875 3.4991,-3.25072 5.5745,-8.15808 5.5,-14.0625 -0.068,-5.35467 -1.1257,-9.11319 -2.0626,-11.9375 -0.9365,-2.82431 -1.6008,-4.53479 -1.6562,-7 -0.1376,-6.12141 1.7927,-10.22342 1.7812,-18.65625 -0.01,-6.36736 -2.028,-11.37488 -5.1562,-14.875 -3.1282,-3.50012 -7.079,-5.45789 -10.75,-6.9375 -5.4194,-2.18419 -10.0091,-3.49459 -12,-5.5 -2.3694,-2.38686 -3.7151,-5.77649 -10.1875,-12.65625 2.5319,-20.14616 -4.7348,-39.44118 -11.6875,-54.625 -3.8954,-8.50685 -9.0385,-16.61207 -12.4688,-22 -12.3792,-19.44511 -16.3719,-22.28108 -21.5624,-29.21875 -3.8768,-5.18115 -6.6125,-10.39062 -8.5626,-14.96875 -4.1531,-9.7515 -6.715,-22.81128 -6.1874,-35.46875 0.3377,-8.10745 1.1155,-15.37583 1.1874,-22.34375 0.2417,-23.32801 -2.9246,-39.6704 -16.0312,-53.34375 -10.2199,-10.66158 -27.451,-14.90643 -43.7812,-14.875 z m 0.031,4 c 15.5893,-0.03 31.9091,4.2716 40.875,13.625 12.2592,12.7893 15.1442,27.55575 14.9062,50.53125 -0.069,6.6894 -0.8432,13.95965 -1.1874,22.21875 -0.5545,13.3037 2.1135,26.84655 6.5312,37.21875 2.0494,4.8118 4.9261,10.29435 9.0312,15.78125 5.451,7.2854 9.1078,9.69975 21.375,28.96875 3.4247,5.3791 8.4806,13.36765 12.2188,21.53125 7.0846,15.4718 14.2799,34.82525 11.1875,54.34375 7.5191,7.6582 8.2216,10.82255 11.4687,14.09375 3.1742,3.1971 8.3139,4.3478 13.3438,6.375 6.8616,2.7656 13.3913,6.9466 13.4062,18.125 0.011,7.7621 -1.9365,11.8422 -1.7812,18.75 0.1428,6.3526 3.5949,9.0975 3.7188,18.875 0.2554,20.1748 -25.8511,15.9894 -44.5938,20.3125 -15.0592,3.4735 -20.5841,12.3277 -42.75,12.5313 -15.6274,0.1436 -23.3084,-7.4258 -26.6562,-15.1563 -6.8459,0.4738 -24.2606,-4.3638 -36.4376,-4.5625 -7.9613,-0.1299 -21.7649,3.7166 -35.8437,3 -3.805,12.8757 -13.7555,20.9697 -27.875,20.7501 -14.274,-0.222 -25.878,-8.9663 -30.9375,-14.1251 -2.9572,-3.0152 -6.3025,-7.9448 -12.0312,-12.125 -18.1875,-13.2709 -37.905,-15.1132 -38.1251,-29.5 -0.1284,-8.3968 10.0654,-18.4787 11.5938,-20.4375 0.9869,-1.2649 2.5795,-5.5529 3.7812,-11.5625 1.2286,-6.1436 2.8611,-10.11135 4,-12.21875 0.8919,-1.6504 2.5576,-3.79465 3.9063,-4.90625 2.6202,-2.1592 5.1317,-3.0296 5.625,-3.5625 -0.3856,-0.524 -4.0618,-12.20385 -3.9375,-22.15625 0.482,-38.6034 27.1579,-70.53145 39.3125,-85.40625 20.3785,-24.9398 23.985,-36.18905 22.8125,-61.28125 -0.3205,-6.8574 -0.2004,-13.8833 0.375,-20.625 0.9251,-10.8395 2.6335,-19.49795 5.4063,-27.28125 2.8928,-8.1204 7.2038,-16.1909 15.875,-22.9375 7.6411,-5.9451 17.7347,-9.1615 31.4062,-9.1875 z m -7.0938,49.25 c -0.1463,0 -0.2907,0.0182 -0.4374,0.0312 -4.5994,0.1787 -18.0578,5.03275 -17.9688,22.90625 0.04,8.0137 2.6762,12.82745 5.5312,16.71875 0.2386,-0.1205 0.4754,-0.22795 0.7188,-0.34375 0.038,-0.018 0.087,-0.0445 0.125,-0.0625 0.2833,-0.1335 0.5549,-0.247 0.8438,-0.375 0.2535,-0.1128 0.5241,-0.23505 0.7812,-0.34375 0.035,-0.0139 0.06,-0.0172 0.094,-0.0312 0.2578,-0.1089 0.5207,-0.23865 0.7812,-0.34375 0.035,-0.0139 0.09,-0.0182 0.125,-0.0312 0.5634,-0.2258 1.1173,-0.44335 1.6875,-0.65625 0.028,-0.013 0.066,-0.0213 0.094,-0.0312 0.5779,-0.2149 1.1416,-0.4196 1.7188,-0.625 0.021,-0.0129 0.042,-0.0232 0.062,-0.0312 0.7266,-0.2584 1.4446,-0.4993 2.1563,-0.75 -2.876,-3.4653 -3.3341,-7.63085 -3.25,-10.90625 0.1328,-5.1867 2.6888,-11.38755 7.5312,-11.40625 3.5239,-0.014 8.3332,4.2613 8.2812,13.1875 -0.01,1.5215 -0.092,2.44755 -0.2187,3.15625 0.9918,-0.5359 1.963,-1.042 2.9687,-1.5 0.4273,-0.1944 0.8748,-0.35575 1.3126,-0.53125 0.059,-0.0229 0.096,-0.0688 0.1562,-0.0937 0.1594,-0.062 0.3388,-0.1278 0.5,-0.1875 0.6384,-0.2381 1.2948,-0.433 1.9688,-0.625 0.228,-0.065 0.4546,-0.129 0.6874,-0.1875 0.2337,-0.06 0.4485,-0.1342 0.6876,-0.1875 0.087,-1.0665 0.1757,-2.3153 0.2187,-4.0625 0.301,-12.2033 -7.6808,-22.36545 -16.7187,-22.65625 -0.1459,0 -0.291,-0.0312 -0.4376,-0.0312 z m 43.1563,3.40625 c -6.4972,0.013 -13.082,8.28325 -13.3437,20.28125 -0.028,1.3076 -0.062,2.288 -0.063,3.1875 1.776,0.4298 3.4229,1.04295 5.0313,1.90625 0.8471,0.4547 1.6887,0.9801 2.5313,1.5625 -0.04,-0.5336 -0.063,-1.13985 -0.063,-2.03125 0,-6.4821 2.5952,-11.66125 6.4376,-11.65625 2.6606,0 5.4176,3.3763 5.2187,9.5625 -0.114,3.5452 -0.9635,7.9598 -4.25,10.375 0.141,0.1338 0.2941,0.2383 0.4375,0.375 1.4744,1.1382 2.7709,2.1019 4,3 4.7541,-4.4699 6.4597,-10.7984 6.5938,-18.0625 0.1609,-8.707 -4.1462,-18.509 -12.5313,-18.5 z m -20.375,25.375 0,0.0312 c -0.5166,0 -1.0181,0.005 -1.5,0.0312 -0.2879,0.016 -0.5669,0.0385 -0.8437,0.0625 -0.1862,0.017 -0.381,0.0425 -0.5626,0.0625 -0.058,0 -0.1296,-0.007 -0.1874,0 -0.1648,0.019 -0.3076,0.0405 -0.4688,0.0625 -0.07,0.0129 -0.1497,0.0213 -0.2188,0.0312 -0.4308,0.065 -0.8408,0.1632 -1.25,0.25 -0.034,0.0129 -0.091,0.0232 -0.125,0.0312 -0.1078,0.023 -0.2058,0.0375 -0.3124,0.0625 -0.1087,0.026 -0.205,0.0365 -0.3126,0.0625 -0.2139,0.053 -0.4467,0.1279 -0.6562,0.1875 -0.1913,0.054 -0.3744,0.0978 -0.5625,0.15625 -0.2238,0.07 -0.436,0.14235 -0.6563,0.21875 -0.049,0.017 -0.1072,0.0455 -0.1562,0.0625 -0.3543,0.1258 -0.7142,0.26525 -1.0625,0.40625 -0.3963,0.1606 -0.7623,0.3207 -1.1563,0.5 -3.1528,1.4355 -6.3206,3.4885 -10.625,5.6875 l -0.031,0.0312 -0.062,0.0312 c -4.4025,1.8345 -9.7312,3.2983 -13.8125,5.375 -2.0408,1.0384 -3.7239,2.1908 -4.875,3.5625 -1.151,1.3716 -1.8084,2.9203 -1.7812,4.9375 0.056,4.2705 2.494,7.7585 6.0624,10.625 3.5688,2.8663 8.2033,5.00185 12.25,6.28125 l 0.094,0.0312 0.094,0.0312 c 0.6851,0.3193 1.4078,0.70675 2.1562,1.15625 0.7483,0.4497 1.5261,0.93925 2.3438,1.46875 1.635,1.0588 3.3958,2.2378 5.3437,3.3125 2.9218,1.6122 6.1788,3.00975 9.6875,3.53125 0.2924,0.044 0.5789,0.0625 0.875,0.0937 0.8883,0.0929 1.7981,0.12575 2.7188,0.0937 4.6159,-0.1638 7.5769,-1.05615 10.4374,-2.78125 2.8607,-1.725 5.6239,-4.3643 9.5626,-7.9375 l 0.125,-0.125 0.1562,-0.0625 c 1.8675,-0.9623 3.6438,-2.06255 5.2188,-3.21875 0.7874,-0.5782 1.5295,-1.17335 2.2187,-1.78125 0.6891,-0.6078 1.332,-1.21865 1.9063,-1.84375 2.296,-2.5006 3.5506,-5.0599 3.5624,-7.1875 0.014,-2.4206 -0.7689,-3.6961 -2.8437,-5.5625 -0.2327,-0.2093 -0.4842,-0.43645 -0.75,-0.65625 -0.1,-0.083 -0.2081,-0.1658 -0.3125,-0.25 -0.1658,-0.1338 -0.3227,-0.26765 -0.5,-0.40625 -0.191,-0.1489 -0.3892,-0.2822 -0.5938,-0.4375 -0.2272,-0.1731 -0.4748,-0.34955 -0.7187,-0.53125 -0.3809,-0.2836 -0.7666,-0.59805 -1.1875,-0.90625 -0.958,-0.7015 -2.0549,-1.48045 -3.2188,-2.34375 -0.8814,-0.6542 -1.8141,-1.3543 -2.8124,-2.125 l -0.063,-0.0312 -0.031,-0.0625 c -3.9732,-3.7958 -6.9425,-6.28635 -9.8438,-7.84375 -1.1931,-0.6404 -2.3838,-1.1348 -3.6562,-1.5 -0.1728,-0.049 -0.3239,-0.0796 -0.5,-0.125 -0.1035,-0.0259 -0.2388,-0.0678 -0.3438,-0.0937 -0.1885,-0.044 -0.3694,-0.0843 -0.5624,-0.125 l -0.031,0 c -0.2279,-0.047 -0.4525,-0.0853 -0.6875,-0.125 -0.248,-0.043 -0.4931,-0.0896 -0.75,-0.125 -0.2569,-0.0349 -0.5458,-0.0648 -0.8125,-0.0937 -0.2668,-0.028 -0.5348,-0.0425 -0.8125,-0.0625 -0.082,0 -0.167,-0.0253 -0.25,-0.0312 -0.091,0 -0.1893,0.013 -0.2812,0 -0.3924,-0.022 -0.771,-0.0535 -1.1876,-0.0625 -0.2862,0 -0.5682,-0.0312 -0.8437,-0.0312 z m -33.625,20.34375 c 0.096,-0.003 0.2041,0.0121 0.3125,0.0312 1.5667,0.2769 3.2139,1.03225 5,1.96875 2.6658,1.3979 5.6644,3.30225 8.9375,5.21875 6.5464,3.8333 14.1632,7.66055 21.9375,7.65625 8.0385,0 13.7739,-3.5703 18.0312,-7.125 2.1288,-1.7775 3.8501,-3.541 5.3126,-4.875 0.7309,-0.667 1.4057,-1.2084 2.0937,-1.625 0.3467,-0.2098 0.6128,-0.4544 1.1563,-0.5 1.2232,-0.1024 1.3841,1.9388 0,2.9375 -0.3741,0.2699 -0.8778,0.6769 -1.4376,1.1875 -1.3634,1.244 -3.1559,3.0586 -5.4062,4.9375 -4.5005,3.7578 -10.9157,7.7452 -19.75,7.75 -8.6417,0 -16.6636,-4.13785 -23.3125,-8.03125 -3.3245,-1.9467 -6.3052,-3.84155 -8.8125,-5.15625 -1.6436,-0.8618 -3.0917,-1.4307 -4.1875,-1.6875 -1.3479,-0.31566 -1.3132,-2.64803 0.125,-2.6875 z m -7.7813,9.3125 c -1.2779,5.6405 -2.9221,12.0163 -6.375,21.75 -6.9169,19.4991 -13.3098,33.4586 -24.4374,55.4375 -4.3816,8.6542 -9.119,21.1548 -11.4688,35.0625 -3.3844,0.013 -5.3618,0.4935 -7.4375,0.9375 -2.5981,-6.814 -3.0554,-11.34355 -2.875,-15.96875 0.452,-11.5854 5.3881,-30.0494 20.0937,-44.1875 3.1775,-3.0549 1.8729,-4.51155 -1.25,-1.59375 -11.6802,10.9131 -24.8299,33.48025 -24.25,52.03125 0.1296,4.1454 0.2706,8.1455 1.1876,12.0625 -14.1125,6.0109 -22.3844,13.4833 -21.9688,20.375 0.121,2.0044 0.2148,2.8207 0.5938,4.0625 l 3.125,0.15625 c -0.2902,-1.4532 -0.42,-2.6229 -0.5,-3.625 -0.4531,-5.6679 8.745,-11.38815 15.375,-14.28125 6.2708,-2.7363 10.4655,-3.91155 15.1874,-4.21875 6.8613,-0.4465 11.5418,3.1837 12.3438,12.5 14.9631,5.578 16.3729,21.72815 17.5625,42.15625 0.8618,14.8728 3.4452,16.8084 5.0625,24.9375 3.9486,2.6965 8.6812,5.97675 14.0625,8.34375 8.2008,3.607 15.1319,6.66075 31.4063,7.28125 13.6759,0.5216 25.2444,-3.652 34.875,-10.8125 3.5599,-5.09 7.1469,-10.1431 9.9062,-13.4375 -9.5829,-0.4437 -12.3126,-5.41935 -12.0938,-9.96875 0.4032,-8.385 7.5507,-16.7271 14.7813,-23.4375 8.6259,-8.0052 17.0709,-11.9671 21.5625,-15.5 8.3551,-6.5719 14.7837,-15.08165 15.0312,-30.34375 0.279,-17.1984 -9.537,-35.7273 -18.3437,-50.1875 -1.1536,-1.8942 -2.0941,-4.075 -2.7813,-3.875 -0.5832,0.1697 0.4496,2.8416 1.3438,4.625 6.1967,12.3577 14.0492,24.9542 14.625,43.1875 0.3257,10.3096 -3.176,17.88615 -7.5938,24.15625 -0.3242,-18.4389 -5.2327,-33.49305 -11,-45.71875 -10.0248,-21.2519 -20.3919,-45.04275 -23.8124,-60.21875 -1.3847,-6.1428 -1.9044,-11.2666 -2.125,-15.5625 -0.2358,0.1854 -0.4758,0.3809 -0.7188,0.5625 -0.1613,0.1206 -0.3042,0.22515 -0.4688,0.34375 -0.1637,0.1179 -0.3333,0.2586 -0.5,0.375 -0.144,0.1011 -0.2911,0.18215 -0.4374,0.28125 -0.027,0.018 -0.067,0.0445 -0.094,0.0625 -0.1305,0.088 -0.2428,0.19445 -0.375,0.28125 -0.1659,0.1089 -0.3315,0.205 -0.5,0.3125 -0.1705,0.1089 -0.3582,0.2061 -0.5312,0.3125 -0.3247,0.2004 -0.6353,0.40045 -0.9688,0.59375 -0.2715,0.157 -0.5669,0.31675 -0.8438,0.46875 -0.2853,0.1571 -0.5529,0.31715 -0.8437,0.46875 -3.8577,3.5023 -6.7178,6.2022 -9.9063,8.125 -3.2203,1.9422 -6.7786,3.0122 -11.7187,3.1875 -1.0504,0.038 -2.0913,-0.02 -3.0937,-0.125 -0.3342,-0.035 -0.6714,-0.0753 -1,-0.125 -3.9438,-0.5812 -7.4793,-2.1114 -10.5626,-3.8125 -4.0925,-2.2582 -7.4539,-4.80885 -9.6562,-5.84375 -4.2566,-1.3578 -9.1202,-3.546 -13.0312,-6.6875 -0.2468,-0.1982 -0.4798,-0.38715 -0.7188,-0.59375 -0.028,-0.025 -0.066,-0.0707 -0.094,-0.0937 -0.2104,-0.1837 -0.4213,-0.3722 -0.625,-0.5625 -0.1585,-0.1479 -0.3146,-0.2856 -0.4687,-0.4375 -0.07,-0.069 -0.1185,-0.14895 -0.1875,-0.21875 -0.1304,-0.132 -0.2795,-0.2401 -0.4062,-0.375 -0.088,-0.093 -0.164,-0.18625 -0.25,-0.28125 -0.1027,-0.1128 -0.2126,-0.22845 -0.3126,-0.34375 -0.024,-0.0289 -0.038,-0.0657 -0.062,-0.0937 -0.1584,-0.1843 -0.3179,-0.3731 -0.4688,-0.5625 -0.1195,-0.1502 -0.2291,-0.31545 -0.3438,-0.46875 -0.053,-0.07 -0.1042,-0.1165 -0.1562,-0.1875 -0.1295,-0.1785 -0.2523,-0.38 -0.375,-0.5625 -0.032,-0.048 -0.062,-0.0775 -0.094,-0.125 z m -32.5,135.65625 c -0.968,9.7608 -5.8638,20.8088 -16.4687,20.6875 -9.4856,-0.1089 -18.3952,-6.42525 -23.3125,-11.65625 -17.0467,-1.7046 -19.6615,6.98865 -21.625,15.34375 -1.0852,4.6175 -2.0448,10.35395 -4.3125,14.40625 -1.9182,3.4278 -11.5248,11.6173 -11.5625,19.6875 -0.042,8.9339 15.0498,12.2891 30.4062,21.4375 3.4414,2.0501 8.929,6.2572 11.6563,9.375 6.6649,7.6193 17.7271,19.7714 34.7187,20.125 13.8032,0.2873 22.9266,-10.41505 23.5,-22.46875 0.4194,-8.8123 -3.4184,-18.32955 -5.5937,-26.03125 -2.1179,-7.4982 -4.0107,-15.4348 -4.375,-23.0625 -0.7898,-16.536 -2.3137,-33.45115 -13.0313,-37.84375 z m 161.5313,0.59375 c -5.8393,0.079 -11.6401,3.0475 -17.2187,10.8125 -9.8676,13.7352 -11.0478,20.5452 -15.7188,28.3125 -8.3711,13.92 -27.125,30.1661 -27.125,44 0,8.7629 5.0086,21.8537 24.8438,21.5625 18.6711,-0.274 25.9901,-8.39575 39.2812,-12.03125 21.4149,-5.8575 43.2296,-0.7893 43.0938,-15.9375 -0.08,-8.8812 -3.6822,-12.1911 -3.8126,-18.6875 -0.1604,-8.0121 2.097,-12.8605 1.9688,-19.25 -0.299,-14.9085 -14.7917,-13.26745 -22.8125,-19.03125 -7.587,-5.4521 -11.7887,-19.4495 -22,-19.75 l -0.5,0 z"
         style="font-size:medium;font-style:normal;font-variant:normal;font-weight:normal;font-stretch:normal;text-indent:0;text-align:start;text-decoration:none;line-height:normal;letter-spacing:normal;word-spacing:normal;text-transform:none;direction:ltr;block-progression:tb;writing-mode:lr-tb;text-anchor:start;baseline-shift:baseline;color:#000000;fill:#ffffff;fill-opacity:1;fill-rule:nonzero;stroke:none;stroke-width:8;marker:none;visibility:visible;display:inline;overflow:visible;enable-background:accumulate;font-family:Sans;-inkscape-font-specification:Sans"
         inkscape:connector-curvature="0" />
    </g>
  </g>
</svg>
