<?xml version="1.0" encoding="UTF-8" standalone="no"?>
<!-- Created with Inkscape (http://www.inkscape.org/) -->

<svg
   xmlns:dc="http://purl.org/dc/elements/1.1/"
   xmlns:cc="http://creativecommons.org/ns#"
   xmlns:rdf="http://www.w3.org/1999/02/22-rdf-syntax-ns#"
   xmlns:svg="http://www.w3.org/2000/svg"
   xmlns="http://www.w3.org/2000/svg"
   xmlns:sodipodi="http://sodipodi.sourceforge.net/DTD/sodipodi-0.dtd"
   xmlns:inkscape="http://www.inkscape.org/namespaces/inkscape"
   width="500.89001"
   height="297.84"
   id="svg3253"
   version="1.1"
   inkscape:version="0.48.2 r9819"
   sodipodi:docname="kansasLinuxFest_white.svg">
  <defs
     id="defs3255" />
  <sodipodi:namedview
     id="base"
     pagecolor="#000000"
     bordercolor="#666666"
     borderopacity="1.0"
     inkscape:pageopacity="0"
     inkscape:pageshadow="2"
     inkscape:zoom="2.7833737"
     inkscape:cx="250.44501"
     inkscape:cy="148.92"
     inkscape:document-units="px"
     inkscape:current-layer="layer1"
     showgrid="false"
     fit-margin-top="0"
     fit-margin-left="0"
     fit-margin-right="0"
     fit-margin-bottom="0" />
  <metadata
     id="metadata3258">
    <rdf:RDF>
      <cc:Work
         rdf:about="">
        <dc:format>image/svg+xml</dc:format>
        <dc:type
           rdf:resource="http://purl.org/dc/dcmitype/StillImage" />
        <dc:title></dc:title>
      </cc:Work>
    </rdf:RDF>
  </metadata>
  <g
     inkscape:label="Layer 1"
     inkscape:groupmode="layer"
     id="layer1"
     transform="translate(707.08793,-442.06644)">
    <rect
       style="color:#000000;fill:#000000;fill-opacity:1;fill-rule:evenodd;stroke:none;stroke-width:1px;marker:none;visibility:visible;display:inline;overflow:visible;enable-background:accumulate"
       id="rect3336"
       width="500.88501"
       height="297.84299"
       x="-707.08545"
       y="442.06494" />
    <g
       transform="translate(431.31123,50.046291)"
       id="g4391"
       inkscape:export-filename="C:\Users\cgw01249\Google Drive\Design\kslinux2015\firstAnnualKansasLinuxFest_white.png"
       inkscape:export-xdpi="90"
       inkscape:export-ydpi="90">
      <path
         sodipodi:nodetypes="cscccccccccccccccssccccccccsscccsccccsscccccccsccscccssccccccccccccsccccsccccssccccccsssccccccccsscccsccscccccsccscsccccccccc"
         inkscape:connector-curvature="0"
         id="path2439-6-8-26-7-5"
         d="m -1094.248,421.48659 c -0.6714,7e-5 -1.3386,0.27648 -1.8133,0.75121 -0.4747,0.47472 -0.7511,1.14195 -0.7512,1.8133 l 0,115.95676 c 1.6301,-3.15333 3.3641,-6.14747 5.129,-8.96238 l 0,-104.42989 37.2353,0 c 0,-0.006 0.01,-0.0111 0.01,-0.0168 0.6011,-1.6874 1.2929,-3.40036 2.1104,-5.11229 z m 121.59665,0 c 0.8024,1.65194 1.49209,3.3588 2.08367,5.129 l 275.04588,0 c 1.1683,1.2437 2.4144,2.13199 3.6598,2.97857 0.01,0.004 0.011,0.009 0.017,0.0132 2.1559,1.49425 3.5445,2.97289 6.5582,4.32093 0.5232,0.23365 0.987,0.67522 1.8499,1.36574 0.8629,0.69051 2.3447,1.5861 4.1573,1.5861 1.0842,0 2.1323,-0.513 2.7415,-1.04849 0.6091,-0.53549 0.9211,-1.03542 1.152,-1.36574 0.1071,-0.15325 0.096,-0.13313 0.1569,-0.21036 0.4668,0.012 0.846,0.0354 1.1587,0.0735 l 0,1.01845 c -10e-5,0.6163 0.2311,1.22994 0.6378,1.69299 0.8325,0.94691 1.7445,1.48815 2.3241,1.83655 0.2051,0.12331 0.3325,0.2063 0.4708,0.29719 l 0,2.49436 c -0.3191,-0.0823 -0.6615,-0.14358 -1.0418,-0.14358 -1.2189,0 -2.6612,0.80996 -3.2557,1.73303 -0.5945,0.9231 -0.6851,1.68004 -0.7914,2.27732 -0.1993,1.11994 -0.4289,1.59123 -0.3172,1.5227 -0.6199,0.53849 -1.5707,1.04375 -2.658,1.91333 -1.1018,0.8812 -2.3709,2.58204 -2.3709,4.62813 l 0,1.03515 c -0.2094,0.0716 -0.4217,0.1441 -0.6678,0.27046 -0.01,0.005 -0.02,0.0111 -0.03,0.0168 -1.0445,0.5546 -1.7228,1.78372 -1.8766,2.5812 -0.1538,0.79747 -0.09,1.30023 -0.09,1.59277 0,1.21857 0.4932,2.37485 1.0217,3.1088 0.5286,0.73396 1.0118,1.15984 1.3458,1.53603 0,0.002 0,0.004 0.01,0.007 1.0722,1.19934 1.8675,2.87791 4.1639,4.2608 0.01,0.004 0.011,0.006 0.017,0.0101 1.1093,0.68381 1.3729,1.46128 2.9852,3.09544 0,0.002 0,0.004 0.01,0.007 0.7999,0.81458 1.6161,1.17492 2.2673,1.39245 -0.2671,0.51057 -0.5175,1.17392 -0.5175,1.98346 0,1.33822 0.8946,2.41814 1.2655,2.77821 0.1302,0.12639 0.144,0.14691 0.1737,0.18033 0.096,0.31047 0.1665,0.65523 0.3806,1.27222 0.253,0.72888 0.821,1.74818 1.7297,2.45432 0,0.002 0,0.004 0.01,0.007 0.5748,0.4431 0.9733,0.69881 1.2022,0.85483 -0.025,0.21397 -0.053,0.49132 -0.053,0.98174 0,1.66935 1.1587,3.15247 2.0904,3.79664 0.9316,0.6442 1.6996,0.93139 2.1504,1.1988 2.0055,1.18693 3.3835,1.70493 5.5698,2.32074 l 0,0.003 c 0,0.002 0,-0.002 0.01,0 0.865,0.24396 1.7574,0.088 2.1304,-0.0101 0.1509,-0.0397 0.1929,-0.049 0.2237,-0.0568 0.076,0.004 0.1379,0.0248 0.3941,0.20371 0.1221,0.0853 0.4198,0.33483 0.5977,0.48417 l 0,159.89722 -236.2812,0 c -0.033,1.83393 -0.3324,3.55715 -0.8649,5.12897 l 239.7106,0 c 0.6713,-7e-5 1.3385,-0.27645 1.8133,-0.7512 0.4747,-0.4747 0.7511,-1.14193 0.7512,-1.81328 l 0,-163.68052 c 0,-0.78433 -0.3825,-1.55993 -1.0052,-2.0369 -0.4499,-0.3445 -0.9825,-0.87117 -1.7864,-1.43252 -0.8039,-0.56135 -2.0098,-1.13865 -3.3993,-1.13865 -0.5924,0 -0.9847,0.10373 -1.2255,0.17362 -1.7706,-0.5037 -2.3703,-0.72966 -4.0204,-1.70632 l 0,0.003 c -0.7997,-0.4743 -1.3979,-0.75259 -1.6929,-0.92161 0.025,-0.21493 0.053,-0.49122 0.053,-0.99509 0,-1.44143 -0.8897,-2.77409 -1.6229,-3.40597 -0.7296,-0.62885 -1.2929,-0.91781 -1.6028,-1.15535 0,-0.002 -0.01,-0.002 -0.01,-0.003 0,-0.008 0,-0.0281 -0.023,-0.0835 -0.075,-0.21616 -0.1915,-0.81236 -0.4975,-1.62619 0,-0.0111 -0.01,-0.0222 -0.014,-0.0334 -0.1924,-0.48957 -0.4376,-0.84827 -0.6678,-1.12864 0.3329,-0.52072 0.7614,-1.36673 0.7614,-2.42426 0,-1.02826 -0.5407,-2.21562 -1.2422,-2.84832 -0.7016,-0.6327 -1.3519,-0.84721 -1.8366,-1.01512 -0.9694,-0.3358 -1.3635,-0.55107 -1.2589,-0.4441 0,-0.002 -0.01,-0.004 -0.01,-0.007 -1.0853,-1.09887 -1.8083,-2.55689 -3.987,-3.88683 -0.01,-0.003 -0.011,-0.007 -0.017,-0.0102 -1.128,-0.67631 -1.4162,-1.52546 -2.9885,-3.28577 0,-0.004 0,-0.003 -0.01,-0.007 -0.4181,-0.47056 -0.6439,-0.70534 -0.8147,-0.90158 0.2752,-0.0648 0.5992,-0.18429 0.9917,-0.43075 0.762,-0.47848 1.4192,-1.7373 1.4192,-2.60458 l 0,-2.79157 c 0,-0.38119 -0.089,-0.19224 0.4475,-0.62112 0.5362,-0.42883 1.666,-1.029 2.8717,-2.09365 1.3724,-1.2104 1.6925,-2.64039 1.8365,-3.64641 0.4617,0.19354 1.0383,0.36064 1.7063,0.36064 l 1.7631,0 c 0.5875,-0.002 1.1726,-0.21104 1.6262,-0.58433 0.8515,-0.69891 1.4492,-2.11298 1.4492,-3.11885 0,-1.42404 -0.8551,-2.38372 -1.2655,-2.79488 l 0,-3.09209 c 0,-0.61477 -0.2297,-1.22695 -0.6345,-1.68964 -0.8317,-0.94778 -1.7438,-1.49113 -2.3241,-1.83988 -0.2058,-0.12376 -0.3352,-0.20929 -0.4741,-0.30054 l 0,-0.68117 c 0,-1.02293 -0.4589,-2.1491 -1.152,-2.84499 -0.6932,-0.69597 -1.4645,-1.01053 -2.1405,-1.20213 -1.3518,-0.38317 -2.547,-0.34061 -3.4594,-0.34061 -1.0842,0 -2.1356,0.51638 -2.7448,1.05187 -0.6092,0.53546 -0.9211,1.03541 -1.152,1.36571 -0.079,0.11246 -0.058,0.0816 -0.1135,0.15361 -0.1169,-0.0608 -0.2512,-0.17279 -0.5276,-0.39403 -0.5604,-0.44842 -1.4712,-1.3739 -2.9619,-2.04025 l 0,0 c -2.2644,-1.0135 -3.1938,-2.10182 -5.7501,-3.8701 -0.01,-0.003 -0.011,-0.007 -0.017,-0.0102 -1.5302,-1.03997 -2.4584,-1.70054 -3.3693,-2.88173 -0.477,-0.61845 -1.2492,-0.99821 -2.0302,-0.99842 z"
         style="font-size:medium;font-style:normal;font-variant:normal;font-weight:normal;font-stretch:normal;text-indent:0;text-align:start;text-decoration:none;line-height:normal;letter-spacing:normal;word-spacing:normal;text-transform:none;direction:ltr;block-progression:tb;writing-mode:lr-tb;text-anchor:start;baseline-shift:baseline;color:#000000;fill:#ffffff;fill-opacity:1;stroke:none;stroke-width:48;marker:none;visibility:visible;display:inline;overflow:visible;enable-background:accumulate;font-family:Sans;-inkscape-font-specification:Sans" />
      <text
         sodipodi:linespacing="125%"
         id="text4051-8-4-0-7-0-1-9-0"
         y="564.05682"
         x="-858.58667"
         style="font-size:66.60490417px;font-style:normal;font-variant:normal;font-weight:bold;font-stretch:normal;text-align:start;line-height:125%;letter-spacing:0px;word-spacing:0px;writing-mode:lr-tb;text-anchor:start;fill:#ffffff;fill-opacity:1;stroke:none;font-family:Open Sans Condensed;-inkscape-font-specification:'Open Sans Condensed, Bold'"
         xml:space="preserve"><tspan
           y="564.05682"
           x="-858.58667"
           id="tspan4053-4-2-1-5-87-6-7-9"
           sodipodi:role="line">LINUX</tspan></text>
      <text
         sodipodi:linespacing="125%"
         id="text4051-8-4-0-4-7-5-5-9"
         y="643.77966"
         x="-860.40613"
         style="font-size:95.50281525px;font-style:normal;font-variant:normal;font-weight:bold;font-stretch:normal;text-align:start;line-height:125%;letter-spacing:0px;word-spacing:0px;writing-mode:lr-tb;text-anchor:start;fill:#ffffff;fill-opacity:1;stroke:none;font-family:Open Sans Condensed;-inkscape-font-specification:'Open Sans Condensed, Bold'"
         xml:space="preserve"><tspan
           y="643.77966"
           x="-860.40613"
           id="tspan4053-4-2-1-1-8-7-3-6"
           sodipodi:role="line">FEST</tspan></text>
      <text
         sodipodi:linespacing="125%"
         id="text4047-6-1-2-2-3-5-4-8"
         y="506.08426"
         x="-857.67139"
         style="font-size:52.09099197px;font-style:normal;font-variant:normal;font-weight:bold;font-stretch:normal;text-align:start;line-height:125%;letter-spacing:0px;word-spacing:0px;writing-mode:lr-tb;text-anchor:start;fill:#ffffff;fill-opacity:1;stroke:none;font-family:Open Sans Condensed;-inkscape-font-specification:'Open Sans Condensed, Bold'"
         xml:space="preserve"><tspan
           y="506.08426"
           x="-857.67139"
           id="tspan4049-1-5-6-0-8-4-3-3"
           sodipodi:role="line">KANSAS</tspan></text>
      <path
         inkscape:connector-curvature="0"
         id="text4043-46-3-3-0-4-7-2-1-8"
         d="m -834.8125,432.9375 c -1.19304,2e-5 -2.20487,0.38507 -2.9375,1.15625 -0.73363,0.77225 -1.09375,1.8324 -1.09375,3.09375 0,0.65527 0.0961,1.23289 0.28125,1.75 0.18146,0.50674 0.44741,0.96545 0.78125,1.375 0.33919,0.41613 0.8213,0.82391 1.4375,1.25 0.67024,0.45925 1.14434,0.88161 1.40625,1.21875 0.25734,0.33126 0.375,0.67293 0.375,1.0625 0,0.40878 -0.0975,0.67492 -0.28125,0.875 -0.17384,0.18924 -0.44282,0.3125 -0.875,0.3125 -0.78093,0 -1.68101,-0.31207 -2.6875,-0.96875 l -0.53125,-0.34375 0,0.625 0,2.5625 0,0.21875 0.15625,0.0937 c 0.91466,0.51194 2.01982,0.78125 3.28125,0.78125 1.30627,0 2.39074,-0.38298 3.125,-1.15625 0.73412,-0.77313 1.06249,-1.88638 1.0625,-3.25 -10e-6,-0.86613 -0.17147,-1.65164 -0.5625,-2.34375 -0.39819,-0.70474 -1.09215,-1.36954 -2.03125,-2 -0.65745,-0.43416 -1.11537,-0.79819 -1.34375,-1.09375 -0.2241,-0.29001 -0.3125,-0.6272 -0.3125,-1.03125 0,-0.42217 0.0863,-0.70564 0.25,-0.90625 0.15882,-0.19461 0.34424,-0.28124 0.6875,-0.28125 0.33914,10e-6 0.64713,0.0658 0.9375,0.1875 0.32041,0.13428 0.64548,0.26717 0.9375,0.4375 l 0.34375,0.21875 0.15625,-0.375 0.84375,-2.09375 0.125,-0.28125 -0.25,-0.15625 c -1.03443,-0.62731 -2.14677,-0.93748 -3.28125,-0.9375 z m 4.21875,0.1875 0,0.375 0,2.28125 0,0.34375 0.375,0 2.3125,0 0,11.3125 0,0.34375 0.34375,0 2.59375,0 0.34375,0 0,-0.34375 0,-11.3125 2.3125,0 0.375,0 0,-0.34375 0,-2.28125 0,-0.375 -0.375,0 -7.90625,0 -0.375,0 z"
         style="font-size:19.55241776px;font-style:normal;font-variant:normal;font-weight:bold;font-stretch:normal;text-align:start;line-height:125%;letter-spacing:0px;word-spacing:0px;writing-mode:lr-tb;text-anchor:start;fill:#ffffff;fill-opacity:1;stroke:none;font-family:Open Sans Condensed;-inkscape-font-specification:'Open Sans Condensed, Bold'" />
      <text
         sodipodi:linespacing="125%"
         id="text4043-46-3-3-0-0-0-0-3-9"
         y="458.103"
         x="-856.07739"
         style="font-size:35.25404739px;font-style:normal;font-variant:normal;font-weight:bold;font-stretch:normal;text-align:start;line-height:125%;letter-spacing:0px;word-spacing:0px;writing-mode:lr-tb;text-anchor:start;fill:#ffffff;fill-opacity:1;stroke:none;font-family:Open Sans Condensed;-inkscape-font-specification:'Open Sans Condensed, Bold'"
         xml:space="preserve"><tspan
           y="458.103"
           x="-856.07739"
           id="tspan4045-06-6-7-1-7-7-1-2-9"
           sodipodi:role="line">1</tspan></text>
      <text
         sodipodi:linespacing="125%"
         id="text4043-46-3-3-0-1-3-4-5-2"
         y="458.103"
         x="-816.1781"
         style="font-size:35.25404739px;font-style:normal;font-variant:normal;font-weight:bold;font-stretch:normal;text-align:start;line-height:125%;letter-spacing:0px;word-spacing:0px;writing-mode:lr-tb;text-anchor:start;fill:#ffffff;fill-opacity:1;stroke:none;font-family:Open Sans Condensed;-inkscape-font-specification:'Open Sans Condensed, Bold'"
         xml:space="preserve"><tspan
           y="458.103"
           x="-816.1781"
           id="tspan4045-06-6-7-1-77-4-6-3-5"
           sodipodi:role="line">ANNUAL</tspan></text>
      <text
         sodipodi:linespacing="125%"
         id="text4063-3-7-9-0-5-5"
         y="675.91272"
         x="-856.4845"
         style="font-size:22.2219944px;font-style:normal;font-variant:normal;font-weight:600;font-stretch:normal;text-align:start;line-height:125%;letter-spacing:0px;word-spacing:0px;writing-mode:lr-tb;text-anchor:start;fill:#ffffff;fill-opacity:1;stroke:none;font-family:Open Sans Semibold;-inkscape-font-specification:'Open Sans Semibold, Semi-Bold'"
         xml:space="preserve"><tspan
           y="675.91272"
           x="-856.4845"
           id="tspan4065-8-3-65-7-1-3"
           sodipodi:role="line">LAWRENCE, KS</tspan></text>
      <path
         id="path3228-3"
         d="m -1014.3521,399.11033 c -11.1736,0.0212 -19.999,2.73358 -26.6874,7.9375 -7.4022,5.75899 -11.1903,12.84127 -13.5626,19.5 -2.2807,6.40282 -3.6413,13.43559 -4.375,22.03125 -0.4592,5.38007 -0.5682,10.96484 -0.3124,16.4375 0.884,18.92325 -1.193,25.59998 -16.6876,44.56249 -9.3362,11.42609 -30.8552,36.80683 -31.25,68.40625 -0.054,4.35435 0.6859,8.73334 1.4688,12.1875 0.2845,1.25528 0.5768,2.20628 0.8438,3.15625 -0.6996,0.42452 -1.3415,0.76602 -2.1563,1.4375 -1.7549,1.4463 -3.014,3.14419 -4,4.96875 -1.1225,2.07738 -2.4537,5.48545 -3.4687,10.5625 -0.433,2.16377 -0.924,3.98322 -1.375,5.3125 -0.4512,1.32928 -1.1061,2.32251 -0.7813,1.90625 0.01,-0.0103 -0.8341,0.96695 -1.7813,2.0625 -0.9467,1.09555 -2.0942,2.50601 -3.25,4.125 -2.3114,3.23799 -4.8244,7.2433 -4.75,12.125 0.056,3.68658 1.5341,6.97861 3.7188,9.40625 2.1847,2.42764 4.9166,4.14624 7.875,5.75 5.9169,3.20752 12.9372,6.01546 19.4688,10.78125 3.8158,2.78438 6.0392,6.11051 8.7812,8.90625 4.4599,4.54742 14.0429,11.89759 26.6562,12.09375 11.3609,0.17677 20.3168,-6.30538 24.3438,-16.03125 10.598,0.0263 20.4431,-2.35255 24.8125,-2.28125 4.2005,0.0685 9.7881,1.00467 14.96873,1.90625 4.10029,0.71356 7.66849,1.28332 10.90625,1.4375 3.67065,6.29073 10.97428,11.98466 22.90625,11.875 9.08088,-0.0834 15.19493,-2.06489 20.125,-4.25 4.93007,-2.18511 8.53135,-4.33473 13.71875,-5.53125 6.55867,-1.5128 15.16819,-1.53339 22.6875,-3.25 3.75966,-0.8583 7.40193,-2.16656 10.28125,-4.84375 2.87932,-2.67719 4.5914,-6.78016 4.53125,-11.53125 -0.0536,-4.23518 -0.89678,-7.26316 -1.625,-9.46875 -0.72822,-2.20559 -1.21082,-3.38178 -1.25,-5.125 -0.10208,-4.54034 1.41515,-7.74475 1.40625,-14.40625 -0.007,-5.08978 -1.6588,-9.20436 -4.21875,-12.0625 -2.55995,-2.85814 -5.74198,-4.43181 -8.625,-5.59375 -4.26329,-1.71825 -7.70133,-2.75457 -8.96875,-4.03125 -1.60929,-1.62104 -3.02715,-4.43744 -7.5625,-9.375 1.85933,-15.69706 -3.78001,-30.60844 -9.125,-42.28125 -3.04067,-6.64043 -7.03857,-12.9328 -9.6875,-17.09375 -9.57596,-15.04173 -12.71023,-17.31962 -16.65625,-22.59375 -2.94444,-3.93546 -5.02265,-7.87513 -6.5,-11.34374 -3.14289,-7.37909 -5.1196,-17.34966 -4.71875,-26.96875 0.25936,-6.22229 0.84999,-11.84434 0.90625,-17.28125 0.18709,-18.0797 -2.28875,-31.06198 -12.59375,-41.8125 -8.17068,-8.52389 -21.66983,-11.7428 -34.43753,-11.71875 z m 0,4 c 12.0272,-0.0226 24.61409,3.28379 31.53128,10.5 9.45807,9.86698 11.68343,21.27424 11.5,39 -0.0534,5.16085 -0.64065,10.75311 -0.90625,17.125 -0.42772,10.26387 1.62298,20.71658 5.03125,28.71875 1.58113,3.71228 3.83273,7.92296 7,12.15624 4.20528,5.62064 7.00457,7.50885 16.46875,22.375 2.64197,4.15002 6.55352,10.2955 9.4375,16.59375 5.4658,11.93663 11.01084,26.8789 8.625,41.9375 5.80103,5.90823 6.3384,8.35136 8.84375,10.875 2.44877,2.46666 6.4319,3.37349 10.3125,4.9375 5.29379,2.13355 10.33188,5.34457 10.34375,13.96875 0.008,5.98853 -1.49482,9.13937 -1.375,14.46875 0.11017,4.90113 2.74826,7.01911 2.84375,14.5625 0.19705,15.56492 -19.91495,12.32095 -34.375,15.65625 -11.6182,2.67985 -15.89888,9.53043 -33,9.6875 -12.0566,0.11081 -17.97963,-5.75469 -20.5625,-11.71875 -5.28152,0.36555 -18.73048,-3.34672 -28.12498,-3.5 -6.1424,-0.10023 -16.7945,2.86545 -27.6562,2.3125 -2.9357,9.93369 -10.6069,16.16949 -21.5,16 -11.0126,-0.17126 -19.9717,-6.92624 -23.875,-10.90625 -2.2817,-2.32622 -4.8616,-6.11874 -9.2813,-9.34375 -14.0317,-10.23862 -29.2365,-11.65053 -29.4063,-22.75 -0.099,-6.47813 7.7583,-14.27004 8.9376,-15.78125 0.7615,-0.97588 2.0103,-4.26989 2.9374,-8.90625 0.9478,-4.73983 2.1839,-7.81157 3.0626,-9.4375 0.6881,-1.27331 1.9907,-2.9237 3.0312,-3.78125 2.0215,-1.66597 3.9631,-2.33877 4.3438,-2.75 -0.2974,-0.4042 -3.1585,-9.41554 -3.0626,-17.09375 0.3721,-29.78273 20.9665,-54.43018 30.3438,-65.90625 15.7221,-19.24104 18.4983,-27.92254 17.5938,-47.28124 -0.2473,-5.29046 -0.1314,-10.70491 0.3124,-15.90625 0.7138,-8.3627 2.0171,-15.02644 4.1563,-21.03125 2.2318,-6.26489 5.5601,-12.48255 12.25,-17.6875 5.8952,-4.58669 13.6712,-7.07375 24.2187,-7.09375 z m -5.7812,38 c -3.5484,0.13784 -13.9751,3.89804 -13.9062,17.6875 0.031,6.18256 2.0785,9.90406 4.2812,12.90625 0.184,-0.0926 0.3748,-0.19199 0.5625,-0.28125 0.029,-0.0139 0.064,-0.0174 0.094,-0.0312 0.2186,-0.10304 0.4335,-0.21363 0.6563,-0.3125 0.1956,-0.0868 0.3954,-0.16614 0.5937,-0.25 0.027,-0.0113 0.067,-0.0202 0.094,-0.0312 0.199,-0.0837 0.3927,-0.16894 0.5938,-0.25 0.027,-0.0109 0.067,-0.0205 0.094,-0.0312 0.4346,-0.17423 0.8414,-0.33586 1.2813,-0.5 0.021,-0.008 0.073,-0.0233 0.094,-0.0312 0.4457,-0.16583 0.8672,-0.34153 1.3125,-0.5 0.016,-0.006 0.046,0.005 0.062,0 0.5607,-0.19932 1.1073,-0.4004 1.6563,-0.59375 -2.2189,-2.67359 -2.5647,-5.87931 -2.5,-8.40625 0.1024,-4.00168 2.0765,-8.79808 5.8124,-8.8125 2.7187,-0.0106 6.4154,3.30089 6.375,10.1875 -0.01,1.17376 -0.058,1.89076 -0.1562,2.4375 0.7652,-0.4135 1.5052,-0.80294 2.2812,-1.15625 0.3296,-0.15002 0.6624,-0.30213 1,-0.4375 0.046,-0.0184 0.1101,-0.0444 0.1563,-0.0625 0.1229,-0.0483 0.2193,-0.0788 0.3437,-0.125 0.4925,-0.18365 1.0112,-0.35193 1.5313,-0.5 0.1758,-0.0501 0.3514,-0.11059 0.5313,-0.15625 0.1802,-0.0457 0.3781,-0.0839 0.5624,-0.125 0.067,-0.82277 0.092,-1.80828 0.125,-3.15625 0.2324,-9.41493 -5.9022,-17.2444 -12.875,-17.46875 -0.1124,-0.003 -0.2307,0 -0.3437,0 -0.1129,0 -0.1993,-0.005 -0.3125,0 z m 33.62498,2.625 c -5.01257,0.005 -10.11059,6.36847 -10.3125,15.625 -0.022,1.0088 -0.0308,1.77481 -0.0312,2.46875 1.3701,0.33169 2.63415,0.83395 3.875,1.5 0.65358,0.35082 1.28738,0.73818 1.9375,1.1875 -0.0312,-0.41166 -0.0312,-0.87479 -0.0312,-1.5625 0,-5.00103 1.97309,-9.00378 4.9375,-9 2.05264,0.003 4.21594,2.60228 4.0625,7.375 -0.0879,2.73501 -0.74572,6.13662 -3.28125,8 0.1088,0.10321 0.2019,0.20705 0.3125,0.3125 1.13756,0.8781 2.1455,1.61953 3.09375,2.3125 3.66782,-3.44852 4.99026,-8.36439 5.09375,-13.96875 0.12414,-6.7175 -3.18712,-14.25666 -9.65625,-14.25 z m -15.74998,19.59375 c -0.3986,0 -0.7844,0.0108 -1.1562,0.0312 -0.2224,0.012 -0.4115,0.0123 -0.625,0.0312 -0.1436,0.0127 -0.2975,0.0469 -0.4376,0.0625 -0.045,0.005 -0.1111,-0.005 -0.1562,0 -0.127,0.0153 -0.2507,0.0449 -0.375,0.0625 -0.054,0.008 -0.1028,0.0228 -0.1562,0.0312 -0.3325,0.0503 -0.6532,0.0893 -0.9688,0.15625 -0.026,0.006 -0.035,0.0259 -0.062,0.0312 -0.083,0.0179 -0.1676,0.0433 -0.25,0.0625 -0.084,0.0196 -0.1671,0.0418 -0.25,0.0625 -0.1651,0.0413 -0.3384,0.0793 -0.5,0.125 -0.1476,0.0418 -0.2924,0.0797 -0.4375,0.125 -0.1727,0.054 -0.3614,0.0974 -0.5312,0.15625 -0.038,0.0132 -0.056,0.0492 -0.094,0.0625 -0.2733,0.0968 -0.5438,0.17245 -0.8125,0.28125 -0.3058,0.12395 -0.6024,0.26791 -0.9063,0.40625 -2.4324,1.10748 -4.8668,2.70975 -8.1874,4.40625 l -0.031,0 -0.062,0.0312 c -3.3965,1.41529 -7.4763,2.52279 -10.625,4.125 -1.5744,0.80113 -2.8933,1.72301 -3.7812,2.78125 -0.8881,1.05818 -1.3956,2.22502 -1.375,3.78125 0.043,3.29469 1.903,6.00731 4.6562,8.21875 2.7532,2.21147 6.3465,3.85666 9.4688,4.84375 l 0.062,0 0.063,0.0312 c 0.5285,0.24635 1.11,0.55939 1.6874,0.90625 0.5775,0.34688 1.1506,0.71655 1.7813,1.125 1.2615,0.81689 2.6535,1.73331 4.1563,2.5625 2.254,1.24379 4.7617,2.31648 7.4687,2.71874 0.2256,0.0335 0.4279,0.0699 0.6563,0.0937 0.6852,0.0717 1.3834,0.0877 2.0937,0.0625 3.56127,-0.12643 5.85555,-0.8253 8.06248,-2.15624 2.20694,-1.33094 4.36755,-3.36828 7.40625,-6.125 l 0.0937,-0.0937 0.125,-0.0625 c 1.44077,-0.7424 2.78499,-1.57675 4,-2.46875 0.6075,-0.44601 1.18708,-0.90602 1.71875,-1.375 0.53166,-0.46894 1.02585,-0.92394 1.46875,-1.40625 1.77149,-1.92918 2.74063,-3.92099 2.75,-5.5625 0.0106,-1.86753 -0.5868,-2.84142 -2.1875,-4.28125 -0.17952,-0.16153 -0.38865,-0.33041 -0.59375,-0.5 -0.077,-0.0637 -0.13817,-0.12249 -0.21875,-0.1875 -0.12789,-0.10314 -0.26946,-0.20563 -0.40625,-0.3125 -0.14731,-0.11496 -0.3111,-0.25518 -0.46875,-0.375 -0.17543,-0.13349 -0.34305,-0.266 -0.53125,-0.40625 -0.29384,-0.21874 -0.61273,-0.44969 -0.9375,-0.6875 -0.73908,-0.54119 -1.571,-1.14648 -2.46875,-1.8125 -0.68016,-0.50462 -1.38594,-1.03043 -2.15625,-1.625 l -0.0625,-0.0312 -0.0312,-0.0312 c -3.06539,-2.92838 -5.35533,-4.86099 -7.59375,-6.0625 -0.92055,-0.4941 -1.83084,-0.8744 -2.8125,-1.15625 -0.13332,-0.0383 -0.27041,-0.0903 -0.40625,-0.125 -0.0799,-0.0203 -0.16912,-0.0119 -0.25,-0.0312 -0.14559,-0.0345 -0.2884,-0.0943 -0.4375,-0.125 -0.17582,-0.0358 -0.38121,-0.0631 -0.5625,-0.0937 -0.19131,-0.0325 -0.36432,-0.067 -0.5625,-0.0937 -0.19818,-0.0268 -0.41922,-0.0412 -0.625,-0.0625 -0.2058,-0.0215 -0.41078,-0.0466 -0.62498,-0.0625 -0.063,-0.004 -0.1231,0.004 -0.1875,0 -0.07,-0.004 -0.1477,-0.0272 -0.2187,-0.0312 -0.3027,-0.0172 -0.6164,-0.0234 -0.9376,-0.0312 -0.2209,-0.005 -0.4436,0 -0.6562,0 z m -25.9062,15.65625 c 0.074,-0.002 0.1351,0.0165 0.2187,0.0312 1.2086,0.21352 2.466,0.80874 3.8437,1.53125 2.0568,1.07846 4.3811,2.52131 6.9063,4 5.0506,2.95739 10.9396,5.94075 16.9375,5.9375 6.20174,-0.003 10.62162,-2.75743 13.90623,-5.5 1.64231,-1.37126 2.99689,-2.75206 4.125,-3.78125 0.56406,-0.51458 1.06301,-0.9286 1.59375,-1.25 0.26754,-0.16196 0.4557,-0.37104 0.875,-0.40625 0.94377,-0.0792 1.06793,1.51068 0,2.28125 -0.28855,0.20821 -0.66206,0.51241 -1.09375,0.90625 -1.05208,0.95984 -2.42018,2.39419 -4.15625,3.84375 -3.47218,2.89914 -8.43422,5.96506 -15.24998,5.96875 -6.6671,0.004 -12.839,-3.21496 -17.9688,-6.21875 -2.5647,-1.50186 -4.8782,-2.95448 -6.8124,-3.96875 -1.2682,-0.66487 -2.3734,-1.0832 -3.2188,-1.28125 -1.04,-0.24362 -1.016,-2.06331 0.094,-2.09375 z m -6.0313,7.1875 c -0.986,4.35172 -2.2423,9.30288 -4.9063,16.81249 -5.3364,15.04353 -10.2587,25.79315 -18.8437,42.75 -3.3803,6.67673 -7.0621,16.33266 -8.875,27.0625 -2.6111,0.006 -4.1173,0.37626 -5.7187,0.71875 -2.0046,-5.25705 -2.358,-8.77539 -2.2188,-12.34375 0.3487,-8.93822 4.1546,-23.18614 15.5,-34.09375 2.4515,-2.35684 1.4404,-3.46979 -0.9688,-1.21875 -9.0114,8.41957 -19.1661,25.8442 -18.7187,40.15625 0.1,3.19825 0.1988,6.29053 0.9063,9.3125 -10.8879,4.63739 -17.2582,10.40181 -16.9376,15.71875 0.093,1.54645 0.1765,2.16705 0.4688,3.125 l 2.4062,0.125 c -0.2237,-1.12117 -0.3445,-2.03938 -0.4062,-2.8125 -0.3496,-4.37284 6.7599,-8.76803 11.875,-11 4.8381,-2.11109 8.0757,-3.04418 11.7188,-3.28125 5.2935,-0.34447 8.9124,2.46874 9.5312,9.65625 11.5441,4.30349 12.6447,16.77079 13.5625,32.53125 0.6649,11.47432 2.6584,12.9471 3.9063,19.21875 3.0462,2.08033 6.692,4.64266 10.8437,6.46875 6.3269,2.7828 11.6631,5.11504 24.2187,5.59375 10.55114,0.40232 19.50749,-2.81931 26.93753,-8.34375 2.74657,-3.9269 5.49619,-7.80211 7.625,-10.34375 -7.39323,-0.34229 -9.51256,-4.20879 -9.34375,-7.71875 0.31109,-6.46896 5.82782,-12.8854 11.40625,-18.0625 6.65488,-6.17603 13.15973,-9.24303 16.625,-11.96875 6.44596,-5.07019 11.40271,-11.63142 11.59375,-23.40625 0.21529,-13.26854 -7.33065,-27.56262 -14.125,-38.71875 -0.89,-1.46135 -1.6261,-3.15424 -2.15625,-3 -0.44995,0.13089 0.34135,2.21782 1.03125,3.59375 4.78077,9.53401 10.83696,19.24547 11.28125,33.3125 0.25125,7.95386 -2.4666,13.78758 -5.875,18.625 -0.25014,-14.22573 -4.01934,-25.81777 -8.46875,-35.25 -7.73421,-16.39588 -15.736,-34.7605 -18.375,-46.46875 -1.06821,-4.73918 -1.45476,-8.68578 -1.625,-11.99999 -0.18181,0.14297 -0.37501,0.26614 -0.5625,0.40625 -0.12445,0.0928 -0.24806,0.18979 -0.375,0.28125 -0.12624,0.0912 -0.24638,0.19142 -0.375,0.28125 -0.11113,0.0775 -0.23084,0.17359 -0.34375,0.25 -0.021,0.0142 -0.0415,0.0171 -0.0625,0.0312 -0.10068,0.0678 -0.17924,0.12058 -0.28125,0.1875 -0.12796,0.0842 -0.27626,0.16715 -0.40625,0.25 -0.13155,0.0836 -0.24147,0.16791 -0.375,0.25 -0.2505,0.15456 -0.52395,0.31962 -0.78125,0.46875 -0.20943,0.12112 -0.41148,0.22638 -0.625,0.34375 -0.22012,0.12119 -0.4631,0.25799 -0.6875,0.375 -2.97619,2.702 -5.16512,4.76652 -7.625,6.24999 -2.48459,1.49839 -5.21988,2.33345 -9.03128,2.46875 -0.8102,0.0288 -1.6015,-0.013 -2.375,-0.0937 -0.2576,-0.0267 -0.5277,-0.0564 -0.7812,-0.0937 -3.0426,-0.44844 -5.7776,-1.62506 -8.1562,-2.9375 -3.1576,-1.74215 -5.7696,-3.70157 -7.4688,-4.49999 -3.2839,-1.04757 -7.014,-2.73258 -10.0312,-5.15625 -0.1904,-0.1529 -0.3781,-0.30929 -0.5626,-0.46875 -0.022,-0.0186 -0.041,-0.0438 -0.062,-0.0625 -0.1624,-0.14167 -0.3117,-0.29073 -0.4688,-0.4375 -0.1223,-0.11411 -0.2561,-0.22652 -0.375,-0.34375 -0.054,-0.0532 -0.103,-0.10236 -0.1562,-0.15625 -0.1006,-0.10182 -0.2147,-0.20842 -0.3126,-0.3125 -0.068,-0.0722 -0.121,-0.14551 -0.1874,-0.21875 -0.079,-0.0873 -0.173,-0.19241 -0.25,-0.28125 -0.019,-0.0217 -0.013,-0.0408 -0.031,-0.0625 -0.1221,-0.14224 -0.2586,-0.29134 -0.375,-0.4375 -0.092,-0.11585 -0.1927,-0.22546 -0.2813,-0.34375 -0.041,-0.0543 -0.054,-0.10144 -0.094,-0.15625 -0.1,-0.13766 -0.2179,-0.26536 -0.3125,-0.40625 -0.025,-0.037 -0.037,-0.0878 -0.062,-0.125 z m -25.0625,104.65624 c -0.7468,7.53051 -4.5369,16.06233 -12.7188,15.96875 -7.318,-0.0837 -14.175,-4.96425 -17.9687,-9 -13.1516,-1.31507 -15.1726,5.39768 -16.6875,11.84375 -0.8372,3.56232 -1.5941,7.99857 -3.3438,11.125 -1.4799,2.64452 -8.8771,8.96134 -8.9062,15.1875 -0.032,6.89257 11.59,9.47325 23.4375,16.53125 2.655,1.58169 6.8959,4.84462 9,7.25 5.142,5.87834 13.7034,15.22721 26.8125,15.5 10.6491,0.22164 17.6513,-8.01305 18.0938,-17.3125 0.3234,-6.7987 -2.603,-14.15184 -4.2813,-20.09375 -1.6339,-5.78489 -3.1253,-11.89643 -3.4063,-17.78125 -0.6093,-12.75759 -1.7625,-25.82984 -10.0312,-29.21875 z m 124.62498,0.46875 c -4.50505,0.0608 -8.97738,2.35307 -13.28125,8.34375 -7.61292,10.59676 -8.52128,15.8513 -12.125,21.84375 -6.45835,10.73937 -20.93594,23.26455 -20.9375,33.9375 0,6.76057 3.85341,16.84956 19.15625,16.625 14.40478,-0.21138 20.05838,-6.44519 30.3125,-9.25 16.5217,-4.51909 33.35479,-0.62556 33.25,-12.3125 -0.0614,-6.8519 -2.83701,-9.39431 -2.9375,-14.40625 -0.12388,-6.18149 1.59891,-9.94548 1.5,-14.875 -0.23068,-11.50199 -11.40562,-10.20944 -17.59375,-14.65625 -5.85339,-4.20625 -9.0907,-15.01817 -16.96875,-15.25 -0.12503,-0.004 -0.2476,-0.003 -0.375,0 z"
         style="font-size:medium;font-style:normal;font-variant:normal;font-weight:normal;font-stretch:normal;text-indent:0;text-align:start;text-decoration:none;line-height:normal;letter-spacing:normal;word-spacing:normal;text-transform:none;direction:ltr;block-progression:tb;writing-mode:lr-tb;text-anchor:start;baseline-shift:baseline;color:#000000;fill:#ffffff;fill-opacity:1;stroke:none;stroke-width:8;marker:none;visibility:visible;display:inline;overflow:visible;enable-background:accumulate;font-family:Sans;-inkscape-font-specification:Sans"
         inkscape:connector-curvature="0" />
    </g>
  </g>
</svg>
