<?xml version="1.0" encoding="UTF-8" standalone="no"?>
<!-- Created with Inkscape (http://www.inkscape.org/) -->

<svg
   xmlns:dc="http://purl.org/dc/elements/1.1/"
   xmlns:cc="http://creativecommons.org/ns#"
   xmlns:rdf="http://www.w3.org/1999/02/22-rdf-syntax-ns#"
   xmlns:svg="http://www.w3.org/2000/svg"
   xmlns="http://www.w3.org/2000/svg"
   xmlns:sodipodi="http://sodipodi.sourceforge.net/DTD/sodipodi-0.dtd"
   xmlns:inkscape="http://www.inkscape.org/namespaces/inkscape"
   width="496.69"
   height="291.44"
   id="svg3253"
   version="1.1"
   inkscape:version="0.48.2 r9819"
   sodipodi:docname="kansasLinuxFest2015_white.svg">
  <defs
     id="defs3255" />
  <sodipodi:namedview
     id="base"
     pagecolor="#000000"
     bordercolor="#666666"
     borderopacity="1.0"
     inkscape:pageopacity="0"
     inkscape:pageshadow="2"
     inkscape:zoom="2.8444963"
     inkscape:cx="248.345"
     inkscape:cy="145.72"
     inkscape:document-units="px"
     inkscape:current-layer="layer1"
     showgrid="false"
     fit-margin-top="0"
     fit-margin-left="0"
     fit-margin-right="0"
     fit-margin-bottom="0" />
  <metadata
     id="metadata3258">
    <rdf:RDF>
      <cc:Work
         rdf:about="">
        <dc:format>image/svg+xml</dc:format>
        <dc:type
           rdf:resource="http://purl.org/dc/dcmitype/StillImage" />
        <dc:title></dc:title>
      </cc:Work>
    </rdf:RDF>
  </metadata>
  <g
     inkscape:label="Layer 1"
     inkscape:groupmode="layer"
     id="layer1"
     transform="translate(707.08793,-448.46644)">
    <rect
       style="color:#000000;fill:#ffffff;fill-opacity:1;fill-rule:evenodd;stroke:none;stroke-width:1px;marker:none;visibility:visible;display:inline;overflow:visible;enable-background:accumulate"
       id="rect3336"
       width="500.88501"
       height="297.84299"
       x="-707.08545"
       y="442.06494" />
    <g
       transform="translate(-118.79086,394.48189)"
       id="g4246">
      <path
         sodipodi:nodetypes="csccccccccccccccccccccssccccccccsscccsccccsscccccccsccscccssccccccccccccsccccsccccssccccccsssccccccccsscccsccscccccsccscsccccccccccccsccccccccscc"
         inkscape:connector-curvature="0"
         id="path2439-6-8-9-8"
         d="m -548.24069,79.307159 c -0.67136,7e-5 -1.33858,0.276474 -1.81328,0.751202 -0.47476,0.474729 -0.75116,1.141953 -0.75121,1.813307 l 0,115.956762 c 1.63013,-3.15332 3.36409,-6.14747 5.129,-8.96238 l 0,-104.429896 37.23532,0 c 0.002,-0.0057 0.005,-0.01109 0.007,-0.01675 0.60114,-1.687398 1.29288,-3.400351 2.11036,-5.11229 z m 50.61881,0 c -1.01158,1.655355 -1.85049,3.367128 -2.58121,5.128995 l 67.54518,0 c -0.75859,-1.794005 -1.66545,-3.49188 -2.74148,-5.128995 z m 70.97784,0 c 0.80241,1.651933 1.49209,3.358798 2.08367,5.128995 l 275.04584,0 c 1.16831,1.243699 2.41442,2.131995 3.65977,2.978573 0.006,0.0042 0.0106,0.009 0.0168,0.01321 2.15585,1.494241 3.54453,2.972885 6.55819,4.320926 0.52324,0.233648 0.98697,0.675224 1.8499,1.365737 0.86293,0.690514 2.34467,1.586101 4.15731,1.586101 1.08424,0 2.13228,-0.513001 2.74146,-1.048489 0.60918,-0.535488 0.92114,-1.035417 1.15203,-1.365737 0.10712,-0.153257 0.0962,-0.133129 0.15693,-0.210359 0.4668,0.01203 0.84597,0.03542 1.15871,0.07345 l 0,1.018451 c -9e-5,0.616304 0.23108,1.229942 0.63778,1.692991 0.83246,0.946908 1.74447,1.488153 2.32409,1.836548 0.20514,0.123313 0.33249,0.2063 0.47083,0.297192 l 0,2.494359 c -0.31911,-0.08226 -0.66151,-0.143582 -1.04183,-0.143582 -1.21888,0 -2.66119,0.809955 -3.25571,1.733035 -0.59453,0.9231 -0.68511,1.68003 -0.79141,2.27732 -0.19929,1.11994 -0.42891,1.59122 -0.31723,1.5227 -0.61982,0.53848 -1.57064,1.04374 -2.65797,1.91333 -1.10182,0.88119 -2.37083,2.58204 -2.37083,4.62812 l 0,1.03516 c -0.20947,0.0716 -0.42176,0.1441 -0.66784,0.27046 -0.0102,0.005 -0.0201,0.0111 -0.0301,0.0168 -1.0445,0.5546 -1.72282,1.78372 -1.87662,2.58119 -0.15384,0.79748 -0.0902,1.30024 -0.0902,1.59278 0,1.21857 0.49325,2.37484 1.02178,3.1088 0.52855,0.73395 1.0117,1.15984 1.3457,1.53603 0.002,0.002 0.004,0.004 0.007,0.007 1.07225,1.19933 1.86751,2.87791 4.16397,4.2608 0.006,0.004 0.0109,0.006 0.0168,0.0101 1.10932,0.68381 1.37291,1.46127 2.98523,3.09544 0.002,0.002 0.004,0.004 0.007,0.007 0.79981,0.81458 1.61607,1.17491 2.26729,1.39244 -0.2671,0.51057 -0.51757,1.17393 -0.51757,1.98346 0,1.33823 0.89459,2.41815 1.26557,2.77822 0.1302,0.12638 0.144,0.14691 0.17364,0.18032 0.0964,0.31048 0.16654,0.65524 0.38065,1.27223 0.25295,0.72888 0.82098,1.74818 1.72971,2.45431 0.002,0.002 0.004,0.004 0.007,0.007 0.57473,0.44311 0.97327,0.69882 1.20213,0.85484 -0.0251,0.21397 -0.0534,0.49131 -0.0534,0.98173 0,1.66935 1.15868,3.15248 2.09032,3.79665 0.93164,0.64419 1.69967,0.93138 2.15045,1.1988 2.00547,1.18692 3.38348,1.70493 5.56977,2.32073 l 0,0.003 c 0.002,0.002 0.004,-0.002 0.007,0 0.86496,0.24396 1.75746,0.088 2.13039,-0.0101 0.15095,-0.0397 0.19295,-0.049 0.22374,-0.0568 0.0763,0.004 0.13785,0.0248 0.39403,0.2037 0.12211,0.0853 0.41989,0.33483 0.59771,0.48417 l 0,159.89725 -236.28117,0 c -0.0334,1.83393 -0.33235,3.55714 -0.86484,5.12897 l 239.71052,0 c 0.67135,-7e-5 1.33856,-0.27645 1.81331,-0.7512 0.4747,-0.47471 0.75113,-1.14193 0.75118,-1.81329 l 0,-163.68053 c 0,-0.78434 -0.38245,-1.55994 -1.00512,-2.03691 -0.44993,-0.3445 -0.98252,-0.87116 -1.78643,-1.43251 -0.80394,-0.56135 -2.00979,-1.13865 -3.39932,-1.13865 -0.59242,0 -0.98471,0.10373 -1.22548,0.17362 -1.7706,-0.5037 -2.37027,-0.72966 -4.02038,-1.70632 l 0,0.003 c -0.7997,-0.4743 -1.39795,-0.75259 -1.69297,-0.92161 0.0253,-0.21494 0.0534,-0.49122 0.0534,-0.99509 0,-1.44144 -0.88964,-2.77409 -1.62286,-3.40597 -0.72966,-0.62886 -1.2929,-0.91782 -1.60281,-1.15536 -0.002,-0.002 -0.005,-0.002 -0.007,-0.003 0,-0.008 -0.004,-0.0281 -0.0234,-0.0835 -0.075,-0.21617 -0.1915,-0.81237 -0.49754,-1.62619 -0.004,-0.0111 -0.009,-0.0222 -0.0135,-0.0334 -0.19247,-0.48957 -0.43761,-0.84828 -0.66784,-1.12865 0.33285,-0.52071 0.76135,-1.36673 0.76135,-2.42425 0,-1.02827 -0.54066,-2.21562 -1.24219,-2.84832 -0.70153,-0.63271 -1.35186,-0.84722 -1.83655,-1.01513 -0.96939,-0.33579 -1.36357,-0.55106 -1.25889,-0.4441 -0.003,-0.002 -0.007,-0.004 -0.0102,-0.007 -1.08527,-1.09886 -1.80828,-2.55688 -3.987,-3.88683 -0.005,-0.003 -0.0111,-0.007 -0.0168,-0.0101 -1.12805,-0.67631 -1.41623,-1.52546 -2.98858,-3.28577 -0.003,-0.004 -0.003,-0.003 -0.007,-0.007 -0.41815,-0.47055 -0.64394,-0.70533 -0.81475,-0.90158 0.27518,-0.0648 0.59915,-0.18428 0.99172,-0.43074 0.76201,-0.47848 1.41916,-1.73731 1.41916,-2.60458 l 0,-2.79157 c 0,-0.3812 -0.0888,-0.19224 0.44747,-0.62112 0.53622,-0.42884 1.66605,-1.029 2.87171,-2.09365 1.37244,-1.21041 1.69252,-2.6404 1.83655,-3.64641 0.4617,0.19353 1.03824,0.36064 1.70632,0.36064 l 1.76309,0 c 0.5875,-0.002 1.17256,-0.21104 1.62619,-0.58433 0.85144,-0.69892 1.4492,-2.11298 1.4492,-3.11885 0,-1.42405 -0.85507,-2.383721 -1.26552,-2.794881 l 0,-3.092093 c 0,-0.614771 -0.22969,-1.226946 -0.63448,-1.68964 -0.83166,-0.947782 -1.74384,-1.491127 -2.32406,-1.839876 -0.20588,-0.123761 -0.33528,-0.209297 -0.47417,-0.300543 l 0,-0.68117 c 0,-1.022934 -0.45887,-2.149101 -1.15202,-2.844995 -0.69318,-0.695965 -1.46449,-1.010523 -2.14042,-1.202123 -1.35184,-0.383175 -2.54705,-0.340608 -3.45942,-0.340608 -1.08426,0 -2.13562,0.516375 -2.7448,1.051863 -0.6092,0.535464 -0.92114,1.035417 -1.15203,1.365714 -0.0786,0.112459 -0.0583,0.08162 -0.11352,0.15361 -0.11692,-0.06078 -0.25113,-0.172794 -0.52761,-0.39403 -0.5604,-0.448419 -1.47116,-1.373902 -2.96186,-2.040253 l -0.003,0 c -2.26444,-1.013496 -3.19377,-2.101815 -5.75006,-3.870101 -0.005,-0.0033 -0.0111,-0.0068 -0.0168,-0.01015 -1.53018,-1.039971 -2.45835,-1.700542 -3.36925,-2.881735 -0.47699,-0.618451 -1.2492,-0.998206 -2.03022,-0.998418 z M -545.67618,205.01771 c -2.02773,4.31468 -3.79863,8.87923 -5.129,13.6406 l 0,23.39439 c 0.92593,-1.47723 2.12471,-2.85903 3.50613,-4.1306 0.51232,-0.47154 1.05338,-0.93497 1.62287,-1.3891 z m 53.47381,103.66524 c 0.29488,1.67239 0.49719,3.38756 0.54427,5.129 l 52.85607,0 c -0.005,-0.18547 -0.007,-0.36923 -0.007,-0.55097 0,-1.5652 0.21178,-3.08976 0.58771,-4.57803 l -2.79825,0 c -5.97765,2.58232 -12.66396,3.94174 -19.9717,3.66309 -9.3443,-0.35627 -15.22587,-1.82921 -20.14533,-3.66309 z"
         style="font-size:medium;font-style:normal;font-variant:normal;font-weight:normal;font-stretch:normal;text-indent:0;text-align:start;text-decoration:none;line-height:normal;letter-spacing:normal;word-spacing:normal;text-transform:none;direction:ltr;block-progression:tb;writing-mode:lr-tb;text-anchor:start;baseline-shift:baseline;color:#000000;fill:#000000;fill-opacity:1;stroke:none;stroke-width:48;marker:none;visibility:visible;display:inline;overflow:visible;enable-background:accumulate;font-family:Sans;-inkscape-font-specification:Sans" />
      <path
         sodipodi:nodetypes="sssssssscssssssscscsssscssscsssssssscsccccccccccccccsccccccsccsccsccsccsscccsscsccccccccccccccscccscsscccsssccsscccsssccccccccccccsccccccscscccccssssscccsssssccssscsssscscccsscccssccsssssscscssccccccccccccsscssccccccccccccccccsssssssssssscccsccsssssscssc"
         inkscape:connector-curvature="0"
         id="path3790-1-7-8-6-4"
         d="m -468.33835,60.92369 c 12.02723,-0.02265 24.61181,3.293438 31.529,10.509643 9.45807,9.866981 11.69322,21.264047 11.50979,38.989797 -0.0534,5.16085 -0.64585,10.77586 -0.91145,17.14775 -0.42772,10.26387 1.62476,20.71992 5.03303,28.72209 1.58113,3.71229 3.80961,7.92179 6.97688,12.15507 4.20528,5.62064 7.02219,7.48402 16.48637,22.35017 2.64197,4.15002 6.54487,10.32524 9.42885,16.62349 5.4658,11.93663 11.00811,26.85904 8.62227,41.91764 5.80103,5.90823 6.34275,8.34898 8.8481,10.87262 2.44877,2.46666 6.42742,3.37223 10.30802,4.93624 5.29379,2.13355 10.3284,5.33758 10.34027,13.96176 0.008,5.98853 -1.49906,9.14865 -1.37924,14.47803 0.11017,4.90113 2.75977,7.01528 2.85526,14.55867 0.19705,15.56492 -19.92421,12.33642 -34.38426,15.67172 -11.6182,2.67985 -15.89578,9.5218 -32.9969,9.67887 -12.0566,0.11081 -17.9767,-5.7393 -20.55957,-11.70336 -5.28152,0.36555 -18.71461,-3.35531 -28.10908,-3.50859 -6.14235,-0.10023 -16.79558,2.85972 -27.65742,2.30677 -2.93558,9.93369 -10.61004,16.17191 -21.50328,16.00242 -11.01243,-0.17126 -19.96308,-6.92484 -23.8665,-10.90485 -2.28145,-2.32622 -4.87197,-6.1151 -9.29174,-9.34011 -14.03165,-10.23862 -29.23792,-11.66207 -29.40769,-22.76154 -0.0991,-6.47813 7.7658,-14.25733 8.94494,-15.76854 0.76147,-0.97588 1.99262,-4.28435 2.91977,-8.92071 0.94788,-4.73983 2.19441,-7.79485 3.07306,-9.42078 0.68808,-1.27331 1.97607,-2.94139 3.01656,-3.79894 2.02149,-1.66597 3.97496,-2.33112 4.35552,-2.74235 -0.29746,-0.4042 -3.15276,-9.40502 -3.05689,-17.08323 0.37187,-29.78273 20.97407,-54.4291 30.35134,-65.90517 15.72212,-19.24105 18.48791,-27.92268 17.58331,-47.28138 -0.24722,-5.29046 -0.13743,-10.70428 0.30651,-15.90562 0.71376,-8.362691 2.02275,-15.046759 4.16191,-21.051568 2.23183,-6.264884 5.55389,-12.483214 12.24379,-17.688165 5.89523,-4.586688 13.68189,-7.077838 24.22947,-7.097847 z m -5.46052,38.013822 c -0.1129,0 -0.2255,0.0035 -0.33872,0.008 -3.54846,0.137848 -13.95006,3.874518 -13.88116,17.663978 0.0309,6.18256 2.08021,9.91104 4.28292,12.91323 0.184,-0.0926 0.3688,-0.18497 0.55653,-0.27423 0.0293,-0.0139 0.0593,-0.0265 0.0887,-0.0403 0.21862,-0.10304 0.43858,-0.19955 0.66142,-0.29842 0.19559,-0.0868 0.39049,-0.17423 0.5888,-0.25809 0.0266,-0.0113 0.054,-0.0212 0.0806,-0.0323 0.19901,-0.0837 0.4039,-0.16899 0.60493,-0.25005 0.0269,-0.0109 0.0538,-0.0215 0.0807,-0.0323 0.43466,-0.17423 0.8667,-0.34395 1.30663,-0.50809 0.0215,-0.008 0.043,-0.0163 0.0645,-0.0243 0.44573,-0.16583 0.8937,-0.32548 1.33896,-0.48395 0.0163,-0.006 0.032,-0.0104 0.0484,-0.0158 0.56062,-0.19932 1.10446,-0.3874 1.65349,-0.58075 -2.21881,-2.67359 -2.55698,-5.89367 -2.49233,-8.42061 0.10245,-4.00168 2.06333,-8.78532 5.79926,-8.79974 2.71869,-0.0106 6.42836,3.28431 6.38808,10.17092 -0.007,1.17376 -0.0714,1.90522 -0.16937,2.45196 0.7652,-0.4135 1.52272,-0.80816 2.29872,-1.16147 0.32955,-0.15002 0.66239,-0.29209 1.00015,-0.42746 0.0457,-0.0184 0.0912,-0.0384 0.13711,-0.0565 0.12298,-0.0483 0.24667,-0.099 0.37105,-0.14518 0.49254,-0.18365 0.99634,-0.34396 1.51635,-0.49203 0.17588,-0.0501 0.3526,-0.0995 0.53233,-0.14516 0.18025,-0.0457 0.36404,-0.088 0.54846,-0.12907 0.0671,-0.82277 0.12001,-1.80573 0.15326,-3.1537 0.23225,-9.41493 -5.90816,-17.246027 -12.88095,-17.470378 -0.11248,-0.0035 -0.22584,-0.008 -0.33882,-0.008 z m 33.29538,2.613308 c -5.01257,0.005 -10.10608,6.38293 -10.30799,15.63946 -0.022,1.0088 -0.0399,1.78223 -0.0403,2.47617 1.3701,0.33169 2.63879,0.81 3.87964,1.47605 0.65358,0.35082 1.30174,0.75247 1.95186,1.20179 -0.0312,-0.41166 -0.0484,-0.87706 -0.0484,-1.56477 0,-5.00103 1.98792,-8.99707 4.95233,-8.99329 2.05264,0.003 4.19438,2.59129 4.04094,7.36401 -0.0879,2.73501 -0.73915,6.13784 -3.27468,8.00122 0.1088,0.10321 0.21203,0.20104 0.32263,0.30649 1.13756,0.8781 2.14091,1.62192 3.08916,2.31489 3.66782,-3.44852 4.97789,-8.34132 5.08138,-13.94568 0.12414,-6.7175 -3.17746,-14.283 -9.64659,-14.27634 z m -15.73623,19.59972 c -0.39856,0 -0.7816,0.0118 -1.1534,0.0323 -0.22216,0.012 -0.43969,0.0295 -0.65333,0.0484 -0.14358,0.0127 -0.28744,0.0248 -0.42751,0.0404 -0.0452,0.005 -0.0922,0.0109 -0.13712,0.0158 -0.12699,0.0153 -0.25476,0.0308 -0.37907,0.0484 -0.054,0.008 -0.10778,0.0158 -0.16132,0.0243 -0.33245,0.0503 -0.65234,0.11045 -0.96789,0.17744 -0.0265,0.006 -0.0542,0.0104 -0.0807,0.0158 -0.0833,0.0179 -0.16772,0.0372 -0.25005,0.0564 -0.0838,0.0196 -0.16713,0.0438 -0.25004,0.0645 -0.16508,0.0413 -0.33039,0.0833 -0.49198,0.12904 -0.14759,0.0418 -0.29049,0.0837 -0.43558,0.12905 -0.1727,0.054 -0.34634,0.11052 -0.51619,0.1694 -0.0376,0.0132 -0.0754,0.027 -0.11293,0.0403 -0.27336,0.0968 -0.54594,0.19769 -0.81463,0.30649 -0.3058,0.12395 -0.60759,0.25689 -0.91144,0.39523 -2.43249,1.10748 -4.86597,2.69932 -8.18671,4.39582 l -0.0323,0.0158 -0.0403,0.016 c -3.39652,1.41529 -7.49798,2.54356 -10.64675,4.14577 -1.57443,0.80113 -2.89476,1.70835 -3.78285,2.76659 -0.88801,1.05818 -1.38362,2.23466 -1.36312,3.79089 0.0434,3.29469 1.91692,5.99945 4.67008,8.21089 2.75318,2.21147 6.347,3.84429 9.46915,4.83138 l 0.0645,0.0243 0.0645,0.0242 c 0.5286,0.24635 1.08417,0.55652 1.66157,0.90338 0.57737,0.34688 1.17597,0.72883 1.80672,1.13728 1.26149,0.81689 2.63487,1.71958 4.1377,2.54877 2.25422,1.24379 4.75382,2.31588 7.4608,2.71814 0.2256,0.0335 0.44913,0.0648 0.67752,0.0887 0.68534,0.0717 1.38683,0.0978 2.09712,0.0726 3.56125,-0.12643 5.84268,-0.83066 8.04961,-2.16161 2.20694,-1.33094 4.35757,-3.3571 7.39627,-6.11382 l 0.0968,-0.0887 0.121,-0.0645 c 1.44077,-0.7424 2.79365,-1.57612 4.00866,-2.46812 0.6075,-0.44601 1.17826,-0.91028 1.70993,-1.37926 0.53166,-0.46894 1.02508,-0.94532 1.46798,-1.42763 1.77149,-1.92918 2.74105,-3.89966 2.75042,-5.54117 0.0106,-1.86753 -0.57709,-2.85113 -2.17779,-4.29096 -0.17952,-0.16153 -0.37563,-0.3305 -0.58073,-0.50009 -0.077,-0.0637 -0.16135,-0.12857 -0.24193,-0.19358 -0.12789,-0.10314 -0.25844,-0.20767 -0.39523,-0.31454 -0.14731,-0.11496 -0.30212,-0.23508 -0.45977,-0.3549 -0.17543,-0.13349 -0.36026,-0.2711 -0.54846,-0.41135 -0.29384,-0.21874 -0.60279,-0.44778 -0.92756,-0.68559 -0.73908,-0.54119 -1.5623,-1.1407 -2.46005,-1.80672 -0.68016,-0.50462 -1.39939,-1.04278 -2.1697,-1.63735 l -0.0484,-0.0323 -0.0403,-0.0403 c -3.06539,-2.92838 -5.34339,-4.85587 -7.58181,-6.05738 -0.92055,-0.4941 -1.84129,-0.87152 -2.82295,-1.15337 -0.13332,-0.0383 -0.26749,-0.0782 -0.40333,-0.11293 -0.0799,-0.0203 -0.16107,-0.0372 -0.24195,-0.0565 -0.14559,-0.0345 -0.28646,-0.0661 -0.43556,-0.0968 -0.008,-0.003 -0.016,-0.006 -0.0243,-0.008 -0.17582,-0.0358 -0.35909,-0.0662 -0.54038,-0.0968 -0.19131,-0.0325 -0.38256,-0.0619 -0.58074,-0.0887 -0.19818,-0.0268 -0.4072,-0.0513 -0.61298,-0.0726 -0.2058,-0.0215 -0.41493,-0.0405 -0.62916,-0.0564 -0.0635,-0.004 -0.12924,-0.012 -0.19358,-0.016 -0.0701,-0.004 -0.14675,-0.004 -0.21777,-0.008 -0.30267,-0.0172 -0.60632,-0.0326 -0.92754,-0.0404 -0.22095,-0.005 -0.44077,-0.008 -0.65332,-0.008 z m -25.68939,15.68789 c 1.20866,0.21352 2.46939,0.80188 3.84736,1.52439 2.05669,1.07846 4.37099,2.54613 6.89619,4.02482 5.05052,2.95739 10.93211,5.91543 16.93,5.91218 6.20172,-0.003 10.63685,-2.75019 13.92146,-5.49276 1.64231,-1.37126 2.97737,-2.73751 4.10548,-3.7667 0.56406,-0.51458 1.0743,-0.94493 1.60504,-1.26633 0.26754,-0.16196 0.45989,-0.35193 0.87919,-0.38714 0.94377,-0.0792 1.06793,1.50397 0,2.27454 -0.28855,0.20821 -0.66524,0.51758 -1.09693,0.91142 -1.05208,0.95984 -2.43391,2.37359 -4.16998,3.82315 -3.47218,2.89914 -8.42852,5.96497 -15.24426,5.96866 -6.6671,0.004 -12.84881,-3.19071 -17.97851,-6.1945 -2.56487,-1.50186 -4.87312,-2.9702 -6.8075,-3.98447 -1.26805,-0.66487 -2.37284,-1.0844 -3.21824,-1.28245 -1.10929,-0.25986 -1.00729,-2.3012 0.3307,-2.06481 z m -6.25903,7.16238 c -0.98591,4.35172 -2.25613,9.29129 -4.92008,16.80091 -5.33645,15.04353 -10.2485,25.79963 -18.83349,42.75648 -3.38032,6.67673 -7.05141,16.32267 -8.86427,27.05251 -2.61113,0.006 -4.13331,0.37532 -5.73473,0.71781 -2.00446,-5.25705 -2.35724,-8.74798 -2.21807,-12.31634 0.3487,-8.93822 4.16503,-23.1863 15.51042,-34.09391 2.45143,-2.35684 1.43329,-3.48506 -0.97598,-1.23402 -9.01137,8.41957 -19.15188,25.83919 -18.70442,40.15124 0.1,3.19825 0.20398,6.29393 0.91144,9.3159 -10.88786,4.63739 -17.26681,10.39513 -16.94614,15.71207 0.0933,1.54645 0.15934,2.17156 0.45167,3.12951 l 2.41168,0.12905 c -0.22381,-1.12117 -0.32534,-2.03377 -0.38714,-2.80689 -0.34955,-4.37284 6.7496,-8.77774 11.86467,-11.00971 4.83803,-2.11109 8.08459,-3.0215 11.7276,-3.25857 5.29355,-0.34447 8.89879,2.45911 9.51755,9.64662 11.54409,4.30349 12.64071,16.76061 13.55853,32.52107 0.66486,11.47432 2.66408,12.95705 3.91186,19.2287 3.04637,2.08033 6.6967,4.62653 10.84841,6.45262 6.32692,2.7828 11.65769,5.12697 24.21337,5.60568 10.55107,0.40232 19.49337,-2.81552 26.92341,-8.33996 2.74657,-3.9269 5.50141,-7.82284 7.63022,-10.36448 -7.39323,-0.34229 -9.4928,-4.18478 -9.32399,-7.69474 0.31109,-6.46896 5.81842,-12.89822 11.39685,-18.07532 6.65488,-6.17603 13.16629,-9.24384 16.63156,-11.96956 6.44596,-5.07019 11.40749,-11.62387 11.59853,-23.3987 0.21529,-13.26854 -7.34488,-27.56749 -14.13923,-38.72362 -0.89,-1.46135 -1.62339,-3.14662 -2.15354,-2.99238 -0.44995,0.13089 0.35054,2.20527 1.04044,3.5812 4.78077,9.53401 10.83164,19.24448 11.27593,33.31151 0.25125,7.95386 -2.45538,13.80249 -5.86378,18.63991 -0.25014,-14.22573 -4.02772,-25.83117 -8.47713,-35.2634 -7.73421,-16.39588 -15.7347,-34.76654 -18.3737,-46.47479 -1.06821,-4.73919 -1.45906,-8.67956 -1.6293,-11.99377 -0.18181,0.14297 -0.36905,0.28738 -0.55654,0.42749 -0.12445,0.0928 -0.25215,0.18278 -0.37909,0.27424 -0.12624,0.0912 -0.25048,0.18438 -0.3791,0.27421 -0.11113,0.0775 -0.21779,0.15752 -0.3307,0.23393 -0.021,0.0142 -0.0435,0.0262 -0.0645,0.0403 -0.10068,0.0678 -0.20446,0.13473 -0.30647,0.20165 -0.12796,0.0842 -0.25717,0.16718 -0.38716,0.25003 -0.13155,0.0836 -0.2617,0.16795 -0.39523,0.25004 -0.2505,0.15456 -0.50894,0.30255 -0.76624,0.45168 -0.20943,0.12112 -0.42369,0.23754 -0.63721,0.35491 -0.22012,0.12119 -0.43697,0.24594 -0.66137,0.36295 -2.97619,2.702 -5.17836,4.79167 -7.63824,6.27515 -2.48459,1.49839 -5.23039,2.31668 -9.04171,2.45198 -0.81034,0.0288 -1.60602,0 -2.37938,-0.0807 -0.25779,-0.0267 -0.51274,-0.0594 -0.76626,-0.0968 -3.04261,-0.44844 -5.77578,-1.63961 -8.15447,-2.95205 -3.1575,-1.74216 -5.76165,-3.71033 -7.46078,-4.50875 -3.28398,-1.04757 -7.02449,-2.73034 -10.04183,-5.15401 -0.19039,-0.1529 -0.3802,-0.30835 -0.56465,-0.46781 -0.0217,-0.0186 -0.043,-0.0377 -0.0645,-0.0564 -0.16241,-0.14167 -0.31876,-0.28879 -0.47586,-0.43556 -0.1223,-0.11411 -0.2441,-0.22961 -0.36298,-0.34684 -0.0539,-0.0532 -0.10814,-0.10741 -0.16133,-0.1613 -0.10061,-0.10182 -0.20059,-0.20243 -0.29839,-0.30651 -0.0678,-0.0722 -0.1353,-0.14451 -0.20165,-0.21775 -0.0792,-0.0873 -0.15682,-0.17734 -0.23391,-0.26618 -0.0189,-0.0217 -0.0378,-0.0428 -0.0564,-0.0645 -0.12211,-0.14224 -0.23849,-0.2894 -0.35491,-0.43556 -0.0922,-0.11585 -0.1858,-0.2285 -0.27426,-0.34679 -0.0407,-0.0543 -0.0812,-0.10651 -0.12097,-0.16132 -0.0999,-0.13766 -0.19576,-0.27853 -0.29038,-0.41942 -0.0248,-0.037 -0.0481,-0.0757 -0.0726,-0.11291 z m -25.06022,104.66906 c -0.74689,7.53051 -4.52987,16.0557 -12.7116,15.96212 -7.31819,-0.0837 -14.19291,-4.95757 -17.98661,-8.99332 -13.15159,-1.31507 -15.16507,5.38639 -16.67995,11.83246 -0.83717,3.56232 -1.58153,7.98815 -3.33113,11.11458 -1.47989,2.64452 -8.89968,8.9616 -8.9288,15.18776 -0.0322,6.89257 11.61573,9.49294 23.46327,16.55094 2.655,1.58169 6.88916,4.82958 8.99327,7.23496 5.14204,5.87834 13.68529,15.24567 26.79438,15.51846 10.6491,0.22164 17.67318,-8.04185 18.11566,-17.3413 0.32348,-6.7987 -2.62077,-14.13375 -4.29903,-20.07566 -1.63393,-5.78489 -3.10656,-11.9082 -3.38761,-17.79302 -0.60932,-12.75759 -1.7732,-25.80907 -10.04185,-29.19798 z m 125.00278,0.4517 c -0.12503,-0.004 -0.25167,-0.003 -0.37907,0 -4.50505,0.0608 -8.9885,2.35736 -13.29237,8.34804 -7.61292,10.59676 -8.51906,15.84149 -12.12278,21.83394 -6.45835,10.73937 -20.92096,23.28384 -20.92252,33.95679 0,6.76057 3.86135,16.84803 19.16419,16.62347 14.40478,-0.21138 20.04883,-6.45467 30.30295,-9.25948 16.5217,-4.51909 33.35179,-0.62943 33.247,-12.31637 -0.0614,-6.8519 -2.83544,-9.39348 -2.93593,-14.40542 -0.12388,-6.18149 1.59912,-9.93564 1.50021,-14.86516 -0.23068,-11.50199 -11.41127,-10.2167 -17.5994,-14.66351 -5.85339,-4.20625 -9.08423,-15.02047 -16.96228,-15.2523 z"
         style="font-size:medium;font-style:normal;font-variant:normal;font-weight:normal;font-stretch:normal;text-indent:0;text-align:start;text-decoration:none;line-height:normal;letter-spacing:normal;word-spacing:normal;text-transform:none;direction:ltr;block-progression:tb;writing-mode:lr-tb;text-anchor:start;baseline-shift:baseline;color:#000000;fill:#000000;fill-opacity:1;stroke:none;stroke-width:8;marker:none;visibility:visible;display:inline;overflow:visible;enable-background:accumulate;font-family:Sans;-inkscape-font-specification:Sans" />
      <text
         sodipodi:linespacing="125%"
         id="text4051-8-4-0-7-0-8-6"
         y="204.65631"
         x="-313.07794"
         style="font-size:71.72830963px;font-style:normal;font-variant:normal;font-weight:bold;font-stretch:normal;text-align:start;line-height:125%;letter-spacing:0px;word-spacing:0px;writing-mode:lr-tb;text-anchor:start;fill:#000000;fill-opacity:1;stroke:none;font-family:Open Sans Condensed;-inkscape-font-specification:'Open Sans Condensed, Bold'"
         xml:space="preserve"><tspan
           y="204.65631"
           x="-313.07794"
           id="tspan4053-4-2-1-5-87-3-3"
           sodipodi:role="line">LINUX</tspan></text>
      <text
         sodipodi:linespacing="125%"
         id="text4051-8-4-0-4-7-4-7"
         y="290.51166"
         x="-315.03735"
         style="font-size:102.84912109px;font-style:normal;font-variant:normal;font-weight:bold;font-stretch:normal;text-align:start;line-height:125%;letter-spacing:0px;word-spacing:0px;writing-mode:lr-tb;text-anchor:start;fill:#000000;fill-opacity:1;stroke:none;font-family:Open Sans Condensed;-inkscape-font-specification:'Open Sans Condensed, Bold'"
         xml:space="preserve"><tspan
           y="290.51166"
           x="-315.03735"
           id="tspan4053-4-2-1-1-8-8-8"
           sodipodi:role="line">FEST</tspan></text>
      <text
         sodipodi:linespacing="125%"
         id="text4047-6-1-2-2-3-4-8"
         y="142.22435"
         x="-312.0925"
         style="font-size:56.09795761px;font-style:normal;font-variant:normal;font-weight:bold;font-stretch:normal;text-align:start;line-height:125%;letter-spacing:0px;word-spacing:0px;writing-mode:lr-tb;text-anchor:start;fill:#000000;fill-opacity:1;stroke:none;font-family:Open Sans Condensed;-inkscape-font-specification:'Open Sans Condensed, Bold'"
         xml:space="preserve"><tspan
           y="142.22435"
           x="-312.0925"
           id="tspan4049-1-5-6-0-8-9-2"
           sodipodi:role="line">KANSAS</tspan></text>
      <text
         sodipodi:linespacing="125%"
         id="text4063-3-7-9-7-9"
         y="335.4006"
         x="-310.81516"
         style="font-size:23.93155289px;font-style:normal;font-variant:normal;font-weight:600;font-stretch:normal;text-align:start;line-height:125%;letter-spacing:0px;word-spacing:0px;writing-mode:lr-tb;text-anchor:start;fill:#000000;fill-opacity:1;stroke:none;font-family:Open Sans Semibold;-inkscape-font-specification:'Open Sans Semibold, Semi-Bold'"
         xml:space="preserve"><tspan
           y="335.4006"
           x="-310.81516"
           id="tspan4065-8-3-65-4-1"
           sodipodi:role="line">LAWRENCE, KS</tspan></text>
    </g>
  </g>
</svg>
